<svg xmlns="http://www.w3.org/2000/svg" viewBox="0 0 59.51 59.51"><defs><style>.cls-1{fill:#fff;}.cls-2{fill:none;}</style></defs><g id="レイヤー_2" data-name="レイヤー 2"><g id="レイヤー_1-2" data-name="レイヤー 1"><circle class="cls-1" cx="32.53" cy="29.49" r="1.38"/><circle class="cls-1" cx="26.07" cy="29.49" r="1.38"/><path class="cls-1" d="M38.77,12.52a3.06,3.06,0,0,0-3,2.29l-.41,1.53H22l2.22,8.4h9l-.37,1.4H24.57l.32,1.19h8.83L37,15.11a1.89,1.89,0,0,1,1.82-1.4h.31V12.52ZM28,19.94l-.21-2.42h3.08l-.22,2.42Zm2.55,1.19-.22,2.42h-2l-.21-2.42ZM32,17.52h3.06l-.65,2.42H31.81Zm-5.46,0,.21,2.42H24.15l-.64-2.42Zm-2.1,3.61h2.42l.21,2.42h-2Zm7,2.42.21-2.42h2.42l-.64,2.42Z"/><path class="cls-1" d="M20,43.47V37.76h2.54a2,2,0,0,1,1.35.43,1.37,1.37,0,0,1,.52,1.08,1.11,1.11,0,0,1-.18.63,2,2,0,0,1-.6.54,1.62,1.62,0,0,1,.94,1.39A1.53,1.53,0,0,1,24,43.05a2.16,2.16,0,0,1-1.43.42Zm1.17-4.73V40h1.29c.54,0,.82-.21.82-.64s-.28-.65-.82-.65Zm0,2.27v1.48h1.4c.58,0,.87-.25.87-.74s-.29-.74-.87-.74Z"/><path class="cls-1" d="M29.94,37.76h1.18v3.78A1.82,1.82,0,0,1,30.57,43a2.45,2.45,0,0,1-1.71.58,2.4,2.4,0,0,1-1.7-.58,1.82,1.82,0,0,1-.56-1.43V37.76h1.17v3.78c0,.67.36,1,1.09,1s1.08-.34,1.08-1Z"/><path class="cls-1" d="M35.93,41.36v2.11H34.76V41.36l-1.89-3.6h1.3l1.17,2.52,1.09-2.52h1.3Z"/><rect class="cls-2" width="59.51" height="59.51"/></g></g></svg>