<svg xmlns="http://www.w3.org/2000/svg" viewBox="0 0 60.12 60.12"><g id="レイヤー_2" data-name="レイヤー 2"><g id="レイヤー_1-2" data-name="レイヤー 1"><path d="M30.06,0A30.06,30.06,0,1,0,60.12,30.06,30.06,30.06,0,0,0,30.06,0Zm7.25,20.66a.25.25,0,0,1-.24.25H33.55a1.29,1.29,0,0,0-1.12,1.45v2.87h4.7a.16.16,0,0,1,.16.18l-.54,4.43a.2.2,0,0,1-.2.18H32.43V44a.24.24,0,0,1-.24.24h-6a.24.24,0,0,1-.24-.24V30H23a.18.18,0,0,1-.18-.18V25.42a.19.19,0,0,1,.18-.19h3V21.1a5,5,0,0,1,1.62-3.75,5.69,5.69,0,0,1,3.88-1.46h5.63a.24.24,0,0,1,.24.24Z"/></g></g></svg>