<svg xmlns="http://www.w3.org/2000/svg" viewBox="0 0 60 20.72"><defs><style>.cls-1{fill:#040000;}</style></defs><g id="レイヤー_2" data-name="レイヤー 2"><g id="レイヤー_1-2" data-name="レイヤー 1"><path class="cls-1" d="M8.26,10.06V9.62a11.48,11.48,0,0,1-1.46.89l-.47-.64A9.15,9.15,0,0,0,7.55,9.1c-.29-.38-.44-.56-.75-.91l.5-.47a9.11,9.11,0,0,1,1,.74A5.94,5.94,0,0,0,9,7.55H6.92V6.79H9.33l.36-.38a3.39,3.39,0,0,1,.81.74v.52h-.37a7.18,7.18,0,0,1-1.5,1.66h2.79l.38-.43a4.14,4.14,0,0,1,.83.71v.45h-.72v1.06H13l.41-.47a3.49,3.49,0,0,1,.87.71v.5H11.91v1.2c0,.32,0,.41.47.41h.42c.63,0,.71,0,.74-1l1,.28c-.14,1.34-.45,1.57-1.71,1.57h-.66c-1.08,0-1.25-.34-1.25-1V11.86h-1c-.37,1.66-2.06,2.33-3.12,2.61l-.4-.7a3.22,3.22,0,0,0,2.5-1.91H6.73v-.74H9c0-.12,0-.43,0-.6v-.46Zm1.75,0v.37c0,.23,0,.62,0,.69h.95V10.06ZM14.4,7.79a9.37,9.37,0,0,1-1.18.9,11.37,11.37,0,0,0,1.43.89l-.64.88a9.8,9.8,0,0,1-3.57-3.81l.68-.35a6.42,6.42,0,0,0,.6.92,10,10,0,0,0,.67-.9l.81.57c-.16.15-.56.53-1,.9l.47.45c.59-.61.67-.68.95-1Z"/><path class="cls-1" d="M22.79,10.54a9.5,9.5,0,0,0,1.5-1.2H23.06V9.11h-.29v5.34H22V14H20.12v.43H19.4V8.09l.7.29h.24V7.51H19.19V6.76h2.73l.33-.46a2.88,2.88,0,0,1,.84.72v.49H21.85v.87h.27L22.39,8a2.86,2.86,0,0,1,.69.65v0h1.06V7.76h-.91V7.05h.91V6.34H25v.71h.17l.32-.41a2.21,2.21,0,0,1,.53.5c.11-.2.18-.31.39-.75l.91.31A11.13,11.13,0,0,1,26,8.63h.38l.32-.45a2.35,2.35,0,0,1,.64.69v.47h-2c-.33.31-.39.38-.55.52h1l.37-.42a2.47,2.47,0,0,1,.75.73v.46h-.43a10.18,10.18,0,0,1-1,.79v.25h.74l.34-.48a2.76,2.76,0,0,1,.75.71v.49H25.51v.94c0,1-.27,1.13-1.63,1.12l-.18-.92h.73c.18,0,.18-.17.18-.41v-.73H23.1v-.72h1.51V11h.54c.1-.13.21-.28.35-.5H24c-.29.21-.45.33-.82.57Zm-2.72.37a5.86,5.86,0,0,0,.33-1.8h-.33Zm.05.11v.72H22v-.62a1.18,1.18,0,0,1-.61-.1c-.12-.09-.17-.26-.17-.55V9.11h-.34a5.21,5.21,0,0,1-.48,2.1Zm0,1.44v.82H22v-.82Zm1.14-5h-.33v.87h.33Zm.51,2.66c0,.22.07.24.32.24V9.11h-.32ZM25,7.76v.83c.32-.39.44-.56.64-.83Z"/><path class="cls-1" d="M35.26,9.28v2.48h-.63a11.6,11.6,0,0,1,1,1.45l-.9.53c-.12-.34-.14-.38-.19-.52-1.1.46-1.75.69-2.43.91l-.18-1,.48-.09V8.92l-.27.23-.35-.62A6.25,6.25,0,0,0,33.3,6.26l1,.16a2.68,2.68,0,0,1-.12.24c.81.49,1.23.77,1.54,1l-.61.78a2.25,2.25,0,0,1,.37.42v.44Zm-1.75-.62V8h.77v.7h.24l.34-.45a12,12,0,0,0-1-1A7.76,7.76,0,0,1,32.83,8.5l.4.16Zm-.25.62v.53h1.13V9.28Zm0,1.09v.52h1.13v-.52Zm0,1.15v1.34c.29-.06.41-.07,1-.22-.11-.25-.15-.35-.31-.66l.48-.22h-.07v-.24Zm6.23,2.91a7.93,7.93,0,0,1-1.83-3,5.23,5.23,0,0,1-2.16,3L35,13.87c1.8-1.45,2-3,2-5.39h-.21A12.35,12.35,0,0,1,36,10.14l-.65-.39a11.47,11.47,0,0,0,1-3.43l1,.12A13.13,13.13,0,0,1,37,7.72H39l.35-.5a3.92,3.92,0,0,1,.82.74v.66h-.38a8.59,8.59,0,0,1-.88,1.59l-.6-.33a9.41,9.41,0,0,0,.55-1.4H38c0,.59,0,.85-.05,1.31a6.76,6.76,0,0,0,2.3,3.67Z"/><path class="cls-1" d="M44.58,12.36A8.15,8.15,0,0,0,45.9,9.9H44.77V9.16H46V6.34h.91V9.16h.39l.35-.48a3.23,3.23,0,0,1,.71.72l.33-.33a15.9,15.9,0,0,1,1.63,1.24l-.76.81a16,16,0,0,0-1.2-1.48V9.9H46.89v.3a15.26,15.26,0,0,1,1.45,1l-.63.93c-.17-.25-.49-.73-.82-1.16v3.51H46V11.67a9.49,9.49,0,0,1-1,1.22Zm.53-3.63c-.14-.72-.17-.89-.37-1.66l.55-.18A12.75,12.75,0,0,1,46,8.43Zm1.82-.28a15.63,15.63,0,0,0,.62-1.59l.87.3a16.7,16.7,0,0,1-1,1.55Zm5,2.89.27-.57a2.62,2.62,0,0,1,.73.63l0,.52-1.25.2v2.33h-1V12.27L48,12.7,47.87,12l2.83-.45V6.34h1v5ZM49.76,8.82A12.94,12.94,0,0,0,48.51,7.3L49,6.83A15.94,15.94,0,0,1,50.48,8Z"/><path class="cls-1" d="M60,20.72H0V0H60Zm-59-1H59V1H1Z"/></g></g></svg>