<svg xmlns="http://www.w3.org/2000/svg" viewBox="0 0 60.12 60.12"><g id="レイヤー_2" data-name="レイヤー 2"><g id="レイヤー_1-2" data-name="レイヤー 1"><path d="M30.06,0A30.06,30.06,0,1,0,60.12,30.06,30.06,30.06,0,0,0,30.06,0ZM45.65,37A8.71,8.71,0,0,1,37,45.65H23.15A8.71,8.71,0,0,1,14.47,37V23.15a8.71,8.71,0,0,1,8.68-8.68H37a8.71,8.71,0,0,1,8.69,8.68Z"/><path d="M30.08,24.88a5.18,5.18,0,1,0,5.18,5.18A5.18,5.18,0,0,0,30.08,24.88Z"/><path d="M37,17.36H23.15a5.84,5.84,0,0,0-5.79,5.79V37a5.82,5.82,0,0,0,5.79,5.79H37A5.8,5.8,0,0,0,42.75,37V23.15A5.82,5.82,0,0,0,37,17.36ZM30.08,38.13a8.07,8.07,0,1,1,8.07-8.07A8.07,8.07,0,0,1,30.08,38.13Zm8.29-14.56a1.9,1.9,0,1,1,1.89-1.89A1.9,1.9,0,0,1,38.37,23.57Z"/></g></g></svg>