<svg xmlns="http://www.w3.org/2000/svg" viewBox="0 0 56.01 7.87"><defs><style>.cls-1{fill:#040000;}</style></defs><g id="レイヤー_2" data-name="レイヤー 2"><g id="レイヤー_1-2" data-name="レイヤー 1"><path class="cls-1" d="M20.11,3.29,18.54,7.61H15.91L18.82.21h2.65l2.88,7.4h-2.7Z"/><path class="cls-1" d="M25,.21h2.51v7.4H25Z"/><path class="cls-1" d="M29,.21h2.51v7.4H29Z"/><path class="cls-1" d="M35.24,4.66h0v3H32.81V.21h2.4V2.94h0l2-2.73h2.93L37.36,3.6l2.91,4H37.22Z"/><path class="cls-1" d="M49.76.21V5a.86.86,0,0,1-.09.41.31.31,0,0,1-.32.16H48.6l-.5,2.27h1.27a3.81,3.81,0,0,0,1.53-.27,2.3,2.3,0,0,0,.83-.7,2.79,2.79,0,0,0,.42-.95,5.23,5.23,0,0,0,.11-1V.21Z"/><path class="cls-1" d="M53.5.21H56v7.4H53.5Z"/><path class="cls-1" d="M40,3.87a4,4,0,0,1,.32-1.61,3.38,3.38,0,0,1,.86-1.21,3.7,3.7,0,0,1,1.3-.78,5.06,5.06,0,0,1,3.26,0A3.84,3.84,0,0,1,47,1.05a3.38,3.38,0,0,1,.86,1.21,4,4,0,0,1,.32,1.61,4.07,4.07,0,0,1-.32,1.62A3.54,3.54,0,0,1,47,6.74a4,4,0,0,1-1.31.8,4.81,4.81,0,0,1-1.63.28,4.77,4.77,0,0,1-1.63-.28,3.9,3.9,0,0,1-1.3-.8,3.54,3.54,0,0,1-.86-1.25A4.07,4.07,0,0,1,40,3.87Zm2.65,0a1.85,1.85,0,0,0,.11.67,1.58,1.58,0,0,0,.3.52,1.28,1.28,0,0,0,.46.34,1.48,1.48,0,0,0,.59.12,1.4,1.4,0,0,0,.58-.12,1.28,1.28,0,0,0,.46-.34,1.44,1.44,0,0,0,.31-.52,1.85,1.85,0,0,0,.11-.67,1.76,1.76,0,0,0-.11-.66,1.36,1.36,0,0,0-.31-.5,1.52,1.52,0,0,0-.46-.32,1.58,1.58,0,0,0-.58-.11,1.67,1.67,0,0,0-.59.11,1.52,1.52,0,0,0-.46.32,1.48,1.48,0,0,0-.3.5A1.76,1.76,0,0,0,42.62,3.87Z"/><path class="cls-1" d="M4.2,3.29,2.63,7.61H0L2.92.21H5.56l2.89,7.4H5.74Z"/><path class="cls-1" d="M12.86,3.09c-1.58-.24-1.93-.37-1.95-.77s.38-.47,1.05-.5a7.59,7.59,0,0,1,3.34.77L15.7.78a9.18,9.18,0,0,0-3.8-.7c-2,.1-3.3,1.13-3.23,2.53.08,1.6,1.47,1.93,3.28,2.2,1.52.23,1.79.41,1.81.74s-.12.44-1.2.49a7.22,7.22,0,0,1-3.4-.89l-.11-.06L8.64,7a6.9,6.9,0,0,0,4,.88c2.16-.11,3.46-1.1,3.38-2.6S14.69,3.37,12.86,3.09Z"/></g></g></svg>