<svg xmlns="http://www.w3.org/2000/svg" viewBox="0 0 184.24 58.69"><defs><style>.cls-1{fill:#040000;}</style></defs><g id="レイヤー_2" data-name="レイヤー 2"><g id="レイヤー_1-2" data-name="レイヤー 1"><path class="cls-1" d="M52.1,3.77l3,0c.46,0,.44-.23.44-.7s0-.7-.44-.7c-.73,0-2.91,0-2.91,0-.4,0-.57-.14-.62-.53,0-.68,0-1.08.27-1.22.11-.08.31-.19.31-.33S51.8.12,51.31.08L51,.06c-.22,0-.62-.06-.84-.06s-.35,0-.35.27c0,.06,0,.12,0,.18a13.72,13.72,0,0,1,.09,1.43c0,.39-.18.57-.62.57h-.79c-.73,0-1.43,0-2.16,0-.44,0-.46.15-.46.7s0,.7.46.7c.73,0,1.43,0,2.16,0h.88c.38,0,.53.14.53.49v.57c0,.35-.15.49-.53.49h-.71l-1.26,0c-.57,0-.92.15-.92.74,0,.29,0,.55,0,.84v3.55c0,.27,0,.55,0,.84,0,.59.37.74,1,.74l1.23,0h.69c.37,0,.53.14.53.49v.8c0,.33-.16.49-.53.49h-1c-.77,0-1.41,0-2.18,0-.44,0-.46.18-.46.72s0,.71.46.71c.77,0,1.41,0,2.18,0h.93c.44,0,.62.17.62.58,0,.76-.05.82-.05,1.6,0,.63.18.71.89.71s.88-.08.88-.71c0-.78-.09-.84-.07-1.6,0-.41.2-.58.62-.58h.62c.77,0,1,0,1.79,0,.44,0,.44-.2.44-.71s0-.72-.46-.72c-.77,0-1,0-1.77,0h-.69c-.37,0-.55-.16-.55-.49v-.8c0-.35.18-.49.55-.49h.67L54,12c.58,0,.91-.17.91-.76V6.06c0-.63-.35-.76-.95-.76l-1.21,0H52.1c-.37,0-.55-.14-.55-.49V4.26C51.55,3.91,51.73,3.77,52.1,3.77Zm1.13,6.39a.47.47,0,0,1-.53.49h-4a.47.47,0,0,1-.53-.49V9.75a.48.48,0,0,1,.53-.49h4a.48.48,0,0,1,.53.49Zm-.53-3.5a.47.47,0,0,1,.53.49v.37A.48.48,0,0,1,52.7,8h-4a.48.48,0,0,1-.53-.51V7.15a.47.47,0,0,1,.53-.49Z"/><path class="cls-1" d="M65.1,3.57c0-.62,0-1.09,0-1.48,0-.94-.14-1.23-.95-1.23-.49,0-1,0-1.46,0H59.94c-.49,0-1,0-1.44,0-.72,0-1,.25-1,.9s0,1.21,0,1.81V8.32c0,2.85-.22,6.07-1.83,8.57-.07.13-.31.45-.31.58,0,.39.9.78,1.26.78s.81-.95,1-1.25A15.24,15.24,0,0,0,59,12.51c.1-.34.29-.48.71-.48h3.09c.44,0,.62.16.62.57V15c0,1.08,0,1.51-1.28,1.51-.33,0-.66,0-1,0s-.44.15-.44.49c0,1.26.51,1.3,1.15,1.3,2,0,3.26-.13,3.26-2.3,0-.53-.05-1.07-.05-1.6ZM59.25,3a.57.57,0,0,1,.62-.55h2.92a.57.57,0,0,1,.62.55V5.36a.61.61,0,0,1-.62.57H59.87a.61.61,0,0,1-.62-.57Zm3.54,7.56h-3c-.36,0-.55-.14-.58-.46s0-.62,0-.87V8c0-.41.18-.58.62-.58h2.92c.44,0,.62.17.62.58V10C63.41,10.35,63.23,10.53,62.79,10.53Z"/><path class="cls-1" d="M88.32,9.39a7.53,7.53,0,0,0-1.43-2.58A3.47,3.47,0,0,0,84.3,5.52,4.15,4.15,0,0,0,81,7.46a11.86,11.86,0,0,0-1.71,3.61c-.17.58-.38,1.28-.49,1.55-.28.69-.59,1.06-.89,1.06-.77,0-1.37-.49-1.79-1.45a6.15,6.15,0,0,1-.49-2.49c0-.3,0-.74.07-1.33s.08-1,.08-1.32a2.67,2.67,0,0,0-1.31-2.57c-.7-.37-.86,0-.86,0s-.16.28-.39.76.31.73.31.73a1.66,1.66,0,0,1,.56,1.43c0,.25,0,.62-.07,1.13S74,9.48,74,9.74a7.35,7.35,0,0,0,.93,3.71A3.42,3.42,0,0,0,78,15.39c1,0,1.76-.63,2.29-1.92a.64.64,0,0,0,0-.07c.31-1,.62-2.05.94-3.08a7.06,7.06,0,0,1,1.19-2.05,2.64,2.64,0,0,1,1.93-1.12c.85,0,1.56.68,2.12,2a9.57,9.57,0,0,1,.66,2.49l0,.33a.45.45,0,0,0,.51.33l.87-.1a.34.34,0,0,0,.31-.44c0-.2,0-.32,0-.32A9.47,9.47,0,0,0,88.32,9.39Z"/><path class="cls-1" d="M110.93,9.39a7.38,7.38,0,0,0-1.44-2.58,3.46,3.46,0,0,0-2.58-1.29,4.15,4.15,0,0,0-3.3,1.94,11.63,11.63,0,0,0-1.71,3.61c-.17.58-.39,1.28-.49,1.55-.29.69-.6,1.06-.89,1.06a2,2,0,0,1-1.8-1.45,6.32,6.32,0,0,1-.49-2.49c0-.3,0-.74.08-1.33s.07-1,.07-1.32a2.68,2.68,0,0,0-1.3-2.57c-.71-.37-.86,0-.86,0s-.16.28-.39.76.31.73.31.73a1.66,1.66,0,0,1,.55,1.43c0,.25,0,.62-.06,1.13s-.07.89-.07,1.15a7.36,7.36,0,0,0,.94,3.71,3.4,3.4,0,0,0,3.06,1.94c1,0,1.75-.63,2.28-1.92l0-.07.93-3.08A7.32,7.32,0,0,1,105,8.27a2.64,2.64,0,0,1,1.93-1.12c.84,0,1.55.68,2.12,2a9.17,9.17,0,0,1,.65,2.49l0,.33a.44.44,0,0,0,.51.33l.87-.1a.35.35,0,0,0,.31-.44,2.39,2.39,0,0,1,0-.32A10.09,10.09,0,0,0,110.93,9.39Z"/><path class="cls-1" d="M127.28,3.52c.38,0,.73,0,1.12,0s.53.18.53.51,0,.53,0,.8c0,.49.24.51.88.51s.84,0,.84-.55c0-.21,0-.54,0-.76,0-.37.2-.53.59-.53h1.34c.4,0,.57.14.6.53s0,.53,0,.8c0,.47.2.51.89.51s.83,0,.83-.55c0-.25,0-.49,0-.74s.15-.55.57-.55c.73,0,1.44.06,2.16.06.44,0,.44-.23.44-.78s0-.76-.44-.76c-.66,0-1.43.08-2.16.06-.39,0-.59-.14-.59-.53,0-.64,0-.78.26-.92s.25-.13.25-.25-.18-.19-.31-.21S133.64,0,133.4,0s-.35,0-.35.23,0,.14,0,.18a9.3,9.3,0,0,1,.09,1.05c0,.41-.18.53-.62.57H131.2c-.39,0-.57-.14-.61-.53,0-.62,0-.76.26-.92s.27-.13.27-.25-.27-.21-.4-.23c-.29,0-1.28-.1-1.52-.1s-.33,0-.33.23,0,.12,0,.2a5,5,0,0,1,.07,1c0,.37-.16.53-.56.55l-1.07,0c-.44,0-.44.22-.44.76S126.87,3.52,127.28,3.52Z"/><path class="cls-1" d="M129.94,6.53a2,2,0,0,0-.6-.2c-.2,0-.29.15-.35.36l-.11.34a19.1,19.1,0,0,1-2.62,4.7c-.19.24-.39.47-.61.71s-.18.18-.26.28-.24.32-.14.49.83.78,1.23.55a3.94,3.94,0,0,0,.59-.57l.17-.21a.25.25,0,0,1,.12,0,.15.15,0,0,1,.15.17V16c0,.72,0,1.41,0,2.13s.18.7.9.7.86-.1.86-.66c0-.74,0-1.45,0-2.17V11.57a9.17,9.17,0,0,1,.18-1.93c.41-.78.63-1.31.79-1.66,0,0,0,0,0,0a6,6,0,0,0,.38-.94C130.56,6.82,130.22,6.66,129.94,6.53Z"/><path class="cls-1" d="M137.32,13.87c-.44,0-.44.24-.48.63a7.66,7.66,0,0,1-.58,2.22c-.15.24-.48.26-.77.26h-.9c-.71,0-.88-.1-.88-1V13.07a.81.81,0,0,1,.46-.84,35.81,35.81,0,0,0,3.2-2.32l.45-.34a.89.89,0,0,1,.26-.12c.13,0,.24-.08.24-.2s-1-1.06-1.24-1.06a.44.44,0,0,0-.22.1,20.69,20.69,0,0,1-2.65,2.07.43.43,0,0,1-.22.06c-.2,0-.26-.16-.28-.33V8.78a17.89,17.89,0,0,1,.16-2.09c0-.21-.2-.25-.35-.27-.31,0-1-.06-1.25-.06s-.35,0-.35.25c0,.06,0,.18,0,.24A17.69,17.69,0,0,1,132,8.78V11.2a.7.7,0,0,1-.42.74l-.59.31c-.58.3-.82.43-.82.65s.51,1,.82,1a1.73,1.73,0,0,0,.57-.21.26.26,0,0,1,.18-.06c.19,0,.24.14.26.31v1.62c0,.43,0,.86,0,1.29,0,1.27.83,1.62,2,1.62h1.72c1.34,0,1.74-.25,2.2-1.48a10.31,10.31,0,0,0,.6-2.54C138.56,14,137.74,13.87,137.32,13.87Z"/><path class="cls-1" d="M124,9.78c-.22-.33-.42-.66-.62-1a.71.71,0,0,1,0-.2c0-.29.33-.29.4-.29.57,0,1.14,0,1.69,0s.42-.26.42-.8,0-.8-.42-.8-1.14,0-1.74,0h-.24c-.42,0-.62-.16-.62-.57V2c0-.78,0-1.09.27-1.23s.28-.15.28-.29-.22-.22-.37-.25-1.23-.12-1.5-.12-.33,0-.33.27,0,.43,0,.53c0,.49,0,.78,0,1.38V6.19c0,.41-.18.57-.62.57h-.13c-.62,0-1.28,0-1.76,0s-.42.27-.42.8,0,.8.42.8,1,0,1.58,0c.22,0,.44.08.44.35a.47.47,0,0,1,0,.16A31.94,31.94,0,0,1,118.13,14c-.09.15-.27.35-.27.51a1.44,1.44,0,0,0,.93.93c.22,0,.33-.21.48-.41a19.34,19.34,0,0,0,1.79-3.51.13.13,0,0,1,.11-.08.12.12,0,0,1,.11.12V15c0,.92-.07,1.86-.07,2.79,0,.57.16.63.86.63s.84-.06.84-.61c0-.95-.07-1.87-.07-2.81V10.84c0-.06,0-.14.14-.14s.22.23.26.33a1.27,1.27,0,0,0,.13.19c.19.38.56,1.08.87,1.08s.84-.86.84-1.05A.27.27,0,0,0,125,11C124.63,10.63,124.31,10.21,124,9.78Z"/><path class="cls-1" d="M119.25,5.45c.07.27.13.45.48.45s.82-.12.82-.49a16.19,16.19,0,0,0-.46-1.82c-.36-1.11-.49-1.66-.86-1.66-.2,0-.91.18-.91.49a1.53,1.53,0,0,0,.11.39A21.16,21.16,0,0,1,119.25,5.45Z"/><path class="cls-1" d="M123.27,5.73c0,.28.73.39,1,.38s.34-.16.42-.37c.27-.82.61-2.07.8-2.92,0-.12.06-.25.21-.29s.3-.1.3-.25-1.37-.5-1.51-.49-.23.21-.25.32a19.51,19.51,0,0,1-.83,3.24A1.12,1.12,0,0,0,123.27,5.73Z"/><path class="cls-1" d="M66.15,43.62,61,57.83H52.33l9.59-24.34h8.7l9.49,24.34H71.2Z"/><path class="cls-1" d="M82.35,33.49h8.26V57.83H82.35Z"/><path class="cls-1" d="M95.51,33.49h8.25V57.83H95.51Z"/><path class="cls-1" d="M115.94,48.14h-.07v9.69h-7.94V33.49h7.91v9h.06l6.5-9H132l-9.14,11.14,9.59,13.2h-10Z"/><path class="cls-1" d="M163.68,33.49V49.17a3,3,0,0,1-.27,1.36,1.1,1.1,0,0,1-1.07.53h-2.46l-1.64,7.46h4.16a12.45,12.45,0,0,0,5-.89,7.41,7.41,0,0,0,2.75-2.31,8.37,8.37,0,0,0,1.36-3.13,16.3,16.3,0,0,0,.36-3.37V33.49Z"/><path class="cls-1" d="M176,33.49h8.25V57.83H176Z"/><path class="cls-1" d="M131.49,45.52a13.19,13.19,0,0,1,1-5.28,11.79,11.79,0,0,1,2.84-4,12.66,12.66,0,0,1,4.28-2.55,16.62,16.62,0,0,1,10.73,0,13,13,0,0,1,4.3,2.55,11.55,11.55,0,0,1,2.85,4,13,13,0,0,1,1,5.28,13.33,13.33,0,0,1-1,5.33A11.89,11.89,0,0,1,154.67,55a12.8,12.8,0,0,1-4.3,2.63,15.94,15.94,0,0,1-10.73,0A12.52,12.52,0,0,1,135.36,55a12.14,12.14,0,0,1-2.84-4.11A13.51,13.51,0,0,1,131.49,45.52Zm8.7,0a6.39,6.39,0,0,0,.36,2.2,5.13,5.13,0,0,0,1,1.72,4.28,4.28,0,0,0,1.53,1.12A4.63,4.63,0,0,0,145,51a4.56,4.56,0,0,0,3.43-1.52,5,5,0,0,0,1-1.72,6.39,6.39,0,0,0,.36-2.2,6.22,6.22,0,0,0-.36-2.15,4.61,4.61,0,0,0-1-1.65,4.85,4.85,0,0,0-1.53-1,4.77,4.77,0,0,0-1.9-.37,5,5,0,0,0-1.93.37,4.63,4.63,0,0,0-1.53,1,4.71,4.71,0,0,0-1,1.65A6.22,6.22,0,0,0,140.19,45.52Z"/><path class="cls-1" d="M13.82,43.62,8.67,57.83H0L9.59,33.49h8.7l9.49,24.34h-8.9Z"/><path class="cls-1" d="M42.29,43c-5.19-.78-6.32-1.21-6.39-2.51,0-.94,1.24-1.57,3.45-1.68s8.07.79,11,2.53l1.3-5.93a30.3,30.3,0,0,0-12.51-2.31c-6.49.33-10.86,3.73-10.62,8.32.27,5.26,4.84,6.35,10.78,7.25,5,.75,5.9,1.34,6,2.43,0,.66-.38,1.44-3.92,1.62a24,24,0,0,1-11.2-2.93l-.36-.2-1.36,6.2a22.69,22.69,0,0,0,13.09,2.9c7.12-.37,11.39-3.62,11.14-8.56C52.4,45.46,48.33,43.89,42.29,43Z"/></g></g></svg>