<svg xmlns="http://www.w3.org/2000/svg" viewBox="0 0 86.65 153.23"><defs><style>.cls-1{fill:#040000;}</style></defs><g id="レイヤー_2" data-name="レイヤー 2"><g id="レイヤー_1-2" data-name="レイヤー 1"><path class="cls-1" d="M2.05,9.41a15.76,15.76,0,0,0-1.72.07v-2a9.52,9.52,0,0,0,1.74.1h.45a7.72,7.72,0,0,0-.8-2.23l1.64-.41H2.48A13.9,13.9,0,0,0,.7,5V3a10.14,10.14,0,0,0,1.8.1H4V2.81a9.07,9.07,0,0,0-.08-1.38H6.14A6.34,6.34,0,0,0,6,2.79v.3H7.32A9.65,9.65,0,0,0,9.06,3V5A13.75,13.75,0,0,0,7.3,4.93H6.53l1.59.45a22.13,22.13,0,0,1-1,2.19h.39a9.54,9.54,0,0,0,1.72-.1v2a16.25,16.25,0,0,0-1.72-.07H6v1.33H7.41a9.83,9.83,0,0,0,1.71-.1v2a15.43,15.43,0,0,0-1.71-.07H6.73a7.65,7.65,0,0,0,1.92,1.64A11.45,11.45,0,0,0,7.75,16a8.17,8.17,0,0,1-1.82-2c0,.89,0,1.35,0,1.47v1.86a11,11,0,0,0,.09,1.56H3.91A10.23,10.23,0,0,0,4,17.35V15.47c0-.37,0-.76,0-1.27A9.17,9.17,0,0,1,.94,17.68,6.25,6.25,0,0,0,0,15.76a9.49,9.49,0,0,0,3.29-3.22H2.07a11.3,11.3,0,0,0-1.72.09v-2a9.77,9.77,0,0,0,1.76.1H4V9.41ZM3.5,4.93a9.41,9.41,0,0,1,.82,2.19l-1.7.45H5.2A11.37,11.37,0,0,0,6.28,4.93ZM16,7.22a7.62,7.62,0,0,0,1.72-.12V9.19a10.13,10.13,0,0,0-1.5-.08h-.47v7.55a13.25,13.25,0,0,0,.11,2.21H13.67a12.39,12.39,0,0,0,.12-2.21V9.11h-2a24.69,24.69,0,0,1-.69,6.07,11.25,11.25,0,0,1-1.68,3.75A8.57,8.57,0,0,0,7.59,17.7C9.37,15.51,9.84,13.06,9.84,6A20.06,20.06,0,0,0,9.72,3c2.13-.06,5.36-.88,6.3-1.6l1.55,1.81-.63.22a25.4,25.4,0,0,1-5.13,1.27V7.22Z"/><path class="cls-1" d="M6.81,22.94c.49.14.62.24.62.45a1.28,1.28,0,0,1-.11.47,10.59,10.59,0,0,0-.45,2.94c-.16,3.15-.24,5.59-.24,7.53a5,5,0,0,0,.16,1.41c.21.64.9,1,2,1a7.15,7.15,0,0,0,5-2.15,11.08,11.08,0,0,0,1.86-2.27,6.7,6.7,0,0,0,.7,1.92,1.18,1.18,0,0,1,.1.45c0,.35-.37.82-1.35,1.7A9.4,9.4,0,0,1,8.7,39a4.49,4.49,0,0,1-3.28-1.07c-.74-.78-1-1.8-1-3.74,0-1.52,0-2.7.18-7.26,0-.68,0-1.09,0-1.27a18.12,18.12,0,0,0-.14-3A11.79,11.79,0,0,1,6.81,22.94Z"/><path class="cls-1" d="M1.64,46.75c0-.57,0-1.33-.06-1.76a8.8,8.8,0,0,1,2.1.43c.47.18.62.29.62.51a.62.62,0,0,1-.07.31,8.62,8.62,0,0,0-.34,3.19,17.32,17.32,0,0,0,.55,5.26c.29.92.74,1.45,1.27,1.45.8,0,1.47-.94,2.19-3.11A5.83,5.83,0,0,0,9,55a.68.68,0,0,1,.16.41A3.73,3.73,0,0,1,8.43,57,3.43,3.43,0,0,1,5.65,58.7c-1.5,0-2.64-1.21-3.34-3.62a22.91,22.91,0,0,1-.67-6.28Zm11.64.31a.55.55,0,0,1,.37.2,12.82,12.82,0,0,1,2.64,4,12.14,12.14,0,0,1,.85,2.84c0,.19-.1.29-.51.5a6,6,0,0,1-1.61.55c-.17,0-.25-.1-.31-.45a13.68,13.68,0,0,0-1.21-3.87A10.55,10.55,0,0,0,11.58,48,5,5,0,0,1,13.28,47.06Z"/><path class="cls-1" d="M4.09,64.55A5.66,5.66,0,0,0,4,63.1H6a8.91,8.91,0,0,0-.11,1.47v.28H7.39a10.92,10.92,0,0,0,1.86-.1v1.93c-.53-.05-1.13-.09-1.86-.09H5.93v1.15H7a13.27,13.27,0,0,0,1.8-.06,11.26,11.26,0,0,0-.06,1.76v3.23a15.21,15.21,0,0,0,.06,2c-.53,0-.9,0-1.8,0H5.93v1.17H7.1a10.68,10.68,0,0,0,1.82-.1v2a14.66,14.66,0,0,0-1.8-.08H5.93v.94A10.82,10.82,0,0,0,6,80.51H4a9.5,9.5,0,0,0,.12-1.93v-.94H2.37a12.7,12.7,0,0,0-1.9.1v-2a10.78,10.78,0,0,0,1.86.1H4.07V74.65h-1c-.84,0-1.19,0-1.82,0a17.69,17.69,0,0,0,.08-2V69.48a15.3,15.3,0,0,0-.08-1.8c.49,0,.86.06,1.82.06h1V66.59H2.5a12.37,12.37,0,0,0-1.87.09V64.75a10.77,10.77,0,0,0,1.87.1H4.09Zm-.92,5.91H6.94v-1H3.17Zm0,2.6H6.94V72H3.17Zm8.63,1.27a12.07,12.07,0,0,1-.47,2.88,8.46,8.46,0,0,1-1.67,3.3A12.15,12.15,0,0,0,8,79.24a7,7,0,0,0,1.8-4.18,57.9,57.9,0,0,0,.33-8.14,27.75,27.75,0,0,0-.1-3.27,19.62,19.62,0,0,0,2.08.08H15a17.44,17.44,0,0,0,2-.08,17.18,17.18,0,0,0-.08,2.11V78c0,1-.18,1.49-.7,1.82a3.49,3.49,0,0,1-1.88.37c-.3,0-.47,0-1.55,0a6.82,6.82,0,0,0-.49-2.07,11.13,11.13,0,0,0,1.92.19c.63,0,.72-.07.72-.6V74.33ZM15,72.55V69.93H12c0,.24,0,.45,0,.59s0,.86-.08,2Zm0-4.42V65.59H12.05v2.54Z"/><path class="cls-1" d="M8,96.24A4.33,4.33,0,0,1,4.4,98.76c-2,0-3.48-2-3.48-4.77a7.89,7.89,0,0,1,4.24-7.16,9.26,9.26,0,0,1,4.58-1,6.77,6.77,0,0,1,7.12,6.76,7.44,7.44,0,0,1-4.93,7.28,4.7,4.7,0,0,1-1.41.43c-.23,0-.33-.08-.58-.45A4.16,4.16,0,0,0,8.7,98.61c4-1,5.85-2.94,5.85-6.1a4.58,4.58,0,0,0-1.89-3.86,5.05,5.05,0,0,0-2.31-.84C9.8,91.94,9.15,94.19,8,96.24ZM5.14,89.32a6.06,6.06,0,0,0-2,4.63c0,1.51.49,2.39,1.31,2.39,1,0,2-1.35,2.72-3.68a25.09,25.09,0,0,0,1-4.75A5.59,5.59,0,0,0,5.14,89.32Z"/><path class="cls-1" d="M16.8,110.8c0,1-.08,1.25-.43,1.52a3.46,3.46,0,0,1-2.05.35l-1.47,0a4.69,4.69,0,0,0-.29-1.54c-.84.37-1.1.47-1.92.78a4.7,4.7,0,0,0-.47.18c-.43.74-.49.86-.84,1.37h3.89c1.1,0,1.41,0,2.06-.06a18.11,18.11,0,0,0-.08,2.13v3.87a14.19,14.19,0,0,0,.1,2.17H13.16v-.78H4.69v.78H2.6a14.69,14.69,0,0,0,.1-2.17v-3.85a19.94,19.94,0,0,0-.06-2.15c.61,0,1,.06,2,.06H7.22c.19-.3.21-.36.55-1a4.53,4.53,0,0,1-1.65.21l-1.23,0A4.45,4.45,0,0,0,4.48,111c-.78.37-1.51.71-2.45,1.08a6.16,6.16,0,0,0-.84.37l-.64-1.86a21.39,21.39,0,0,0,5.34-2L6,110.27l-1.26.62c.59,0,.81.06,1,.06.88,0,.94,0,.94-.45v-4.09h-4a13,13,0,0,1,2.5,1.67l-1.35,1.23a11.27,11.27,0,0,0-2.44-1.8l1.25-1.1H2.39a9.9,9.9,0,0,0-1.71.1v-2a16.81,16.81,0,0,0,2.08.11h4a13.7,13.7,0,0,0,1.88-.08c0,.42-.06.87-.06,1.92v4.27a3.29,3.29,0,0,1-.1.92l1.15.21-.5-1.53a17.94,17.94,0,0,0,5.08-1.81l.06,1.7c-.63.33-.84.43-1.25.62.39,0,.84.08,1.06.08.82,0,.88,0,.88-.47v-4.09H10.6a15,15,0,0,1,2.6,1.69l-1.29,1.23a13.86,13.86,0,0,0-2.52-1.8l1.15-1.1a11.61,11.61,0,0,0-1.5.08v-1.93a18.87,18.87,0,0,0,2.11.09h3.93a17.05,17.05,0,0,0,1.8-.06,15.34,15.34,0,0,0-.08,1.94ZM4.69,116.23h8.49V115H4.69Zm0,2.86h8.49v-1.33H4.69Z"/><path class="cls-1" d="M0,133.23a17.53,17.53,0,0,0,.68-4.93l1.41.28a21.32,21.32,0,0,1-.66,5.18Zm17.6-4.3a12.07,12.07,0,0,0-1.48-.08c-.06.43-.14,1-.22,1.82a2.76,2.76,0,0,0,0,.37c-.47,0-.78,0-1.87,0H7.63a12.91,12.91,0,0,0-1.49,0l.08.28-1.15.54a15.44,15.44,0,0,0-.73-2.72V140a15.1,15.1,0,0,0,.12,2.09H2.29a19.88,19.88,0,0,0,.12-2.36v-13a14.41,14.41,0,0,0-.12-2H4.46a12,12,0,0,0-.12,2v2.17l1-.41a18.05,18.05,0,0,1,.76,2.29,12.36,12.36,0,0,0,.41-1.92,7.27,7.27,0,0,0-.86.06v-1.6l1.1.07a15.86,15.86,0,0,0,.16-2,1.06,1.06,0,0,0,0-.24c.56,0,1,.06,1.72.06h6.26c.92,0,1.27,0,1.8-.06a8.28,8.28,0,0,0-.18,1.24c0,.27-.06.39-.12,1a12.36,12.36,0,0,0,1.29-.07Zm-10,10.17c-.61,0-1.06,0-1.59,0,0-.67.06-1.21.06-1.84v-4.09a10.48,10.48,0,0,0-.06-1.56c.61,0,.67,0,1.57,0h7.08c.86,0,1.17,0,1.6,0a12,12,0,0,0-.07,1.66v3.95a16.9,16.9,0,0,0,.07,1.88c-.52,0-1,0-1.56,0H13.32a11.21,11.21,0,0,0,4.5,1.41,6.51,6.51,0,0,0-1,1.7,14,14,0,0,1-5.12-2.05l1.33-1.06H9l1.35,1a13.65,13.65,0,0,1-4.76,2.15,6.22,6.22,0,0,0-1.09-1.62,8.94,8.94,0,0,0,4.13-1.51ZM8,133.74h6.3V133H8Zm0,1.94h6.3V135H8Zm0,2h6.3v-.74H8Zm.14-8h1.95c.1-.41.12-.53.18-.86h-2Zm2.36-2.31a6.85,6.85,0,0,0,.08-.76h-2c0,.33,0,.45-.08.76Zm1.55,1.45c-.1.49-.1.49-.18.86h2.25c.08-.39.1-.49.16-.86Zm2.5-2.21H12.4a7.31,7.31,0,0,1-.12.76h2.21Z"/><path class="cls-1" d="M17.94,148.24a3.31,3.31,0,1,1-3.31-3.31A3.32,3.32,0,0,1,17.94,148.24Zm-5.09,0a1.78,1.78,0,1,0,1.78-1.78A1.79,1.79,0,0,0,12.85,148.24Z"/><path class="cls-1" d="M58.35,12.22A24.72,24.72,0,0,1,57.59,18L56,17.13A16.48,16.48,0,0,0,56.72,12ZM56,9.47a5.64,5.64,0,0,0,.76,0h.69l1-1.36A25.06,25.06,0,0,0,56,5.3l.92-1.62.7.76A12.14,12.14,0,0,0,59,1.37l1.82.7a5,5,0,0,0-.39.71,31.37,31.37,0,0,1-1.66,2.91c.29.37.39.49.72.88a15.18,15.18,0,0,0,1.68-3.11l1.69.9A10.5,10.5,0,0,0,62,5.79c-.61,1-1.72,2.6-2.51,3.62,1.06-.06,1.45-.08,1.92-.14a10.59,10.59,0,0,0-.53-1.45l1.27-.45a19.61,19.61,0,0,1,1.06,3.13v-.45a10.46,10.46,0,0,0-.06-1.35,14.1,14.1,0,0,0,1.7.06H71.3a13.47,13.47,0,0,0,1.8-.08A12,12,0,0,0,73,10v1.12a7.84,7.84,0,0,0,.08,1.33h-2V10.4H64.94v2.06H63.12a9.14,9.14,0,0,0,.06-1.21L62,11.66c-.06-.38-.1-.51-.16-.79-.43.06-.66.08-1.11.12v6a10.29,10.29,0,0,0,.11,2h-2a10.88,10.88,0,0,0,.12-2V11.15q-1.38.09-1.47.12a7.19,7.19,0,0,0-1.19.11Zm6.51,2.42A34.81,34.81,0,0,1,63.16,16l-1.53.45a23,23,0,0,0-.5-4.21Zm4.91-.61a7.49,7.49,0,0,0-.09,1.35,6.74,6.74,0,0,1-1.28,3.94,7,7,0,0,1-3,2.21,4,4,0,0,0-1.29-1.72,5.62,5.62,0,0,0,2.76-1.61,5,5,0,0,0,.94-3.28,6.23,6.23,0,0,0-.06-.89ZM65.08,4.75a13.43,13.43,0,0,0-2.06.1V3a14.19,14.19,0,0,0,2.1.12h1.76V2.89a7.28,7.28,0,0,0-.1-1.41h2.13a5.86,5.86,0,0,0-.12,1.43v.16h2.29A14.07,14.07,0,0,0,73.16,3v1.9a12.85,12.85,0,0,0-2-.1H68.79V6.08h1.92A12.51,12.51,0,0,0,72.63,6V7.82a11.76,11.76,0,0,0-1.9-.1H65.25a12,12,0,0,0-1.91.1V6a12.42,12.42,0,0,0,1.93.1h1.61V4.75Zm5.2,6.53a6.43,6.43,0,0,0-.1,1.33v3.68c0,.3.12.37.57.37a1.06,1.06,0,0,0,.7-.17A5.56,5.56,0,0,0,71.77,14a5.71,5.71,0,0,0,1.8.67,10.16,10.16,0,0,1-.47,2.81c-.36.73-1,1-2.49,1-1.84,0-2.31-.31-2.31-1.54V12.61a7,7,0,0,0-.09-1.33Z"/><path class="cls-1" d="M58.64,23.32V23a8.45,8.45,0,0,1,2.37.65.24.24,0,0,1,.17.27.61.61,0,0,1-.11.31,6.48,6.48,0,0,0-.53,1.84A26.26,26.26,0,0,0,60,31.73a20.48,20.48,0,0,0,.16,2.74l1-2.1a2.72,2.72,0,0,0,.51,1c.16.2.18.25.18.41s0,.16-.37,1a11.34,11.34,0,0,0-.86,2.64c-.06.31-.12.41-.22.45a4.36,4.36,0,0,1-1.21.17c-.27,0-.37,0-.43-.23a22.3,22.3,0,0,1-.86-6,47.7,47.7,0,0,1,.57-6.46,14.56,14.56,0,0,0,.17-1.8Zm6.67,5.53c-1.09,0-1.41,0-1.5-.17A4.32,4.32,0,0,1,63.55,27v-.29A21.29,21.29,0,0,0,66,26.8c.76,0,1.19,0,2-.08a14.33,14.33,0,0,0-.41-3.87h.53A10.77,10.77,0,0,1,70,23a.32.32,0,0,1,.29.32,1.13,1.13,0,0,1-.06.29,3.76,3.76,0,0,0-.16,1.21c0,.3,0,1.21,0,1.45v.19a11.85,11.85,0,0,0,2.27-.52,1,1,0,0,1,.24,0c.12,0,.17.06.21.17A6.45,6.45,0,0,1,73,27.48c0,.32-.06.45-.22.51a19.92,19.92,0,0,1-2.6.49c0,.55,0,.84,0,1.15a14.4,14.4,0,0,1-1.13,6.48c-.71,1.39-2.23,3-2.86,3-.17,0-.25,0-.47-.23a4.52,4.52,0,0,0-1.52-1,6.68,6.68,0,0,0,2.85-2.7,9.92,9.92,0,0,0,1-4.64c0-.13,0-.47,0-.94,0-.19,0-.48,0-.88C67.29,28.77,65.7,28.85,65.31,28.85Z"/><path class="cls-1" d="M67.17,49.92c2.68,0,4.42,1.58,4.42,4s-1.47,3.93-4.4,4.87a16,16,0,0,1-3.58.65c-.41,0-.51-.1-.78-.67a2.65,2.65,0,0,0-1-1.13c4.91-.39,7.34-1.65,7.34-3.78,0-1.19-.85-1.9-2.25-1.9a7.2,7.2,0,0,0-5.13,2.55,4.47,4.47,0,0,0-.7.9c-.18.29-.3.39-.47.39a3.35,3.35,0,0,1-1.45-.65.65.65,0,0,1-.31-.62,3.8,3.8,0,0,1,.06-.63,4.1,4.1,0,0,1,0-.41c.09-1.25.15-1.78.39-3.54,0-.22,0-.22.17-1.14,0,0,.06-.43.16-1.15a4.83,4.83,0,0,0,0-.65,7.87,7.87,0,0,1,2.19.57q.24.12.21.3a.58.58,0,0,1-.09.25,3.07,3.07,0,0,0-.45,1.25A26.92,26.92,0,0,0,61,52.48,8.27,8.27,0,0,1,67.17,49.92Zm-.35-5.58c.76.45,1,.67,1,.88a4.24,4.24,0,0,1-.65,1.26c-.31.45-.43.54-.59.54s-.15,0-.39-.21a12.36,12.36,0,0,0-3.81-2.07c-.3-.12-.35-.16-.35-.32a2.28,2.28,0,0,1,.5-1c.32-.47.45-.59.67-.59A13.71,13.71,0,0,1,66.82,44.34Z"/><path class="cls-1" d="M60,69.07a17.75,17.75,0,0,0-2.27.59.83.83,0,0,1-.35.08c-.18,0-.27-.1-.39-.43a9.73,9.73,0,0,1-.35-1.8l.6,0A14.15,14.15,0,0,0,60,67.21l0-1.17c0-.28,0-.47,0-.53a12.1,12.1,0,0,0-.1-1.88,10.57,10.57,0,0,1,2.31.28c.25.06.37.17.37.35a.8.8,0,0,1-.12.35,6.68,6.68,0,0,0-.33,2.23c.43.29.8.7.8.9s-.06.22-.23.43a6.33,6.33,0,0,0-.76,1c0,.51,0,.51,0,.64a20.78,20.78,0,0,1,1.74-1.42A14.15,14.15,0,0,1,65.86,67a3.8,3.8,0,0,1,2-.55,2.33,2.33,0,0,1,2.2,1.13,3.5,3.5,0,0,1,.33,1.69c0,.66,0,1.29-.16,2.72-.16,1.68-.23,2.93-.23,3.69s.17,1,.72,1a3.86,3.86,0,0,0,2.58-1.53,4.72,4.72,0,0,0,.34,1.78,1.19,1.19,0,0,1,.07.34c0,.21-.09.39-.43.64a5,5,0,0,1-3,1.06c-1.72,0-2.5-.9-2.5-2.88,0-.9,0-2,.25-4.79.06-.64.08-1.19.08-1.47,0-.8-.28-1.17-.86-1.17s-1.74.63-3.29,1.82a15.86,15.86,0,0,0-2.05,1.84v.9c0,1.46.1,4.85.17,6v.24a.53.53,0,0,1,0,.27,3.33,3.33,0,0,1-1.57.2c-.57,0-.68-.08-.68-.41,0-.12,0-.32,0-.53v-.45c0-.69,0-.69.09-4.4a20.58,20.58,0,0,0-1.78,2.52c-.17.27-.29.37-.45.37s-.51-.31-1.11-1c-.37-.43-.51-.6-.51-.72s0-.18.18-.31c1.23-1.28,2.26-2.49,3.73-4.33Z"/><path class="cls-1" d="M66.78,90.57a4.44,4.44,0,0,1,4.71,4.54,5.13,5.13,0,0,1-2.56,4.42,7.82,7.82,0,0,1-4,1c-2.48,0-3.93-1-3.93-2.7,0-1.55,1.29-2.65,3.13-2.65a3.86,3.86,0,0,1,3.66,2.57,2.94,2.94,0,0,0,1.41-2.55c0-1.68-1.2-2.77-3.08-2.77a8.31,8.31,0,0,0-5.67,2.66,12.73,12.73,0,0,0-1,1.09c-.13.2-.23.28-.35.28a4.09,4.09,0,0,1-1.74-1.73c0-.17.08-.27.51-.58s1.09-.92,1.92-1.7a59.41,59.41,0,0,0,5.34-5.81,31.63,31.63,0,0,0-4.7.8l-.21,0c-.16,0-.26-.1-.38-.39a7,7,0,0,1-.41-2.1,8.19,8.19,0,0,0,1.33.1c.94,0,2.53-.14,4.58-.37a4.86,4.86,0,0,0,1.51-.35.83.83,0,0,1,.39-.1c.27,0,.55.23,1,1,.38.51.49.76.49.92s-.06.33-.49.6a5.58,5.58,0,0,0-1,.82c-1,.94-1,.94-2.21,2.18-.86.88-1,1-1.74,1.76A6.62,6.62,0,0,1,66.78,90.57ZM64.9,97.34a1.73,1.73,0,0,0-1-.3c-.6,0-1,.3-1,.77s.6.92,1.54.92a4.35,4.35,0,0,0,1.29-.18A2,2,0,0,0,64.9,97.34Z"/><rect class="cls-1" x="28.25" width="2.28" height="153.23"/><rect class="cls-1" x="84.37" width="2.28" height="101.67"/></g></g></svg>