<svg xmlns="http://www.w3.org/2000/svg" viewBox="0 0 192.59 66.21"><defs><style>.cls-1{fill:#222;}</style></defs><g id="レイヤー_2" data-name="レイヤー 2"><g id="レイヤー_1-2" data-name="レイヤー 1"><path class="cls-1" d="M7.94,2.25A9,9,0,0,0,7.76,0H11a12.54,12.54,0,0,0-.18,2.28v.43h2.28A17.56,17.56,0,0,0,16,2.56v3a26.2,26.2,0,0,0-2.89-.15H10.8V7.21h1.67a21.36,21.36,0,0,0,2.8-.09,18.11,18.11,0,0,0-.09,2.74v5A24.61,24.61,0,0,0,15.27,18c-.82-.06-1.4-.09-2.8-.09H10.8v1.83h1.83a15.87,15.87,0,0,0,2.82-.16v3.11a23.47,23.47,0,0,0-2.79-.12H10.8v1.46a16,16,0,0,0,.18,3H7.73a15.4,15.4,0,0,0,.18-3V22.61H5.26a20.32,20.32,0,0,0-2.95.15V19.62a16.07,16.07,0,0,0,2.89.16H7.91V18H6.36C5.05,18,4.5,18,3.53,18a28.72,28.72,0,0,0,.12-3.1v-5a24.54,24.54,0,0,0-.12-2.8c.76.06,1.34.09,2.83.09H7.94V5.42H5.48a17.89,17.89,0,0,0-2.93.15v-3a17.66,17.66,0,0,0,2.93.15H7.94ZM6.51,11.44h5.87V9.83H6.51Zm0,4.05h5.87V13.84H6.51Zm13.42,2a18.49,18.49,0,0,1-.73,4.48,13.09,13.09,0,0,1-2.59,5.14,17.92,17.92,0,0,0-2.59-2,10.87,10.87,0,0,0,2.8-6.51c.4-2.74.52-5.72.52-12.66A44.66,44.66,0,0,0,17.19.85,31.23,31.23,0,0,0,20.41,1h4.48A27.86,27.86,0,0,0,28.05.85a27.68,27.68,0,0,0-.12,3.29V23.21c0,1.56-.27,2.32-1.1,2.83a5.26,5.26,0,0,1-2.92.58c-.45,0-.73,0-2.4-.06a10.93,10.93,0,0,0-.76-3.22,17.91,17.91,0,0,0,3,.3c1,0,1.13-.12,1.13-.94V17.46Zm4.93-2.76V10.62H20.29c0,.36,0,.7,0,.91s0,1.34-.12,3.17Zm0-6.88v-4H20.32v4Z"/><path class="cls-1" d="M44.18,18.13a.8.8,0,0,1,.12.43c0,.21,0,.24-.3.91a33.38,33.38,0,0,0-1.71,5.23c-.09.34-.18.52-.3.58a9.19,9.19,0,0,1-1.52.22h-.13c-.15,0-.36,0-.6,0-.4,0-.49-.1-.61-.46a40.09,40.09,0,0,1-1-9.13,46.71,46.71,0,0,1,1.07-10c.3-1.64.45-2.55.58-3.56a14.17,14.17,0,0,1,3.28,1c.52.21.67.36.67.67s0,.3-.36.79c-1,1.61-2.13,8.06-2.13,12.41,0,.7,0,1.64.12,3.16.85-1.91,1.15-2.49,1.85-4A9.41,9.41,0,0,0,44.18,18.13Zm6.6,2.16A8.52,8.52,0,0,0,55,21a15.41,15.41,0,0,0,5-.7,1.51,1.51,0,0,1,.42-.09c.22,0,.37.12.4.43A24.74,24.74,0,0,1,61,23.49c0,.3-.09.39-.51.52a21,21,0,0,1-5.36.63c-2.8,0-4.53-.33-6-1.18s-2.74-2.5-2.74-3.32c0-.42.64-1,2.28-2A4.27,4.27,0,0,0,50.78,20.29ZM48.65,4.78a27.24,27.24,0,0,0,4.11.27,33.56,33.56,0,0,0,5.9-.49.93.93,0,0,1,.27,0c.22,0,.31.09.37.34a21.59,21.59,0,0,1,.15,2.46c0,.46-.09.61-.42.67a31.61,31.61,0,0,1-5.51.4,24.45,24.45,0,0,1-5.26-.34C48.1,8,48,7.76,48,7.21a17.16,17.16,0,0,1,.15-2.28c0-.12.13-.18.31-.18A.33.33,0,0,1,48.65,4.78Z"/><path class="cls-1" d="M75.8,8.4a17.42,17.42,0,0,1,4.72-.7c4.32,0,6.82,2.55,6.82,6.93a11.05,11.05,0,0,1-5,9.31c-1.77,1.31-4.45,2.62-5.33,2.62-.39,0-.48-.09-1.12-1a6,6,0,0,0-1.68-1.68c3.5-1.18,5-1.94,6.54-3.31a7.54,7.54,0,0,0,2.74-5.87c0-2.47-1.15-3.87-3.19-3.87a16.06,16.06,0,0,0-6.54,2,5.93,5.93,0,0,0-1.13.7.85.85,0,0,1-.36.12c-.58,0-1.56-1.7-2.23-4A34.9,34.9,0,0,0,75.8,8.4Zm2-7.43a27.8,27.8,0,0,0,4.23.83c.61.06.82.09,2.38.15.45,0,.57.12.57.45a10.75,10.75,0,0,1-.39,3c-.06.18-.22.24-.43.24A36,36,0,0,1,79.61,5a20.22,20.22,0,0,1-4.93-1.43.49.49,0,0,1-.15-.34A14.37,14.37,0,0,1,75.47.73c.15-.24.24-.3.43-.3A9.91,9.91,0,0,1,77.84,1Z"/><path class="cls-1" d="M103.73,9.28a27.62,27.62,0,0,0-3.53.91,1.41,1.41,0,0,1-.55.12c-.27,0-.43-.15-.61-.67a17.15,17.15,0,0,1-.55-2.79c.46,0,.67.06,1,.06a23.37,23.37,0,0,0,4.32-.52l.06-1.83c0-.42,0-.73,0-.82A19.38,19.38,0,0,0,103.7.82a16.33,16.33,0,0,1,3.59.43c.39.09.58.27.58.55a1.38,1.38,0,0,1-.19.54c-.27.58-.3,1-.51,3.47.66.46,1.24,1.1,1.24,1.4s-.09.34-.36.67a10.09,10.09,0,0,0-1.19,1.55c-.06.79-.06.79-.06,1a34.79,34.79,0,0,1,2.71-2.23,23.09,23.09,0,0,1,3.35-2.16A6,6,0,0,1,116,5.2,3.6,3.6,0,0,1,119.37,7a5.39,5.39,0,0,1,.51,2.61c0,1-.06,2-.24,4.23-.24,2.62-.37,4.57-.37,5.75s.28,1.55,1.13,1.55a6,6,0,0,0,4-2.37,7.65,7.65,0,0,0,.51,2.77,1.37,1.37,0,0,1,.13.52c0,.33-.16.61-.67,1a7.79,7.79,0,0,1-4.66,1.64c-2.68,0-3.89-1.39-3.89-4.47,0-1.4.09-3.19.39-7.45.09-1,.12-1.86.12-2.28,0-1.25-.42-1.83-1.33-1.83s-2.71,1-5.12,2.83a24.34,24.34,0,0,0-3.19,2.86v1.4c0,2.28.15,7.55.27,9.4v.37a.66.66,0,0,1-.09.42,5.2,5.2,0,0,1-2.43.31c-.88,0-1.07-.13-1.07-.64,0-.19,0-.49,0-.82v-.7c0-1.07,0-1.07.16-6.85a30.06,30.06,0,0,0-2.77,3.93c-.28.42-.46.57-.7.57s-.79-.48-1.74-1.52c-.58-.67-.79-.94-.79-1.12s.06-.28.28-.49a88.51,88.51,0,0,0,5.81-6.72Z"/><path class="cls-1" d="M139.49,1.43c.76.21,1,.37,1,.7a1.92,1.92,0,0,1-.18.73,17.26,17.26,0,0,0-.7,4.56c-.24,4.9-.37,8.71-.37,11.72a7.8,7.8,0,0,0,.25,2.19c.33,1,1.4,1.52,3.1,1.52a11.15,11.15,0,0,0,7.7-3.35A18.15,18.15,0,0,0,153.15,16a10.38,10.38,0,0,0,1.09,3,1.71,1.71,0,0,1,.16.7c0,.55-.58,1.28-2.1,2.65a14.62,14.62,0,0,1-9.86,4.11,7,7,0,0,1-5.11-1.67c-1.16-1.22-1.61-2.8-1.61-5.82,0-2.37,0-4.19.27-11.28,0-1.07.06-1.71.06-2A29.32,29.32,0,0,0,135.84,1,17.52,17.52,0,0,1,139.49,1.43Z"/><path class="cls-1" d="M163.78,6.51c0-.88,0-2.07-.09-2.74a13.86,13.86,0,0,1,3.25.67c.73.28,1,.46,1,.79a.92.92,0,0,1-.12.49c-.39,1-.51,2.19-.51,5,0,3.89.24,6.33.85,8.18.45,1.43,1.15,2.25,2,2.25,1.25,0,2.29-1.46,3.41-4.83a8.93,8.93,0,0,0,1.65,3.1,1.13,1.13,0,0,1,.24.64,5.69,5.69,0,0,1-1.07,2.4A5.33,5.33,0,0,1,170,25.1c-2.34,0-4.1-1.89-5.2-5.63a35.68,35.68,0,0,1-1-9.76Zm18.1.49c.18,0,.33.09.58.3a20.18,20.18,0,0,1,4.1,6.27A18.7,18.7,0,0,1,187.87,18c0,.31-.15.46-.79.79a9.5,9.5,0,0,1-2.49.85c-.28,0-.4-.15-.49-.7a21.09,21.09,0,0,0-1.89-6c-.85-1.76-.91-1.86-3-4.41A7.55,7.55,0,0,1,181.88,7Z"/><path class="cls-1" d="M11.38,60.92a32.93,32.93,0,0,0,8-1.06.69.69,0,0,1,.34-.07c.18,0,.27.13.33.4a21.36,21.36,0,0,1,.15,2.65c0,.61-.06.79-.33.91-.92.49-5,.94-8.55.94-4.6,0-7.21-.76-9.31-2.74A6.78,6.78,0,0,1,0,58.7c0-.46.27-.64,2.77-2.07C3.86,59.64,6.39,60.92,11.38,60.92Zm.27-17.49a27.75,27.75,0,0,0,4.87-.37h.21a.35.35,0,0,1,.4.27,18.58,18.58,0,0,1,.12,2.38c0,.7-.06.94-.24,1.06a27.73,27.73,0,0,1-4.93.34,38.22,38.22,0,0,1-7.49-.7c-1.73-.34-1.82-.43-1.82-1.49,0-.7.06-1.86.15-2.71A29.33,29.33,0,0,0,11.65,43.43Z"/><path class="cls-1" d="M31.45,50.09h-.19a1.62,1.62,0,0,1-.33,0c-.27,0-.43-.12-.52-.52a15.88,15.88,0,0,1-.36-2.86c.42,0,.76,0,1,0a42.34,42.34,0,0,0,5.17-.33,32.15,32.15,0,0,0,.46-4.81v-.7c3.53.49,4.2.67,4.17,1.22,0,.15-.06.24-.19.52-.36.7-.39.79-.88,3.19A27.63,27.63,0,0,0,43.07,45a.4.4,0,0,1,.24-.06c.28,0,.34.12.58,1.18a14.08,14.08,0,0,1,.24,1.71c0,.21-.09.33-.36.39a32.06,32.06,0,0,1-4.72.92,86.58,86.58,0,0,1-5.2,16.21c-.15.4-.3.55-.49.55a7.9,7.9,0,0,1-2.49-1c-.52-.28-.67-.4-.67-.58a1.91,1.91,0,0,1,.24-.64,57.53,57.53,0,0,0,5.14-14C34.25,49.85,33.3,49.94,31.45,50.09Zm13,11.56a7.18,7.18,0,0,0,4,.85A17.89,17.89,0,0,0,53.05,62a1.47,1.47,0,0,1,.42-.1.44.44,0,0,1,.49.37,11,11,0,0,1,.37,2.83c0,.39-.13.55-.52.64a25.11,25.11,0,0,1-4.5.33c-3.81,0-5.94-.61-7.34-2.07a5.16,5.16,0,0,1-1.18-2,4.17,4.17,0,0,1-.31-1.16c0-.52.92-1.06,2.5-1.58A3.34,3.34,0,0,0,44.44,61.65ZM53,52.8a25.17,25.17,0,0,0-3-.16,28.41,28.41,0,0,0-5.88.55.51.51,0,0,1-.21,0,.3.3,0,0,1-.33-.24,14,14,0,0,1-.22-2.34c0-.4.06-.58.31-.67a5.17,5.17,0,0,1,.94-.22,32.52,32.52,0,0,1,5.93-.51,9,9,0,0,1,2.89.21c.16.12.19.37.19,1.37a9.11,9.11,0,0,1-.13,1.86.3.3,0,0,1-.3.15A.75.75,0,0,1,53,52.8ZM49.64,42.09a11.28,11.28,0,0,1,3,3.34,1.12,1.12,0,0,1-.45.58c-.13.09-.31.25-.52.43a1.87,1.87,0,0,1-.67.42l-.15.06c-.12,0-.12,0-.7-.91a15.62,15.62,0,0,0-2-2.46.61.61,0,0,1-.15-.22l.09-.18a7.81,7.81,0,0,1,.79-.7,3.36,3.36,0,0,0,.52-.3c0-.06.06-.06.09-.06h.18Zm5.14,2.13a2.32,2.32,0,0,1-.88.48c-.12,0-.18-.06-.33-.3a14,14,0,0,0-2.32-2.89.31.31,0,0,1-.12-.24c0-.28,1.16-1.13,1.55-1.13.22,0,.58.3,1.25,1a6.65,6.65,0,0,1,1.67,2.23C55.6,43.55,55.39,43.76,54.78,44.22Z"/><path class="cls-1" d="M68.55,61.65c0-3.32,0-3.32,0-4.75a24.11,24.11,0,0,0-3.07,4c-.15.3-.37.49-.55.49s-1-.64-2-1.74c-.39-.48-.57-.76-.57-.88s0-.21,1.55-1.73a55.68,55.68,0,0,0,4.71-5.57c0-.18,0-.88,0-2.1a21.11,21.11,0,0,0-3.92,1.06c-.31.16-.37.19-.52.19-.52,0-.94-1.19-1.34-3.56a43.28,43.28,0,0,0,5.85-.61c0-1.1,0-2.65,0-3.5a11.66,11.66,0,0,0-.19-2.25,20.43,20.43,0,0,1,3.71.45c.46.13.64.31.64.64a1.79,1.79,0,0,1-.18.61c-.3.61-.33.82-.58,3.23.73.45,1.43,1.21,1.43,1.61s0,.27-.94,1.43c-.09.12-.37.52-.82,1.09,0,1,0,1,0,1.19,3-2.52,5.5-3.59,8.49-3.59,4.74,0,7.72,3,7.72,7.85,0,3.71-1.7,6.48-5.2,8.37a14.25,14.25,0,0,1-4.29,1.58.63.63,0,0,1-.48-.18c-.07,0-.07,0-.46-.61a7.26,7.26,0,0,0-1.71-1.74c6.06-1.64,8.46-3.77,8.46-7.51,0-2.92-1.73-4.81-4.47-4.81a9.53,9.53,0,0,0-5.39,1.86,20.36,20.36,0,0,0-2.7,2.1,3.53,3.53,0,0,1,0,.64c0,3.25,0,3.53.18,9.91,0,.34,0,.58,0,.64,0,.58-.43.7-2.65.7-.79,0-.85-.09-.85-.94Z"/><path class="cls-1" d="M102.9,51.37l1.49-2.5a4.31,4.31,0,0,0,.73,1.34,1.44,1.44,0,0,1,.3.7c0,.18-.06.34-.79,1.52-.51.91-1.4,2.8-1.76,3.71s-.43.92-1.43.92a3.52,3.52,0,0,1-1.92-.31,15.41,15.41,0,0,1-.3-4.14,62.32,62.32,0,0,1,1-10.37,8.89,8.89,0,0,0,.12-1.58c2.38.42,3.93,1.12,3.93,1.7,0,.15,0,.24-.25.52a7.88,7.88,0,0,0-.94,3,42.78,42.78,0,0,0-.64,6.33Zm11-8.89V43c0,.12,0,.37.06.7,0,.49,0,.49.09,1.25,0,.33,0,.33.06,1.46.1,1.46.16,2.92.16,3.65,0,5.72-1.49,10.16-4.66,13.9-1.22,1.43-2.28,2.25-2.89,2.25-.36,0-.39,0-1-.48a6.34,6.34,0,0,0-2.16-1.07,16.26,16.26,0,0,0,4.41-4.2,16.61,16.61,0,0,0,2.8-9.85c0-4.17-.28-6.73-1-8.58a24.45,24.45,0,0,1,3.11-.22c.91,0,1,.06,1,.58Z"/><path class="cls-1" d="M148.29,65h-3.65V56.27c0-2.71.06-6.15.15-11.35h-.42c-.49,2.28-1.52,7-1.83,8.24L139.68,65h-4.35l-3-12.29c-.55-2.2-.94-4-1.7-7.79h-.46c.15,8,.18,10.22.18,11.35V65h-3.62V41.3h6.09l3.4,14.51c.34,1.4.76,3.68,1,5.57h.42c.19-1,.19-1,.46-2.65.15-.85.52-2.59.64-3.16l3.28-14.27h6.21Z"/><path class="cls-1" d="M163.9,65h-4V41.3h4Z"/><path class="cls-1" d="M178.38,65h-4.56l6.93-12.11-6.6-11.59h4.47l4.54,8.58,4.44-8.58h4.53l-6.54,11.56,7,12.14h-4.66l-4.8-9Z"/></g></g></svg>