<svg xmlns="http://www.w3.org/2000/svg" viewBox="0 0 88.99 14.76"><defs><style>.cls-1{fill:none;}</style></defs><g id="レイヤー_2" data-name="レイヤー 2"><g id="レイヤー_1-2" data-name="レイヤー 1"><path d="M20.81,2.21c1.25,0,2.19,0,4-.06A5,5,0,0,0,25.94,2a.78.78,0,0,1,.25,0c.29,0,.56.22,1,.81a1.93,1.93,0,0,1,.53,1,.42.42,0,0,1-.24.37,1.74,1.74,0,0,0-.59.6,15.65,15.65,0,0,1-2.15,2.34c-.39.36-.53.45-.68.45a.29.29,0,0,1-.25-.12,3.71,3.71,0,0,0-1.23-1,8.74,8.74,0,0,0,2.84-2.76c-7.71.06-7.71.06-8.6.21a.69.69,0,0,1-.19,0c-.23,0-.36-.13-.44-.43A8,8,0,0,1,16,2,33.82,33.82,0,0,0,20.81,2.21ZM22,5.07c.3.08.42.17.42.32s0,.06-.09.25a5.41,5.41,0,0,0-.23,1,9.91,9.91,0,0,1-1.54,4.48A7.31,7.31,0,0,1,18.1,13.3a.64.64,0,0,1-.28.09.38.38,0,0,1-.33-.18,4.21,4.21,0,0,0-1.17-.93,7.55,7.55,0,0,0,1.86-1.15,6.9,6.9,0,0,0,2.15-5.49,6.88,6.88,0,0,0,0-.82A8.41,8.41,0,0,1,22,5.07Z"/><path d="M34.43,4.47a14.62,14.62,0,0,0-.18-3l.85,0a10.23,10.23,0,0,1,1.1.17.2.2,0,0,1,.15.19,1.18,1.18,0,0,1-.09.39,9.59,9.59,0,0,0-.12,2.22h3.34a17.91,17.91,0,0,0-.16-3.11A13.79,13.79,0,0,1,41,1.52c.31,0,.4.1.4.24a1,1,0,0,1-.1.39A5,5,0,0,0,41.2,3.2V4.44c1.52,0,2.09,0,2.54-.09h.15a.2.2,0,0,1,.16.07,3.18,3.18,0,0,1,.08.93c0,.71,0,.78-.26.78l-.36,0c-.51,0-.63,0-2.34,0A8.5,8.5,0,0,1,40,10.69a6.92,6.92,0,0,1-2.64,2.44,3.85,3.85,0,0,1-1.1.44c-.13,0-.15,0-.46-.35a4,4,0,0,0-1-.79c2.15-.78,3.28-1.66,4-3.12A7.9,7.9,0,0,0,39.47,6h-1l-1.17,0-1.21,0c0,1.06,0,1.06,0,2.41v.19c0,.21,0,.29-.21.35a6,6,0,0,1-1,.09c-.53,0-.6,0-.6-.32V8.58c.06-1.37.07-1.61.09-2.47-.78,0-2.16.1-2.52.16a.15.15,0,0,1-.09,0,.22.22,0,0,1-.23-.2,10.38,10.38,0,0,1-.18-1.72,17.94,17.94,0,0,0,2.45.1Z"/><path d="M54.73,8.62c0,1.89,0,3.29.09,4.3V13c0,.16,0,.22-.19.24a10.26,10.26,0,0,1-1.32.07c-.47,0-.51,0-.51-.28V13c.06-.76.09-2.47.09-4.36v-2A24.45,24.45,0,0,1,50.5,8.05a6.74,6.74,0,0,1-1.79.8.41.41,0,0,1-.32-.17,5.38,5.38,0,0,0-1.26-1.09,21.06,21.06,0,0,0,4.35-2.07,19.94,19.94,0,0,0,4.34-3.63,4.08,4.08,0,0,0,.5-.7c.94.63,1.62,1.26,1.62,1.54,0,.09-.06.17-.24.24a4,4,0,0,0-1.08.81c-.66.59-1.3,1.11-1.89,1.55Z"/><path d="M66.53,6.47c2.74,0,4.31,0,5.83-.14h.19c.45,0,.45,0,.45,1.21,0,.62,0,.72-.3.72h-.06c-1,0-1.54,0-5.87,0-1.59,0-2.39,0-3.77.06h-.43a3.64,3.64,0,0,0-.84.06h-.16a.26.26,0,0,1-.3-.21,9.53,9.53,0,0,1-.15-1.82A52.32,52.32,0,0,0,66.53,6.47Z"/><rect class="cls-1" width="88.99" height="14.76"/></g></g></svg>