<svg xmlns="http://www.w3.org/2000/svg" viewBox="0 0 270.46 18.98"><g id="レイヤー_2" data-name="レイヤー 2"><g id="レイヤー_1-2" data-name="レイヤー 1"><path d="M4,1.58A6.53,6.53,0,0,0,3.82,0H6.08A8.27,8.27,0,0,0,6,1.6v.3h1.6a11.62,11.62,0,0,0,2-.11V3.9a19.5,19.5,0,0,0-2-.1H6V5.05H7.12a16,16,0,0,0,2-.06A11.45,11.45,0,0,0,9,6.91v3.52a15.54,15.54,0,0,0,.07,2.22c-.58,0-1-.07-2-.07H6v1.28H7.23a12.58,12.58,0,0,0,2-.1v2.17a17.21,17.21,0,0,0-2-.08H6v1A10.66,10.66,0,0,0,6.08,19H3.8a11.28,11.28,0,0,0,.12-2.11v-1H2.07A15,15,0,0,0,0,16V13.76a12.76,12.76,0,0,0,2,.1H3.92V12.58H2.84c-.92,0-1.3,0-2,.07a18.45,18.45,0,0,0,.09-2.18V7A15.64,15.64,0,0,0,.85,5c.54,0,.94.06,2,.06H4V3.8H2.22a13.13,13.13,0,0,0-2.05.1V1.79a11.6,11.6,0,0,0,2.05.11H4ZM2.94,8H7.06V6.89H2.94Zm0,2.84H7.06V9.7H2.94Zm9.41,1.38a12.92,12.92,0,0,1-.51,3.14A9.23,9.23,0,0,1,10,19,12.18,12.18,0,0,0,8.21,17.6a7.63,7.63,0,0,0,2-4.57,61.4,61.4,0,0,0,.37-8.87A29.35,29.35,0,0,0,10.43.6c.68.06,1.22.08,2.26.08h3.14A20.43,20.43,0,0,0,18,.6,20.33,20.33,0,0,0,18,2.9V16.27c0,1.09-.19,1.63-.77,2a3.72,3.72,0,0,1-2.05.4c-.32,0-.51,0-1.68,0a7.71,7.71,0,0,0-.53-2.26,12.13,12.13,0,0,0,2.09.21c.68,0,.78-.08.78-.66V12.24ZM15.8,10.3V7.44H12.61a5.43,5.43,0,0,0,0,.64c0,.2,0,.94-.08,2.22Zm0-4.82V2.71H12.63V5.48Z"/><path d="M29.21,12.71a.58.58,0,0,1,.09.3c0,.15,0,.17-.22.64a23.2,23.2,0,0,0-1.19,3.67c-.07.23-.13.36-.21.4a5.86,5.86,0,0,1-1.07.15h-.09l-.42,0c-.28,0-.34-.06-.43-.32a27.79,27.79,0,0,1-.73-6.4,32.42,32.42,0,0,1,.75-7c.22-1.15.32-1.79.41-2.5a10.3,10.3,0,0,1,2.3.68c.36.15.47.26.47.47s0,.22-.26.56c-.7,1.13-1.49,5.65-1.49,8.7,0,.49,0,1.15.09,2.22.59-1.34.81-1.75,1.3-2.79A6.56,6.56,0,0,0,29.21,12.71Zm4.63,1.52a6,6,0,0,0,2.92.49,10.93,10.93,0,0,0,3.5-.49.88.88,0,0,1,.3-.07c.15,0,.25.09.28.3a18.81,18.81,0,0,1,.19,2c0,.21-.07.27-.37.36a14.39,14.39,0,0,1-3.75.45,7.78,7.78,0,0,1-4.18-.84c-.94-.57-1.92-1.74-1.92-2.32,0-.3.45-.7,1.6-1.41A3,3,0,0,0,33.84,14.23ZM32.35,3.35a18.38,18.38,0,0,0,2.88.19,24.32,24.32,0,0,0,4.13-.34l.2,0c.14,0,.21.06.25.23a15.59,15.59,0,0,1,.11,1.73c0,.32-.07.43-.3.47a22.66,22.66,0,0,1-3.86.28,17.32,17.32,0,0,1-3.69-.24c-.11-.06-.15-.21-.15-.6A10.56,10.56,0,0,1,32,3.46c0-.09.08-.13.21-.13A.28.28,0,0,1,32.35,3.35Z"/><path d="M51.18,5.89a11.91,11.91,0,0,1,3.3-.49c3,0,4.78,1.79,4.78,4.86a7.76,7.76,0,0,1-3.47,6.53,10.4,10.4,0,0,1-3.74,1.83c-.27,0-.34-.06-.79-.7a4.23,4.23,0,0,0-1.17-1.18,12,12,0,0,0,4.59-2.32A5.29,5.29,0,0,0,56.6,10.3c0-1.73-.81-2.71-2.24-2.71A11.23,11.23,0,0,0,49.77,9a4.18,4.18,0,0,0-.79.49.63.63,0,0,1-.25.09c-.41,0-1.09-1.2-1.56-2.8A24.51,24.51,0,0,0,51.18,5.89ZM52.61.68a18.93,18.93,0,0,0,3,.58c.43,0,.58.06,1.67.11.32,0,.4.08.4.32a7.22,7.22,0,0,1-.28,2.06c0,.13-.15.17-.29.17a25.08,25.08,0,0,1-3.23-.44,13.65,13.65,0,0,1-3.45-1,.36.36,0,0,1-.11-.23A10.2,10.2,0,0,1,50.94.51c.11-.17.17-.21.3-.21A6.82,6.82,0,0,1,52.61.68Z"/><path d="M70.58,6.51a18.21,18.21,0,0,0-2.48.64,1,1,0,0,1-.38.08c-.19,0-.3-.11-.43-.47a10.81,10.81,0,0,1-.38-2c.32,0,.47,0,.66,0a15.69,15.69,0,0,0,3-.36l0-1.28c0-.3,0-.51,0-.58a12.69,12.69,0,0,0-.11-2,11.72,11.72,0,0,1,2.52.29c.28.07.41.2.41.39a.87.87,0,0,1-.13.38A7.08,7.08,0,0,0,73,4.07c.47.32.87.77.87,1s-.06.24-.26.47a7.7,7.7,0,0,0-.83,1.09c0,.56,0,.56,0,.71a22.75,22.75,0,0,1,1.9-1.56A16.25,16.25,0,0,1,77,4.24a4.24,4.24,0,0,1,2.18-.59,2.52,2.52,0,0,1,2.39,1.23,3.75,3.75,0,0,1,.36,1.84c0,.72,0,1.41-.17,3-.17,1.84-.25,3.2-.25,4s.19,1.09.78,1.09a4.22,4.22,0,0,0,2.82-1.66,5.19,5.19,0,0,0,.36,1.94,1,1,0,0,1,.09.36c0,.24-.11.43-.47.71A5.5,5.5,0,0,1,81.8,17.3c-1.88,0-2.74-1-2.74-3.14,0-1,.07-2.24.28-5.22.07-.71.09-1.3.09-1.6,0-.88-.3-1.28-.94-1.28s-1.9.68-3.58,2a16,16,0,0,0-2.24,2v1c0,1.6.1,5.29.19,6.59v.25a.42.42,0,0,1-.07.3,3.54,3.54,0,0,1-1.7.22c-.62,0-.75-.09-.75-.45,0-.13,0-.34,0-.58v-.49c0-.75,0-.75.11-4.8a21.53,21.53,0,0,0-1.94,2.75c-.19.3-.32.41-.49.41s-.56-.34-1.22-1.07c-.4-.47-.55-.66-.55-.79s0-.19.19-.34a61.58,61.58,0,0,0,4.07-4.71Z"/><path d="M95.47,1c.53.15.68.26.68.49A1.23,1.23,0,0,1,96,2a12.5,12.5,0,0,0-.49,3.2c-.17,3.44-.25,6.1-.25,8.22A5.27,5.27,0,0,0,95.45,15c.23.71,1,1.07,2.17,1.07a7.81,7.81,0,0,0,5.4-2.35,12.57,12.57,0,0,0,2-2.47,7.29,7.29,0,0,0,.76,2.09,1.17,1.17,0,0,1,.11.49c0,.38-.4.89-1.47,1.85a10.25,10.25,0,0,1-6.91,2.88A4.86,4.86,0,0,1,94,17.34c-.82-.85-1.13-2-1.13-4.07,0-1.67,0-2.95.19-7.92,0-.74,0-1.19,0-1.38A20,20,0,0,0,92.91.7,12.74,12.74,0,0,1,95.47,1Z"/><path d="M112.33,4.56c0-.61,0-1.45-.06-1.92a9.88,9.88,0,0,1,2.28.47c.51.2.68.32.68.56a.67.67,0,0,1-.08.34,9.57,9.57,0,0,0-.36,3.48,19.08,19.08,0,0,0,.59,5.73c.32,1,.81,1.58,1.39,1.58.87,0,1.6-1,2.39-3.39a6.25,6.25,0,0,0,1.15,2.18.76.76,0,0,1,.17.44,4,4,0,0,1-.75,1.69,3.74,3.74,0,0,1-3,1.88c-1.65,0-2.88-1.33-3.65-4a25.07,25.07,0,0,1-.73-6.85ZM125,4.91a.62.62,0,0,1,.41.21,14.18,14.18,0,0,1,2.88,4.39,13.16,13.16,0,0,1,.92,3.1c0,.21-.11.32-.56.55a6.59,6.59,0,0,1-1.75.6c-.19,0-.28-.11-.34-.49A14.94,14.94,0,0,0,125.26,9,11.54,11.54,0,0,0,123.17,6,5.24,5.24,0,0,1,125,4.91Z"/><path d="M143.92,14.76a23.12,23.12,0,0,0,5.61-.75.59.59,0,0,1,.24,0c.13,0,.19.09.23.28a13.61,13.61,0,0,1,.11,1.85c0,.43,0,.56-.23.64a21.52,21.52,0,0,1-6,.66c-3.22,0-5-.53-6.53-1.92A4.79,4.79,0,0,1,136,13.2c0-.32.19-.45,1.94-1.45C138.66,13.86,140.43,14.76,143.92,14.76Zm.2-12.26a20.22,20.22,0,0,0,3.41-.26h.15a.25.25,0,0,1,.28.19A13.74,13.74,0,0,1,148,4.1c0,.49,0,.66-.17.74a18.92,18.92,0,0,1-3.46.24,26.46,26.46,0,0,1-5.24-.49c-1.22-.24-1.28-.3-1.28-1,0-.49,0-1.3.1-1.9A20.46,20.46,0,0,0,144.12,2.5Z"/><path d="M157.83,7.17h-.13a1.22,1.22,0,0,1-.23,0c-.2,0-.3-.09-.37-.36a11.77,11.77,0,0,1-.25-2c.3,0,.53,0,.68,0a29.24,29.24,0,0,0,3.63-.23,23.58,23.58,0,0,0,.32-3.37V.75c2.47.34,2.94.47,2.92.85a.82.82,0,0,1-.13.36,6.49,6.49,0,0,0-.62,2.24A19.9,19.9,0,0,0,166,3.63a.24.24,0,0,1,.17,0c.19,0,.23.09.4.84a8.74,8.74,0,0,1,.17,1.19c0,.15-.06.23-.25.28a29.27,29.27,0,0,1-3.31.64,60,60,0,0,1-3.65,11.37c-.1.27-.21.38-.34.38a5.64,5.64,0,0,1-1.75-.7c-.36-.2-.47-.28-.47-.41a1.37,1.37,0,0,1,.18-.45,40.38,40.38,0,0,0,3.6-9.83C159.79,7,159.13,7.06,157.83,7.17Zm9.11,8.1a5,5,0,0,0,2.77.6,12.42,12.42,0,0,0,3.26-.34,1.06,1.06,0,0,1,.3-.07.31.31,0,0,1,.34.26,7.55,7.55,0,0,1,.26,2,.38.38,0,0,1-.36.45,17.26,17.26,0,0,1-3.16.24c-2.67,0-4.16-.43-5.14-1.45a3.76,3.76,0,0,1-.83-1.39,3,3,0,0,1-.22-.81c0-.36.64-.75,1.75-1.11A2.34,2.34,0,0,0,166.94,15.27Zm6-6.21a18.76,18.76,0,0,0-2.07-.1,19.59,19.59,0,0,0-4.12.38.34.34,0,0,1-.14,0,.21.21,0,0,1-.24-.17,10.21,10.21,0,0,1-.15-1.64c0-.28,0-.4.21-.47a4.45,4.45,0,0,1,.67-.15,23,23,0,0,1,4.16-.36,6.13,6.13,0,0,1,2,.15c.11.08.13.25.13,1a6.25,6.25,0,0,1-.09,1.3.21.21,0,0,1-.21.11A.38.38,0,0,1,172.93,9.06Zm-2.35-7.5a7.85,7.85,0,0,1,2.09,2.34.81.81,0,0,1-.32.41l-.36.3a1.25,1.25,0,0,1-.47.3l-.1,0c-.09,0-.09,0-.49-.64a11.52,11.52,0,0,0-1.41-1.73.4.4,0,0,1-.11-.15l.06-.13c.11-.12.47-.42.56-.49a1.89,1.89,0,0,0,.36-.21.06.06,0,0,1,.07,0h.12Zm3.61,1.49a1.67,1.67,0,0,1-.62.34c-.09,0-.13,0-.23-.21a10.09,10.09,0,0,0-1.63-2,.21.21,0,0,1-.08-.17c0-.19.81-.79,1.09-.79s.4.22.87.71a4.65,4.65,0,0,1,1.17,1.55C174.76,2.58,174.62,2.73,174.19,3.05Z"/><path d="M183.69,15.27c0-2.32,0-2.32,0-3.33a16.4,16.4,0,0,0-2.15,2.78c-.11.21-.26.34-.39.34s-.72-.45-1.41-1.22c-.27-.34-.4-.53-.4-.62s0-.15,1.09-1.21a41,41,0,0,0,3.3-3.9c0-.13,0-.62,0-1.48a15.81,15.81,0,0,0-2.75.75c-.21.11-.25.13-.36.13-.36,0-.66-.83-.94-2.5a30.44,30.44,0,0,0,4.1-.42c0-.77,0-1.86,0-2.46a7.78,7.78,0,0,0-.13-1.58,15.5,15.5,0,0,1,2.6.32c.32.09.45.22.45.45a1.14,1.14,0,0,1-.13.43c-.21.43-.23.57-.4,2.26.51.32,1,.85,1,1.13s0,.19-.66,1c-.07.09-.26.37-.58.77,0,.68,0,.68,0,.83a8.78,8.78,0,0,1,5.95-2.51c3.33,0,5.42,2.11,5.42,5.5a6.26,6.26,0,0,1-3.65,5.86,9.88,9.88,0,0,1-3,1.11.5.5,0,0,1-.35-.12s0,0-.32-.43a5,5,0,0,0-1.19-1.22c4.24-1.15,5.93-2.64,5.93-5.27a3.05,3.05,0,0,0-3.14-3.37,6.64,6.64,0,0,0-3.77,1.31,13.3,13.3,0,0,0-1.9,1.47,2.64,2.64,0,0,1,0,.45c0,2.28,0,2.47.13,7,0,.23,0,.4,0,.45,0,.4-.3.49-1.85.49-.56,0-.6-.07-.6-.66Z"/><path d="M207.58,8.06c.11-.17.11-.17,1-1.75a3,3,0,0,0,.51.94,1,1,0,0,1,.21.49c0,.13,0,.24-.55,1.07-.36.64-1,2-1.24,2.6s-.3.64-1,.64-1.26-.08-1.34-.21a10.44,10.44,0,0,1-.22-2.9,43.35,43.35,0,0,1,.71-7.28,6.51,6.51,0,0,0,.08-1.11c1.66.3,2.75.79,2.75,1.2,0,.11,0,.17-.17.36a5.41,5.41,0,0,0-.66,2.09,29,29,0,0,0-.45,4.44Zm7.75-6.23V2.2c0,.08,0,.25,0,.49s0,.34.06.87c0,.24,0,.24,0,1,.07,1,.11,2,.11,2.56a14.26,14.26,0,0,1-3.26,9.74c-.86,1-1.6,1.58-2,1.58-.25,0-.28,0-.72-.34a4.41,4.41,0,0,0-1.52-.75,11.25,11.25,0,0,0,3.09-2.94,11.64,11.64,0,0,0,2-6.91,17.48,17.48,0,0,0-.69-6,19.26,19.26,0,0,1,2.18-.14c.64,0,.73,0,.73.4Z"/><path d="M239.4,17.62h-2.56V11.5c0-1.9,0-4.31.11-8h-.3c-.34,1.6-1.06,4.91-1.28,5.78l-2,8.3h-3.05L228.23,9c-.39-1.53-.66-2.79-1.2-5.46h-.32c.11,5.61.13,7.17.13,8v6.12H224.3V1h4.27L231,11.18c.23,1,.53,2.58.72,3.9h.3c.13-.66.13-.66.32-1.86.11-.59.36-1.81.45-2.21l2.3-10h4.35Z"/><path d="M250.34,17.62h-2.81V1h2.81Z"/><path d="M260.5,17.62h-3.2l4.86-8.49L257.53,1h3.14l3.18,6L267,1h3.18l-4.59,8.11,4.91,8.51h-3.27l-3.37-6.34Z"/></g></g></svg>