<svg xmlns="http://www.w3.org/2000/svg" viewBox="0 0 251.15 45.4"><defs><style>.cls-1{fill:#222;}.cls-2{fill:none;}</style></defs><g id="レイヤー_2" data-name="レイヤー 2"><g id="レイヤー_1-2" data-name="レイヤー 1"><path class="cls-1" d="M34.76,4.76a38.92,38.92,0,0,0-7,.77l-.21,0a.35.35,0,0,1-.31-.24,7.85,7.85,0,0,1-.32-2.07h.46c.61,0,1.18,0,3-.13C31.79,3,33,3,34.72,2.93A12.21,12.21,0,0,0,34.51.08,9.92,9.92,0,0,1,37,.29c.12.05.17.15.17.34a.55.55,0,0,1,0,.21,5.66,5.66,0,0,0-.27,2c2.79-.08,3.21-.08,5.12-.08.52,0,.6,0,.65.06s.12.36.12,1c0,.88,0,1-.27,1h-.08c-.82-.08-2.86-.16-4.2-.16l-1.4,0,0,3.14a4.47,4.47,0,0,1,.39,2.08,6.48,6.48,0,0,1-2.74,5.59,5.62,5.62,0,0,1-2.08,1.07.54.54,0,0,1-.42-.21,5.21,5.21,0,0,0-1.63-1.3A8.82,8.82,0,0,0,32.75,14a7.34,7.34,0,0,0,1.41-1.16,5.19,5.19,0,0,0,.73-1.21,2.12,2.12,0,0,1-1.72.79c-1.61,0-2.66-1.23-2.66-3.08a3.08,3.08,0,0,1,3-3.37,2.89,2.89,0,0,1,1.28.25ZM32.44,9.24a1.2,1.2,0,0,0,1.15,1.35c.73,0,1.17-.51,1.17-1.39s-.42-1.42-1.15-1.42S32.44,8.38,32.44,9.24Z"/><path class="cls-1" d="M49.9,5.14c.81-.89,1.21-1.12,2-1.12s1.23.23,2,1.07a28.72,28.72,0,0,0,4,3.7,24.23,24.23,0,0,0,4,2.51c.44.23.5.29.5.42a5.8,5.8,0,0,1-.92,1.7c-.26.38-.34.46-.49.46a9.77,9.77,0,0,1-2.49-1.55,34.91,34.91,0,0,1-4.93-4.49C52.3,6.48,52.3,6.48,52,6.48s-.4,0-1.26,1.09c-.61.75-1.17,1.4-2.07,2.45a7.75,7.75,0,0,0-.8,1c-.13.23-.23.31-.36.31s-.56-.25-1.05-.77a4.15,4.15,0,0,1-.92-1.26A21.77,21.77,0,0,0,49.9,5.14Zm8,1.07a.21.21,0,0,1-.21-.15,8.61,8.61,0,0,0-1.59-1.81c-.1-.1-.12-.14-.12-.2s.23-.34.63-.63c.2-.15.23-.17.35-.17s.57.34,1.16,1,.83.9.83,1A2.26,2.26,0,0,1,57.94,6.21Zm2.88-2.37a2.17,2.17,0,0,1-1,.9c-.08,0-.15-.06-.23-.19A11.36,11.36,0,0,0,58,2.81c-.07-.06-.09-.1-.09-.13,0-.18.74-.77.95-.77A5.39,5.39,0,0,1,60.82,3.84Z"/><path class="cls-1" d="M69.28,5a8.52,8.52,0,0,0-1.35.42,1.64,1.64,0,0,1-.5.13c-.42,0-.8-.78-1.15-2.42a28.82,28.82,0,0,0,3.79-.45c2.29-.34,5.2-.78,6.73-1,1.72-.23,3.09-.46,3.82-.61a.8.8,0,0,1,.29,0c.25,0,.34.12.51.59a4.21,4.21,0,0,1,.27,1.25c0,.23-.08.3-.34.3a6.79,6.79,0,0,0-1.13.1,6.86,6.86,0,0,0-5.81,6.34c0,2.24,1.76,3.71,4.74,4,.27,0,.36.12.36.35a6.47,6.47,0,0,1-.36,1.81.5.5,0,0,1-.5.31,6.81,6.81,0,0,1-1.41-.29c-3.25-.95-5-3-5-5.95A6.88,6.88,0,0,1,73.8,5.56a7.8,7.8,0,0,1,2.08-1.81C73.37,4.17,70.74,4.67,69.28,5Z"/><path class="cls-1" d="M92.41,12.05a4.24,4.24,0,0,1-3.48,2.46c-2,0-3.4-1.95-3.4-4.66a7.72,7.72,0,0,1,4.15-7,9,9,0,0,1,4.47-1,6.62,6.62,0,0,1,7,6.62,7.27,7.27,0,0,1-4.81,7.11,4.56,4.56,0,0,1-1.38.42c-.23,0-.33-.07-.57-.44a4.07,4.07,0,0,0-1.21-1.2c3.94-1,5.72-2.87,5.72-6A4.46,4.46,0,0,0,97,4.63a4.91,4.91,0,0,0-2.25-.83C94.21,7.84,93.58,10,92.41,12.05ZM89.66,5.28a6,6,0,0,0-2,4.53c0,1.47.48,2.33,1.28,2.33,1,0,1.93-1.32,2.66-3.59a24.37,24.37,0,0,0,1-4.65A5.51,5.51,0,0,0,89.66,5.28Z"/><path class="cls-1" d="M114.26,0a14.39,14.39,0,0,0-.11,1.89A13.22,13.22,0,0,0,116,9.14a12.46,12.46,0,0,0,2.88,3.48,13,13,0,0,0,2.83,2,6.61,6.61,0,0,0-1.41,2,18.41,18.41,0,0,1-4.67-4.32,14.41,14.41,0,0,1-2.43-5A13.18,13.18,0,0,1,111.7,11a12.85,12.85,0,0,1-2.81,3.52A16.24,16.24,0,0,1,106,16.63a5.29,5.29,0,0,0-1.43-1.89,12,12,0,0,0,4-3.08C111,9,112,6,112,1.55a8.55,8.55,0,0,0-.1-1.55Z"/><path class="cls-1" d="M130.45,11.13a.45.45,0,0,1,.08.27c0,.13,0,.15-.2.57a20.79,20.79,0,0,0-1.07,3.29c0,.21-.11.32-.19.36a5.45,5.45,0,0,1-.95.13h-.46c-.25,0-.31-.06-.38-.29a24.89,24.89,0,0,1-.65-5.74,29.48,29.48,0,0,1,.66-6.27c.2-1,.29-1.6.37-2.23a8.53,8.53,0,0,1,2.06.61c.33.13.42.23.42.42s0,.19-.23.49c-.63,1-1.33,5.07-1.33,7.81,0,.43,0,1,.07,2,.54-1.2.73-1.56,1.17-2.5A6.07,6.07,0,0,0,130.45,11.13Zm4.15,1.36a5.46,5.46,0,0,0,2.62.43,9.79,9.79,0,0,0,3.13-.43,1,1,0,0,1,.27-.06c.13,0,.23.07.25.27a14.38,14.38,0,0,1,.17,1.79c0,.19-.06.25-.32.33a13.43,13.43,0,0,1-3.37.4,7,7,0,0,1-3.75-.75c-.84-.51-1.72-1.56-1.72-2.08,0-.27.4-.63,1.44-1.26A2.7,2.7,0,0,0,134.6,12.49Zm-1.34-9.76a16.07,16.07,0,0,0,2.58.18,21.52,21.52,0,0,0,3.71-.31l.17,0c.14,0,.19.06.23.21a12.83,12.83,0,0,1,.1,1.55c0,.29-.06.38-.27.42a20.5,20.5,0,0,1-3.46.25A16.23,16.23,0,0,1,133,4.8c-.09-.06-.13-.19-.13-.54A12.58,12.58,0,0,1,133,2.83c0-.08.08-.12.19-.12A.22.22,0,0,1,133.26,2.73Z"/><path class="cls-1" d="M150,6.23a20.93,20.93,0,0,1-2.75.18c-.59,0-.69-.25-.82-1.95h.74A23.77,23.77,0,0,0,150,4.28v-.4a17.19,17.19,0,0,0-.26-3.25,11.39,11.39,0,0,1,2.42.27.32.32,0,0,1,.27.34.77.77,0,0,1-.11.38A6.42,6.42,0,0,0,152,4c.63-.12,1.64-.37,2.41-.6h.13a.27.27,0,0,1,.29.21A8.1,8.1,0,0,1,155,5a.35.35,0,0,1-.25.34,26.85,26.85,0,0,1-2.85.6V8.41a15,15,0,0,1,4.63-.93,3.75,3.75,0,0,1,4,4,3.87,3.87,0,0,1-1.76,3.5,4.83,4.83,0,0,1-2.35.56,5.39,5.39,0,0,1-2-.22c-.21-.11-.23-.17-.26-.63a4.84,4.84,0,0,0-.39-1.55,6,6,0,0,0,2.18.41c1.49,0,2.33-.77,2.33-2.13a2,2,0,0,0-2.08-2.12,11.69,11.69,0,0,0-4.38,1.09c0,.08,0,.08,0,.82,0,1.27,0,1.27,0,1.53s0,.69,0,.86c0,1.55-.59,2.3-1.85,2.3a4.24,4.24,0,0,1-3.24-1.65,2.27,2.27,0,0,1-.45-1.37c0-1.25,1.1-2.37,3.51-3.62Zm0,5.13c-1.11.67-1.56,1.11-1.56,1.51s.63.92,1.2.92c.27,0,.36-.18.36-.62ZM160.64,7a8.78,8.78,0,0,0-3.57-2.3c-.16,0-.23-.13-.23-.23a4,4,0,0,1,.72-1.14c.21-.29.23-.31.42-.31a7.46,7.46,0,0,1,1.42.5c1.2.55,2.77,1.74,2.77,2.1s-.95,1.55-1.24,1.55C160.83,7.19,160.76,7.15,160.64,7Z"/><path class="cls-1" d="M167.44,3.82c0-.55,0-1.3-.05-1.72a8.78,8.78,0,0,1,2,.42c.46.18.61.29.61.5a.62.62,0,0,1-.07.31,8.47,8.47,0,0,0-.33,3.11,17,17,0,0,0,.54,5.15c.28.9.72,1.41,1.24,1.41.78,0,1.43-.92,2.14-3a5.71,5.71,0,0,0,1,1.95.71.71,0,0,1,.16.4,3.58,3.58,0,0,1-.67,1.51,3.38,3.38,0,0,1-2.72,1.69c-1.47,0-2.58-1.19-3.27-3.54a22.45,22.45,0,0,1-.65-6.14Zm11.38.31a.57.57,0,0,1,.36.19,12.65,12.65,0,0,1,2.58,3.94,11.9,11.9,0,0,1,.83,2.77c0,.19-.1.29-.5.5a6,6,0,0,1-1.57.53c-.17,0-.25-.09-.3-.44A13.37,13.37,0,0,0,179,7.84a10.17,10.17,0,0,0-1.87-2.77A4.6,4.6,0,0,1,178.82,4.13Z"/><path class="cls-1" d="M191.64.63c.47.13.61.23.61.44a1.12,1.12,0,0,1-.12.46,10.93,10.93,0,0,0-.44,2.87c-.15,3.08-.23,5.47-.23,7.36a4.59,4.59,0,0,0,.16,1.37c.21.64.88,1,1.95,1A7,7,0,0,0,198.4,12a11.5,11.5,0,0,0,1.82-2.22,6.72,6.72,0,0,0,.69,1.87,1.12,1.12,0,0,1,.09.44c0,.35-.36.81-1.31,1.67a9.22,9.22,0,0,1-6.2,2.58,4.42,4.42,0,0,1-3.21-1c-.73-.77-1-1.76-1-3.66,0-1.49,0-2.63.17-7.09,0-.67,0-1.07,0-1.24a17.43,17.43,0,0,0-.14-2.93A11.32,11.32,0,0,1,191.64.63Z"/><path class="cls-1" d="M206.44,3.82c0-.55,0-1.3-.06-1.72a9,9,0,0,1,2.05.42c.46.18.61.29.61.5a.56.56,0,0,1-.08.31,8.54,8.54,0,0,0-.32,3.11,17.09,17.09,0,0,0,.53,5.15c.29.9.73,1.41,1.25,1.41.78,0,1.43-.92,2.14-3a5.54,5.54,0,0,0,1,1.95.69.69,0,0,1,.15.4,3.46,3.46,0,0,1-.67,1.51,3.37,3.37,0,0,1-2.71,1.69c-1.47,0-2.58-1.19-3.27-3.54a22.45,22.45,0,0,1-.65-6.14Zm11.38.31a.57.57,0,0,1,.36.19,12.83,12.83,0,0,1,2.58,3.94,11.76,11.76,0,0,1,.82,2.77c0,.19-.09.29-.5.5a5.84,5.84,0,0,1-1.56.53c-.17,0-.25-.09-.31-.44A13.36,13.36,0,0,0,218,7.84a10.27,10.27,0,0,0-1.88-2.77A4.61,4.61,0,0,1,217.82,4.13Z"/><path class="cls-1" d="M70.75,31.65c.16.08.23.17.23.29a.7.7,0,0,1-.25.46,3,3,0,0,0-.45.93,28.79,28.79,0,0,1-2.11,4.61,20.07,20.07,0,0,1-6.86,6.75c-.46.27-.56.31-.69.31a.62.62,0,0,1-.42-.19,5.4,5.4,0,0,0-1.78-1.15,26.05,26.05,0,0,0,3.69-2.33,16.43,16.43,0,0,0,5.6-8.66A7.83,7.83,0,0,0,68,30.75,11.32,11.32,0,0,1,70.75,31.65Z"/><path class="cls-1" d="M91.59,35a1,1,0,0,1,.14.44c0,.19-.08.32-.33.67a20.06,20.06,0,0,1-3.88,3.8,29,29,0,0,1-5.83,3.58c-1.47.68-1.55.72-1.78.93s-.23.19-.34.19-.33-.15-.62-.57a8.56,8.56,0,0,1-1-2,22.07,22.07,0,0,0,6.48-2.88,17.12,17.12,0,0,0,6.23-6.2A10.34,10.34,0,0,0,91.59,35ZM78.86,31.79c.32-.37.46-.46.63-.46a11,11,0,0,1,3,1.89c.73.59,1,.84,1,1a3.82,3.82,0,0,1-.81,1.17c-.42.48-.63.65-.78.65s-.13,0-.92-.75a14.64,14.64,0,0,0-2-1.58c-.66-.44-.66-.44-.8-.52a.26.26,0,0,1-.11-.17A3.76,3.76,0,0,1,78.86,31.79Z"/><path class="cls-1" d="M102.86,31.14c1.58,0,2.79,0,5.14-.08a6,6,0,0,0,1.39-.14,1.09,1.09,0,0,1,.33-.05c.36,0,.71.28,1.26,1a2.5,2.5,0,0,1,.67,1.3.55.55,0,0,1-.31.48,2.2,2.2,0,0,0-.74.76,19.89,19.89,0,0,1-2.75,3c-.5.45-.67.57-.86.57a.4.4,0,0,1-.33-.15,4.86,4.86,0,0,0-1.57-1.23,11.23,11.23,0,0,0,3.64-3.52c-9.85.08-9.85.08-11,.27a.86.86,0,0,1-.25,0c-.28,0-.46-.17-.55-.55a9.3,9.3,0,0,1-.25-1.95A42.51,42.51,0,0,0,102.86,31.14Zm1.54,3.65c.39.09.54.21.54.4s0,.07-.12.32a7,7,0,0,0-.28,1.32,12.63,12.63,0,0,1-2,5.72,9.3,9.3,0,0,1-3.17,2.73.87.87,0,0,1-.37.12.48.48,0,0,1-.42-.23A5.45,5.45,0,0,0,97.12,44a9.5,9.5,0,0,0,2.37-1.47c1.84-1.59,2.75-3.92,2.75-7,0-.44,0-.7,0-1A10.81,10.81,0,0,1,104.4,34.79Z"/><path class="cls-1" d="M120.65,31.56a.31.31,0,0,1,.23.32.82.82,0,0,1,0,.27,5.24,5.24,0,0,0-.13,1.49c0,4.66-.88,7.65-2.89,10.19-.44.54-.61.71-.8.71a.75.75,0,0,1-.32-.12,5.46,5.46,0,0,0-1.86-.68,9.74,9.74,0,0,0,2.41-3.35A14.62,14.62,0,0,0,118.38,34a15.27,15.27,0,0,0-.19-2.79A8.77,8.77,0,0,1,120.65,31.56Zm2,1.85a17.51,17.51,0,0,0-.17-2.49c2.06.08,2.81.23,2.81.62a1,1,0,0,1-.1.38,2.36,2.36,0,0,0-.13.71c-.06.51-.06.51-.1,8.93a17.62,17.62,0,0,0,5.62-4.73,9.74,9.74,0,0,0,.29,2.3.77.77,0,0,1,.06.32c0,.31-.19.56-1.07,1.38a17.17,17.17,0,0,1-4.15,2.91,3.68,3.68,0,0,0-.9.59.77.77,0,0,1-.44.19,3.72,3.72,0,0,1-1.42-.94,1.46,1.46,0,0,1-.55-.92.9.9,0,0,1,.08-.32,4.93,4.93,0,0,0,.17-1.76Z"/><path class="cls-1" d="M146.79,34.37H145c-3.49,0-7.05.11-7.53.23l-.17,0h-.17c-.21-.05-.21-.07-.25-.23A16.6,16.6,0,0,1,136.7,32a42.15,42.15,0,0,0,5.12.2c5,0,5.41,0,7.31-.1-.06,1.85-.06,2.92-.06,6.08,0,1.11.06,4.47.09,5.14,0,.29,0,.31,0,.4,0,.25-.05.41-.19.46a9.75,9.75,0,0,1-1.47.12c-.76,0-.76,0-.76-.46,0-.08,0-.08,0-.84h-1.89c-2.1,0-5.93.07-6.67.11-.46,0-.73.06-1.09.12a.52.52,0,0,1-.17,0c-.21,0-.29-.08-.35-.48a20.21,20.21,0,0,1-.19-2.09c1.28.12,2.54.16,5.57.16l4.81,0Z"/><path class="cls-1" d="M162.37,36.57c3.5,0,5.51,0,7.44-.18h.25c.57,0,.57,0,.57,1.55,0,.79-.06.92-.38.92h-.08c-1.26-.06-2-.06-7.5-.06-2,0-3,0-4.79.08h-.56a4.76,4.76,0,0,0-1.07.08H156a.34.34,0,0,1-.38-.26,11.93,11.93,0,0,1-.19-2.34A64,64,0,0,0,162.37,36.57Z"/><path class="cls-1" d="M180.15,31.56a.31.31,0,0,1,.23.32,1.07,1.07,0,0,1,0,.27,4.83,4.83,0,0,0-.14,1.49c0,4.66-.88,7.65-2.88,10.19-.44.54-.62.71-.81.71a.8.8,0,0,1-.32-.12,5.46,5.46,0,0,0-1.86-.68,9.74,9.74,0,0,0,2.41-3.35A14.48,14.48,0,0,0,177.88,34a15.27,15.27,0,0,0-.19-2.79A8.77,8.77,0,0,1,180.15,31.56Zm2,1.85a17.51,17.51,0,0,0-.17-2.49c2.06.08,2.81.23,2.81.62a1,1,0,0,1-.1.38,2.73,2.73,0,0,0-.13.71c-.06.51-.06.51-.1,8.93a17.77,17.77,0,0,0,5.63-4.73,9.31,9.31,0,0,0,.28,2.3.77.77,0,0,1,.06.32c0,.31-.19.56-1.07,1.38a17.17,17.17,0,0,1-4.15,2.91,3.68,3.68,0,0,0-.9.59.75.75,0,0,1-.44.19,3.63,3.63,0,0,1-1.41-.94c-.39-.38-.56-.67-.56-.92a.9.9,0,0,1,.08-.32,4.93,4.93,0,0,0,.17-1.76Z"/><rect class="cls-2" y="13.99" width="251.15" height="24.14"/></g></g></svg>