<svg xmlns="http://www.w3.org/2000/svg" viewBox="0 0 88.99 14.76"><defs><style>.cls-1{fill:none;}</style></defs><g id="レイヤー_2" data-name="レイヤー 2"><g id="レイヤー_1-2" data-name="レイヤー 1"><path d="M2.27,4A10.87,10.87,0,0,1,3.51,6.34c0,.1,0,.15-.21.27A4,4,0,0,1,2,7.24c-.17,0-.17,0-.5-.83A13.85,13.85,0,0,0,.2,4a.42.42,0,0,1-.09-.22c0-.09,0-.13.46-.4A2.22,2.22,0,0,1,1.41,3C1.58,3,1.8,3.24,2.27,4Zm9.87-.34c0,.12,0,.15-.18.33a4.9,4.9,0,0,0-.49.9A20.33,20.33,0,0,1,9.42,8.66a14.6,14.6,0,0,1-3.74,3.82,4.26,4.26,0,0,1-1.43.83.36.36,0,0,1-.3-.14,5.15,5.15,0,0,0-1.31-.91A12.4,12.4,0,0,0,6.52,9.41,14.1,14.1,0,0,0,9.64,4.13,8.14,8.14,0,0,0,10,2.52C11.38,3,12.14,3.36,12.14,3.61ZM6.52,5.92a2.79,2.79,0,0,1-.93.42c-.15,0-.18-.06-.39-.63A11.55,11.55,0,0,0,4,3.18.26.26,0,0,1,3.89,3c0-.14.13-.24.74-.57.44-.24.53-.29.62-.29s.25.11.76.93a10.43,10.43,0,0,1,1.1,2.37C7.11,5.57,7,5.63,6.52,5.92Z"/><path d="M18.91,2.53a.27.27,0,0,1,.18.26.68.68,0,0,1,0,.21A3.88,3.88,0,0,0,19,4.16c0,3.66-.69,6-2.26,8-.35.42-.48.56-.63.56a.66.66,0,0,1-.26-.09,4,4,0,0,0-1.45-.54,7.81,7.81,0,0,0,1.89-2.62,11.46,11.46,0,0,0,.88-5A11.75,11.75,0,0,0,17,2.29,7.7,7.7,0,0,1,18.91,2.53ZM20.51,4A13,13,0,0,0,20.37,2c1.62.06,2.21.18,2.21.48a.82.82,0,0,1-.08.3,1.93,1.93,0,0,0-.1.55c0,.41,0,.41-.08,7a13.81,13.81,0,0,0,4.41-3.7A7.76,7.76,0,0,0,27,8.47a.57.57,0,0,1,.05.25c0,.24-.15.44-.84,1.08a13.54,13.54,0,0,1-3.25,2.28,2.9,2.9,0,0,0-.71.46.57.57,0,0,1-.34.15A2.94,2.94,0,0,1,20.75,12c-.3-.3-.44-.53-.44-.72a.9.9,0,0,1,.06-.26,3.57,3.57,0,0,0,.14-1.37Z"/><path d="M39.17,4.73H37.8c-2.75,0-5.53.09-5.91.18l-.13,0h-.14c-.16,0-.16-.06-.19-.18a12.15,12.15,0,0,1-.17-1.85,35.83,35.83,0,0,0,4,.15c3.92,0,4.24,0,5.72-.08,0,1.45,0,2.29,0,4.77,0,.87,0,3.5.07,4a2.71,2.71,0,0,1,0,.31q0,.3-.15.36a8.2,8.2,0,0,1-1.16.09c-.6,0-.6,0-.6-.36,0-.06,0-.06,0-.66H37.68c-1.65,0-4.65.06-5.24.09l-.85.09a.3.3,0,0,1-.13,0c-.17,0-.23-.06-.27-.38A12.69,12.69,0,0,1,31,9.71c1,.09,2,.12,4.36.12h3.77Z"/><path d="M51.69,4.16c.86,0,3.91-.06,4.5-.07s.66,0,1.17-.09h.06c.19,0,.22.15.22,1.29,0,.34,0,.4-.21.43H57c-.7,0-.84,0-3.23,0A10.34,10.34,0,0,1,52.46,11a7.67,7.67,0,0,1-2.34,2.4,1.43,1.43,0,0,1-.53.21c-.16,0-.21,0-.53-.32a3.62,3.62,0,0,0-1-.67,7.24,7.24,0,0,0,3.11-3.06A10,10,0,0,0,52,5.68l-3.07,0C48,7.24,47.08,8.32,46.75,8.32a.64.64,0,0,1-.32-.14,4.38,4.38,0,0,0-1.18-.6,10.82,10.82,0,0,0,2.82-3.94,8.41,8.41,0,0,0,.66-2.46,8.56,8.56,0,0,1,1.73.57c.15.08.24.18.24.27s0,.15-.16.3a3.3,3.3,0,0,0-.47.93c-.21.49-.25.6-.37.91Z"/><path d="M67.26,6.34h1.23c1,0,3.38-.06,3.94-.11l.39,0c.25,0,.3.09.3.6A3.58,3.58,0,0,1,73,7.87a.29.29,0,0,1-.19.07h-.09c-.29,0-4.27-.09-5.37-.09h-.16l0,.65v.72c0,1.1.06,1.33.39,1.54a3.68,3.68,0,0,0,1.64.25,14,14,0,0,0,2.23-.21l.31,0c.2,0,.24.06.29.41a7.46,7.46,0,0,1,.09,1.08.32.32,0,0,1-.27.34,19.51,19.51,0,0,1-2.35.14,6.76,6.76,0,0,1-2.91-.45c-.86-.41-1.2-1.07-1.2-2.33,0-.21,0-.79,0-2.09l-3,0-.33,0h-.27a.27.27,0,0,1-.29-.25,8.22,8.22,0,0,1-.12-1.52c1,.09,2.64.15,4,.15V4c-1.76,0-2,0-2.39.07a.3.3,0,0,1-.12,0,.2.2,0,0,1-.21-.17,9.92,9.92,0,0,1-.12-1.57,42.8,42.8,0,0,0,4.4.14,42.38,42.38,0,0,0,4.26-.12h.08c.2,0,.25.09.25.63,0,1,0,1-.33,1h-.16c-.54,0-2.54,0-3.83,0Z"/><path d="M83,6.34h1.23c1,0,3.39-.06,3.94-.11l.39,0c.26,0,.3.09.3.6a4.27,4.27,0,0,1-.07,1.07.32.32,0,0,1-.2.07h-.09c-.28,0-4.27-.09-5.37-.09H83V9.22c0,1.1.06,1.33.38,1.54A3.68,3.68,0,0,0,85,11a14,14,0,0,0,2.23-.21l.32,0c.19,0,.24.06.28.41a7.46,7.46,0,0,1,.09,1.08.32.32,0,0,1-.27.34,19.51,19.51,0,0,1-2.35.14,6.76,6.76,0,0,1-2.91-.45c-.85-.41-1.2-1.07-1.2-2.33,0-.21,0-.79,0-2.09l-3,0-.33,0h-.27a.27.27,0,0,1-.29-.25,8.38,8.38,0,0,1-.11-1.52c1,.09,2.63.15,4,.15l0-2.32c-1.77,0-2,0-2.4.07a.3.3,0,0,1-.12,0,.2.2,0,0,1-.21-.17,9.92,9.92,0,0,1-.12-1.57,42.91,42.91,0,0,0,4.41.14,42.27,42.27,0,0,0,4.25-.12h.08c.21,0,.25.09.25.63,0,1,0,1-.33,1h-.16c-.54,0-2.54,0-3.82,0Z"/><rect class="cls-1" width="88.99" height="14.76"/></g></g></svg>