<svg xmlns="http://www.w3.org/2000/svg" viewBox="0 0 172.1 23.09"><g id="レイヤー_2" data-name="レイヤー 2"><g id="レイヤー_1-2" data-name="レイヤー 1"><path d="M10,9.84c0,1.84.09,2.79.34,5.23a22.56,22.56,0,0,1,4.47,1.86c1.93,1.1,2.91,1.83,2.91,2.17a4.22,4.22,0,0,1-.88,1.66c-.37.54-.64.79-.83.79s-.22-.05-.4-.22a14.84,14.84,0,0,0-5.17-3.4,4,4,0,0,1-1,3,6,6,0,0,1-4.28,1.31C2,22.25,0,20.84,0,18.52s2.15-4,5.5-4a16.53,16.53,0,0,1,2.12.12c-.24-4-.32-5.94-.34-9.53a26.56,26.56,0,0,0-.22-3.42A14.92,14.92,0,0,1,10,2c.39.12.53.24.53.51a1,1,0,0,1-.09.39c-.27.64-.37,1.57-.42,4.28.2,0,.2,0,.95,0a24.3,24.3,0,0,0,4.69-.88.49.49,0,0,1,.2,0c.15,0,.2,0,.29.3a8.25,8.25,0,0,1,.52,2.2c0,.19-.1.27-.32.34a31.88,31.88,0,0,1-6,.8H10Zm-4.79,7c-1.66,0-2.66.56-2.66,1.49s.83,1.3,2.36,1.3c1.89,0,2.72-.66,2.72-2.2v-.2A6.61,6.61,0,0,0,5.23,16.88Z"/><path d="M36.18,3.64c0,.22-.1.29-.51.54a2.29,2.29,0,0,0-.61.56c-1.52,1.76-3.69,4.13-5.62,6.08a1.54,1.54,0,0,0-.59,1c0,.27.2.56.66,1C31,14.14,33.3,16.54,35,18.52c1.22,1.36,1.54,1.8,1.54,2.05s-.41.68-1.42,1.46a2.12,2.12,0,0,1-.9.54c-.22,0-.32-.1-.56-.49a51.85,51.85,0,0,0-5.57-6.74,12.19,12.19,0,0,1-1.66-1.83,2.69,2.69,0,0,1-.59-1.64,2.94,2.94,0,0,1,.44-1.49,11.24,11.24,0,0,1,1.76-2A40.5,40.5,0,0,0,32,3.66a9.13,9.13,0,0,0,1.27-2.32C35.13,2.39,36.18,3.2,36.18,3.64Z"/><path d="M51.71,7.21c-1.13.07-2.18.09-3.11.09s-1.1,0-1.15-.14a10.23,10.23,0,0,1-.14-1.88V4.81c1.15.05,1.64.08,2.25.08s1.53,0,2.27,0C52,3.42,52,2.93,52,2.44c0-.22,0-.36,0-.71A13.9,13.9,0,0,1,54.73,2c.2,0,.3.15.3.32a1.31,1.31,0,0,1-.15.51,7.84,7.84,0,0,0-.44,1.86,38,38,0,0,0,4.2-.54A12.22,12.22,0,0,1,60,3.88a2.18,2.18,0,0,0,1-.26.06.06,0,0,1,.05,0s.07,0,.12,0,.17.09.22.26a17,17,0,0,1,.12,1.76c0,.37-.07.47-.32.52-1.44.29-4.42.66-7,.88a1.11,1.11,0,0,0,0,.39,14.7,14.7,0,0,0-.07,1.73,13.93,13.93,0,0,1,3.22-.37,9.55,9.55,0,0,0,.25-1.53c1.88.39,2.81.73,2.81,1,0,.1,0,.17-.22.49a.73.73,0,0,0-.17.34,6.17,6.17,0,0,1,5.15,6.06c0,2.66-1.44,4.79-4.2,6.25a9.43,9.43,0,0,1-3,1,.72.72,0,0,1-.61-.29,7.45,7.45,0,0,0-1.61-1.74c2.54-.46,3.79-1,5-2A4.27,4.27,0,0,0,62.43,15a4,4,0,0,0-3.1-4,19.91,19.91,0,0,1-4.2,6.77A8.88,8.88,0,0,0,55.57,19a1,1,0,0,1,.12.34c0,.25-.1.32-.66.61a5.05,5.05,0,0,1-1.57.57c-.22,0-.26-.08-.53-.83a7.7,7.7,0,0,1-4.42,1.53c-1.67,0-2.79-1.34-2.79-3.29,0-3.06,2.22-6,5.91-7.87C51.66,8.77,51.68,7.7,51.71,7.21ZM48.26,17.47a.9.9,0,0,0,1,1,5.63,5.63,0,0,0,3-1.27,30,30,0,0,1-.61-4.61C49.51,14.14,48.26,16,48.26,17.47Zm8.55-6.75a10,10,0,0,0-2.69.54,24.13,24.13,0,0,0,.3,3.71A15.41,15.41,0,0,0,56.81,10.72Z"/><path d="M84.5,9.82a5.56,5.56,0,0,1,5.89,5.67A6.41,6.41,0,0,1,87.19,21a9.78,9.78,0,0,1-5,1.24c-3.1,0-4.91-1.24-4.91-3.37,0-1.93,1.62-3.29,3.91-3.29,2.08,0,3.57,1.05,4.57,3.2a3.64,3.64,0,0,0,1.76-3.18c0-2.1-1.49-3.47-3.84-3.47a10.38,10.38,0,0,0-7.08,3.32,14.81,14.81,0,0,0-1.2,1.37c-.17.25-.29.34-.44.34A5.12,5.12,0,0,1,72.75,15c0-.22.1-.34.63-.73s1.37-1.15,2.4-2.12a72.13,72.13,0,0,0,6.67-7.26,40.5,40.5,0,0,0-5.87,1,1.14,1.14,0,0,1-.26,0c-.2,0-.32-.12-.47-.49a8.38,8.38,0,0,1-.51-2.61A10.12,10.12,0,0,0,77,3c1.17,0,3.15-.17,5.72-.46a5.84,5.84,0,0,0,1.88-.44A1.08,1.08,0,0,1,85.09,2c.34,0,.68.3,1.32,1.27.46.64.61,1,.61,1.15s-.08.42-.61.76a6.9,6.9,0,0,0-1.28,1c-1.22,1.17-1.24,1.17-2.76,2.71-1.07,1.1-1.19,1.22-2.17,2.2A8.36,8.36,0,0,1,84.5,9.82Zm-2.35,8.45a2.2,2.2,0,0,0-1.24-.36c-.76,0-1.25.36-1.25.95S80.42,20,81.59,20a5.56,5.56,0,0,0,1.61-.22A2.55,2.55,0,0,0,82.15,18.27Z"/><path d="M107.88,18.22a26.5,26.5,0,0,0,6.42-.85.64.64,0,0,1,.27-.05c.15,0,.22.1.27.32a17.64,17.64,0,0,1,.12,2.12c0,.49,0,.64-.27.74-.73.39-4,.75-6.86.75-3.69,0-5.79-.63-7.48-2.2a5.49,5.49,0,0,1-1.61-2.61c0-.37.22-.54,2.23-1.66C101.84,17.2,103.87,18.22,107.88,18.22Zm.22-14.07A23.11,23.11,0,0,0,112,3.86h.17a.29.29,0,0,1,.32.22,17,17,0,0,1,.09,1.9c0,.57,0,.76-.19.86a22.41,22.41,0,0,1-4,.27,30.33,30.33,0,0,1-6-.56C101,6.28,101,6.23,101,5.35a21.09,21.09,0,0,1,.12-2.15A24.11,24.11,0,0,0,108.1,4.15Zm7.16,1.27c-.13,0-.2,0-.27-.19a11.52,11.52,0,0,0-1.93-2.49.26.26,0,0,1-.1-.2,2.71,2.71,0,0,1,1.25-1c.17,0,.46.22,1.07.88a6.43,6.43,0,0,1,1.37,1.81C116.65,4.52,115.57,5.42,115.26,5.42ZM117.77.83a5.56,5.56,0,0,1,1.3,1.76c0,.15-.08.22-.47.54s-.75.53-.9.53-.15-.07-.25-.24a13.38,13.38,0,0,0-1.88-2.32.31.31,0,0,1-.12-.2c0-.22,1-.9,1.27-.9S117.26.27,117.77.83Z"/><path d="M143.59,4.47a12.23,12.23,0,0,0,1.81-.1v2.3a9.71,9.71,0,0,0-1.78-.12h-1.54v2l.93,0a26.48,26.48,0,0,0-.1,3.12v4.79a20.48,20.48,0,0,0,.1,2.69,20,20,0,0,0-2.5-.1h-1.68c.93.42,1.61.68,2,.81a19.18,19.18,0,0,0,4.74.85,9.9,9.9,0,0,0-1.17,2.4,19.71,19.71,0,0,1-7.79-2.67l1.9-1.39h-7.35L133,20.5a19.18,19.18,0,0,1-7.62,2.56,11.23,11.23,0,0,0-1.27-2.37c3.56-.39,4.69-.66,6.54-1.66h-1.34a20.91,20.91,0,0,0-2.52.1,24.59,24.59,0,0,0,.1-2.76V11.65c0-1.17,0-1.46-.05-2.27A6.13,6.13,0,0,1,125.76,11a12.39,12.39,0,0,0-2-2c1.37-1.37,1.89-3,1.89-6.06a9,9,0,0,0-.1-1.1c.17,0,.32,0,.39,0h.49a27.63,27.63,0,0,0,4.32-.4,9.74,9.74,0,0,0,2.32-.7l1.47,2a24.23,24.23,0,0,1-6.48,1c0,.36,0,.46,0,.71h4.64a11.11,11.11,0,0,0,1.74-.1V6.64a12.78,12.78,0,0,0-1.69-.09h-.61V8.6h3a9.82,9.82,0,0,0-1.12-1,7.34,7.34,0,0,0,1.34-4.91,5,5,0,0,0-.07-.85,5.2,5.2,0,0,0,.76,0c.76,0,2.93-.18,3.83-.3a13.82,13.82,0,0,0,3.25-.76l1.52,2a35,35,0,0,1-6.87.9c0,.37,0,.54-.05.76ZM129.81,8.6v-2h-1.93a8.73,8.73,0,0,1-.61,2c.74,0,1.18,0,2,0Zm-.39,3h11v-1h-11Zm0,2.72h11v-1h-11Zm0,2.78h11V16h-11Zm8-10.5a9.83,9.83,0,0,1-.81,2.05h3.08v-2Z"/><path d="M154.88,19.86a18.7,18.7,0,0,0,.15,2.88h-2.76a19.83,19.83,0,0,0,.14-2.9V4.47c0-1.25,0-1.86-.09-2.64a19.75,19.75,0,0,0,2.39.1h4.13a18.72,18.72,0,0,0,2.42-.1A17.69,17.69,0,0,0,161.18,4V7.89c0,1.1,0,1.56,0,2.1-.66,0-1.34-.05-2.15-.05h-4.2Zm0-14.8h4V3.84h-4Zm0,3.05h4V6.86h-4Zm11.85,9.28A14,14,0,0,0,166.8,19a16.49,16.49,0,0,0-1.66-.08h-5.23V20.5h-2.49a18.69,18.69,0,0,0,.12-2.28v-5a16,16,0,0,0-.07-1.66c.54.05,1.05.07,1.73.07H165c.74,0,1.27,0,1.81-.07a14.17,14.17,0,0,0-.07,1.61Zm-6.82-.61h4.45V13.7h-4.45Zm12.1,3.1c0,2.15-.59,2.62-3.28,2.62-.36,0-.63,0-2.22-.07a7.81,7.81,0,0,0-.64-2.5,24,24,0,0,0,2.86.2c.69,0,.81-.1.81-.59V9.94H165c-.73,0-1.66,0-2.15.05,0-.56.08-1.12.08-2.1V4c0-.83,0-1.49-.08-2.18a19.33,19.33,0,0,0,2.4.1h4.44a20,20,0,0,0,2.42-.1c-.07.76-.09,1.52-.09,2.62ZM165.24,5.06h4.3V3.84h-4.3Zm0,3.05h4.3V6.86h-4.3Z"/></g></g></svg>