<svg xmlns="http://www.w3.org/2000/svg" viewBox="0 0 251.15 46.16"><defs><style>.cls-1{fill:#222;}.cls-2{fill:none;}</style></defs><g id="レイヤー_2" data-name="レイヤー 2"><g id="レイヤー_1-2" data-name="レイヤー 1"><path class="cls-1" d="M23.86,6.39c-.62,4-2.22,7-4.79,8.91a4.52,4.52,0,0,1-1.49.86c-.13,0-.21-.06-.36-.23a6,6,0,0,0-1.57-1.3,9.33,9.33,0,0,0,4.63-4.17,11.5,11.5,0,0,0,1.26-4.07l-.9,0a16.32,16.32,0,0,0-3.3.19l-.31,0a.37.37,0,0,1-.4-.3,18.35,18.35,0,0,1-.25-2.14,35.36,35.36,0,0,0,4.7.21h.67c0-.77.06-1.23.06-1.84a8.74,8.74,0,0,0-.1-1.6c2.22.09,2.8.23,2.8.57,0,.08,0,.08-.12.34a6,6,0,0,0-.27,1.69c0,.32,0,.49-.05.84h2.84c.86,0,.86,0,1-.06a5.68,5.68,0,0,0,.63-.25.93.93,0,0,1,.25,0c.3,0,.57.18,1.09.69s.72.82.72,1.07,0,.21-.25.73a4.36,4.36,0,0,0-.15,1,25,25,0,0,1-1,7,2.37,2.37,0,0,1-1.49,1.36,5.1,5.1,0,0,1-1.93.25c-1.26,0-1.44-.06-1.51-.5a6.41,6.41,0,0,0-.61-1.83,9.25,9.25,0,0,0,1.91.19c1.11,0,1.43-.15,1.68-.81a25.63,25.63,0,0,0,.82-6.76Z"/><path class="cls-1" d="M37.5,8.09l-.15,0c-.42,0-.59-.65-.73-2.62a41,41,0,0,0,5.81.21c3.83,0,4.86,0,5.22,0a2.63,2.63,0,0,0,.73-.15.84.84,0,0,1,.36-.08,1.11,1.11,0,0,1,.83.46,3.41,3.41,0,0,1,.86,1.36c0,.21-.1.36-.33.61s-.25.3-.61,1.13a12.61,12.61,0,0,1-5,6,11.26,11.26,0,0,1-3.08,1.44c-.27,0-.42-.12-.74-.5a3.34,3.34,0,0,0-1.27-1.07A13.93,13.93,0,0,0,45,11.72a9.69,9.69,0,0,0,2.42-4C40.2,7.78,38.86,7.84,37.5,8.09ZM43.75,1.3a41.12,41.12,0,0,0,4.19-.15h.23c.25,0,.34.19.36.76a6.22,6.22,0,0,0,0,.63v.08c0,.69-.07.88-.32.88l-.4,0c-.37,0-1.8-.08-2.39-.08-2.87,0-4.92,0-6,.14h-.15c-.5,0-.57-.29-.69-2.43A42.1,42.1,0,0,0,43.75,1.3Z"/><path class="cls-1" d="M58.77,8.51c-.58.46-.88.65-1,.65s-.17,0-.53-.38a6.1,6.1,0,0,0-1.36-1,13.51,13.51,0,0,0,4.45-4A11.3,11.3,0,0,0,62,.5c2,.76,2.5,1,2.5,1.26,0,.11-.06.17-.25.31a5.2,5.2,0,0,0-1,1.26h.34l1.26,0a7.59,7.59,0,0,0,2.93-.27A.75.75,0,0,1,68.15,3c.27,0,.54.21,1.13.92.48.54.61.76.61,1s-.06.27-.27.48A5.3,5.3,0,0,0,69,6.44a23.9,23.9,0,0,1-5.3,7c-1.7,1.55-4.4,3.37-5,3.37a.68.68,0,0,1-.48-.23,5,5,0,0,0-1.6-1.13,23,23,0,0,0,6.5-4.53l-.56-.58a14,14,0,0,0-1.81-1.51c-.12-.09-.16-.15-.16-.23s.25-.38.92-1.07c.33-.32.4-.38.52-.38a9,9,0,0,1,2.58,2.08A16.8,16.8,0,0,0,67,5.12c-2.18,0-2.18,0-5,.06A20.39,20.39,0,0,1,58.77,8.51ZM71.35,3.59c-.43.37-.67.54-.79.54s-.11,0-.46-.57A8.05,8.05,0,0,0,68.9,2c-.08-.08-.1-.12-.1-.17s.73-.69.94-.69.38.19,1,.84a4.48,4.48,0,0,1,.87,1.24C71.57,3.37,71.52,3.44,71.35,3.59Zm.86-1A7.67,7.67,0,0,0,70.79.8C70.71.73,70.7.69,70.7.65s.09-.19.42-.42A.76.76,0,0,1,71.61,0c.21,0,.71.5,1.36,1.32a2.07,2.07,0,0,1,.44.73c0,.11-.06.19-.29.36a1.94,1.94,0,0,1-.7.4C72.34,2.81,72.28,2.77,72.21,2.62Z"/><path class="cls-1" d="M81.52,11.53a.45.45,0,0,1,.08.27c0,.13,0,.15-.19.57a21.13,21.13,0,0,0-1.07,3.29c-.06.21-.12.32-.19.36a5.63,5.63,0,0,1-1,.14h-.08l-.38,0c-.25,0-.31-.06-.38-.29a25.45,25.45,0,0,1-.65-5.74,28.93,28.93,0,0,1,.67-6.27c.19-1,.28-1.6.36-2.23a8.76,8.76,0,0,1,2.07.61c.32.13.42.23.42.42s0,.19-.23.5c-.63,1-1.34,5.06-1.34,7.8,0,.44,0,1,.07,2,.54-1.2.73-1.56,1.17-2.5A6.07,6.07,0,0,0,81.52,11.53Zm4.15,1.36a5.44,5.44,0,0,0,2.62.44,9.89,9.89,0,0,0,3.14-.44.9.9,0,0,1,.26-.06c.14,0,.23.08.25.27a14.38,14.38,0,0,1,.17,1.79c0,.19,0,.25-.32.33a12.93,12.93,0,0,1-3.37.4,7,7,0,0,1-3.74-.74c-.84-.52-1.72-1.57-1.72-2.09,0-.27.4-.63,1.43-1.26A2.7,2.7,0,0,0,85.67,12.89ZM84.33,3.14a17.71,17.71,0,0,0,2.58.17A21.35,21.35,0,0,0,90.62,3l.17,0c.14,0,.2.06.23.21a13,13,0,0,1,.1,1.55c0,.29-.06.38-.27.42a19.5,19.5,0,0,1-3.46.25,15.62,15.62,0,0,1-3.31-.21C84,5.14,84,5,84,4.67a10.23,10.23,0,0,1,.1-1.44c0-.07.07-.11.19-.11A.18.18,0,0,1,84.33,3.14Z"/><path class="cls-1" d="M101,5.41A11.15,11.15,0,0,1,104,5c2.71,0,4.28,1.61,4.28,4.36a7,7,0,0,1-3.11,5.85,9.33,9.33,0,0,1-3.35,1.65c-.25,0-.31-.06-.71-.64a3.62,3.62,0,0,0-1-1.05,10.65,10.65,0,0,0,4.11-2.08,4.74,4.74,0,0,0,1.72-3.69c0-1.55-.72-2.43-2-2.43a10.1,10.1,0,0,0-4.12,1.24,4.46,4.46,0,0,0-.7.44.58.58,0,0,1-.23.08c-.37,0-1-1.07-1.4-2.51A21.23,21.23,0,0,0,101,5.41ZM102.29.75a16.79,16.79,0,0,0,2.66.51c.38,0,.51.06,1.49.1.28,0,.36.07.36.28a6.41,6.41,0,0,1-.25,1.86c0,.11-.13.15-.27.15a22,22,0,0,1-2.88-.4,12.85,12.85,0,0,1-3.1-.9.3.3,0,0,1-.1-.21,8.48,8.48,0,0,1,.6-1.55c.09-.15.15-.19.26-.19A5.94,5.94,0,0,1,102.29.75Z"/><path class="cls-1" d="M118.12,6a17.54,17.54,0,0,0-2.22.57.82.82,0,0,1-.34.08c-.18,0-.27-.1-.39-.43a10.86,10.86,0,0,1-.34-1.75l.59,0a14.27,14.27,0,0,0,2.72-.32l0-1.15c0-.27,0-.46,0-.51a11.54,11.54,0,0,0-.1-1.84,10.31,10.31,0,0,1,2.26.27c.24.06.36.17.36.34a.8.8,0,0,1-.12.35,6.21,6.21,0,0,0-.32,2.18c.42.28.78.68.78.88s0,.21-.23.42a6.42,6.42,0,0,0-.74,1c0,.5,0,.5,0,.63a21.56,21.56,0,0,1,1.7-1.39,14.86,14.86,0,0,1,2.1-1.36,3.77,3.77,0,0,1,2-.54A2.29,2.29,0,0,1,128,4.51a3.37,3.37,0,0,1,.32,1.65c0,.65,0,1.26-.15,2.65-.16,1.65-.23,2.87-.23,3.62s.17,1,.71,1a3.75,3.75,0,0,0,2.52-1.49,4.7,4.7,0,0,0,.33,1.74,1.08,1.08,0,0,1,.07.33c0,.21-.09.38-.42.63a4.89,4.89,0,0,1-2.92,1c-1.69,0-2.45-.88-2.45-2.81,0-.88,0-2,.25-4.69,0-.63.07-1.16.07-1.43,0-.78-.27-1.15-.84-1.15s-1.7.62-3.21,1.78a16.66,16.66,0,0,0-2,1.8V10c0,1.43.1,4.74.17,5.91v.23c0,.15,0,.21,0,.26a3.17,3.17,0,0,1-1.53.2c-.56,0-.67-.08-.67-.41,0-.11,0-.3,0-.51v-.44c0-.67,0-.67.09-4.3a19.66,19.66,0,0,0-1.74,2.46c-.17.27-.28.37-.44.37s-.49-.31-1.09-1c-.36-.42-.49-.59-.49-.71s0-.17.17-.3c1.2-1.25,2.22-2.43,3.65-4.23Z"/><path class="cls-1" d="M140.15,1c.48.14.62.23.62.44a1.12,1.12,0,0,1-.12.46,11,11,0,0,0-.44,2.87c-.15,3.08-.23,5.47-.23,7.36a4.72,4.72,0,0,0,.16,1.38c.21.63.88,1,2,1a7,7,0,0,0,4.83-2.1,11.5,11.5,0,0,0,1.82-2.22,6.41,6.41,0,0,0,.69,1.87,1.13,1.13,0,0,1,.09.45c0,.34-.36.8-1.32,1.66A9.18,9.18,0,0,1,142,16.73a4.38,4.38,0,0,1-3.21-1.05c-.73-.77-1-1.76-1-3.65,0-1.49,0-2.64.18-7.1,0-.67,0-1.07,0-1.24a17.8,17.8,0,0,0-.13-2.93A11.12,11.12,0,0,1,140.15,1Z"/><path class="cls-1" d="M155,4.23c0-.56,0-1.3-.06-1.73a8.43,8.43,0,0,1,2,.43c.45.17.61.28.61.49a.56.56,0,0,1-.08.31,8.57,8.57,0,0,0-.32,3.11,17.09,17.09,0,0,0,.53,5.15c.29.9.73,1.41,1.25,1.41.78,0,1.43-.91,2.14-3a5.54,5.54,0,0,0,1,2,.76.76,0,0,1,.15.4,3.46,3.46,0,0,1-.67,1.51,3.37,3.37,0,0,1-2.71,1.69c-1.48,0-2.58-1.19-3.27-3.54A22.45,22.45,0,0,1,155,6.23Zm11.37.3c.12,0,.21.06.37.19a12.83,12.83,0,0,1,2.58,3.94,11.76,11.76,0,0,1,.82,2.77c0,.19-.1.29-.5.5a6,6,0,0,1-1.56.54c-.18,0-.25-.1-.31-.44a13,13,0,0,0-1.19-3.79,9.94,9.94,0,0,0-1.87-2.77A4.77,4.77,0,0,1,166.33,4.53Z"/><path class="cls-1" d="M186.76,8.81a7,7,0,0,0-.61.52c-.84.73-1.41,1.17-2.37,1.87l3.84-.23c-.3-.3-.49-.49-1.05-1l1.59-1a28.78,28.78,0,0,1,3.32,3.66l-1.66,1.14c-.46-.68-.57-.88-1-1.37-2.44.23-2.44.23-4.89.36V15.2a9.44,9.44,0,0,0,.12,1.85h-2.32a9.08,9.08,0,0,0,.12-1.85V12.91c-3.64.17-3.64.17-5.26.22a6.58,6.58,0,0,0-1.3.12l-.33-2a15.23,15.23,0,0,0,1.86.08c.3,0,1.51,0,3.63-.08A22.38,22.38,0,0,0,177,9.35l1.17-1.42c.84.43,1.13.58,1.7.92A10.55,10.55,0,0,0,181,7.74h-4.13a15.07,15.07,0,0,0-2.12.12V6.1a11.71,11.71,0,0,0,1.91.09h5.27V5.26h-4.05c-.69,0-1.2,0-1.72.07V3.67a14,14,0,0,0,1.72.08h4.05V2.89h-4.53A18.4,18.4,0,0,0,175.5,3V1.22a15,15,0,0,0,2.14.12h4.3a5.82,5.82,0,0,0-.09-1.28h2.2a5.26,5.26,0,0,0-.12,1.28h4.61a13.64,13.64,0,0,0,2.1-.12V3a18.6,18.6,0,0,0-1.89-.07h-4.82v.86h4.3a13.29,13.29,0,0,0,1.71-.08V5.33a17.07,17.07,0,0,0-1.71-.07h-4.3v.93h5.57a11.79,11.79,0,0,0,1.89-.09V7.86a16.88,16.88,0,0,0-2.1-.12h-3.92Zm-6,5.4A12.61,12.61,0,0,1,176.38,17a7.29,7.29,0,0,0-1.47-1.61,9.73,9.73,0,0,0,2.29-1A7,7,0,0,0,179,13.13Zm2.62-6.47a19.16,19.16,0,0,1-2,2l1,.61a18.21,18.21,0,0,0,2.83-2.62Zm3.36,5.13a11.41,11.41,0,0,0,4.46,2.44,9.21,9.21,0,0,0-1.3,1.73A16.31,16.31,0,0,1,185.1,14Z"/><path class="cls-1" d="M201,5.32a9,9,0,0,0,2.5,3.26,7.28,7.28,0,0,0-1,1.71,9.55,9.55,0,0,1-1.7-2.53c.09,1.15.11,1.63.11,3V15a15.68,15.68,0,0,0,.12,2.12h-2.14a17.52,17.52,0,0,0,.11-2.12V11.38c0-.71,0-.71,0-1a16.07,16.07,0,0,1,.1-1.89,15.3,15.3,0,0,1-2.41,4.8,7.85,7.85,0,0,0-1-2.09,14.77,14.77,0,0,0,2.22-3.61,14.9,14.9,0,0,0,.88-2.25h-.9a14,14,0,0,0-1.68.09v-2a10.69,10.69,0,0,0,1.76.1h1.05V1.93a13.68,13.68,0,0,0-.11-1.8H201a9,9,0,0,0-.12,1.8V3.5h1a10.28,10.28,0,0,0,1.41-.1v2a10.67,10.67,0,0,0-1.41-.09Zm4.76,0a13,13,0,0,0-2,.1v-2a16.68,16.68,0,0,0,2,.1h2.64V2.39a18,18,0,0,0-.12-2.18h2.2a20.57,20.57,0,0,0-.09,2.18V3.54h.55a10.51,10.51,0,0,0,1.82-.12v2a14.66,14.66,0,0,0-1.82-.1h-.53l.05,9.49c0,1-.21,1.51-.76,1.78a4.66,4.66,0,0,1-1.93.23c-.63,0-1.17,0-1.86-.08a6.33,6.33,0,0,0-.46-2,13.84,13.84,0,0,0,2,.17c.86,0,1.05-.07,1.05-.46l-.05-6.84a17.37,17.37,0,0,1-1.72,2.73,17.16,17.16,0,0,1-3.5,3.46,8.21,8.21,0,0,0-1.34-1.64,15.56,15.56,0,0,0,5.79-6.85Z"/><path class="cls-1" d="M221.56,11.53a.45.45,0,0,1,.08.27c0,.13,0,.15-.19.57a21.13,21.13,0,0,0-1.07,3.29c-.06.21-.12.32-.19.36a5.63,5.63,0,0,1-1,.14h-.08l-.38,0c-.25,0-.3-.06-.38-.29a25.45,25.45,0,0,1-.65-5.74,28.93,28.93,0,0,1,.67-6.27c.19-1,.29-1.6.36-2.23a8.76,8.76,0,0,1,2.07.61c.32.13.42.23.42.42s0,.19-.23.5c-.63,1-1.34,5.06-1.34,7.8,0,.44,0,1,.08,2,.53-1.2.72-1.56,1.16-2.5A6.07,6.07,0,0,0,221.56,11.53Zm4.15,1.36a5.44,5.44,0,0,0,2.62.44,9.89,9.89,0,0,0,3.14-.44.9.9,0,0,1,.26-.06c.14,0,.23.08.25.27a14.38,14.38,0,0,1,.17,1.79c0,.19-.05.25-.32.33a12.87,12.87,0,0,1-3.37.4,7.06,7.06,0,0,1-3.74-.74c-.84-.52-1.72-1.57-1.72-2.09,0-.27.4-.63,1.43-1.26A2.75,2.75,0,0,0,225.71,12.89Zm-1.34-9.75a17.71,17.71,0,0,0,2.58.17A21.35,21.35,0,0,0,230.66,3l.18,0c.13,0,.19.06.23.21s.09,1,.09,1.55c0,.29-.06.38-.27.42a19.5,19.5,0,0,1-3.46.25,15.62,15.62,0,0,1-3.31-.21C224,5.14,224,5,224,4.67a10.23,10.23,0,0,1,.1-1.44c0-.07.07-.11.19-.11A.18.18,0,0,1,224.37,3.14Z"/><path class="cls-1" d="M95.26,42.84a20.74,20.74,0,0,0,5-.67.45.45,0,0,1,.21,0c.11,0,.17.08.21.25A14.91,14.91,0,0,1,100.8,44c0,.38,0,.5-.21.57a18.93,18.93,0,0,1-5.37.6c-2.89,0-4.53-.48-5.85-1.72a4.35,4.35,0,0,1-1.26-2.05c0-.29.17-.4,1.74-1.3C90.53,42,92.12,42.84,95.26,42.84Zm.17-11a17.9,17.9,0,0,0,3.06-.23h.13a.22.22,0,0,1,.25.18A10.78,10.78,0,0,1,99,33.28c0,.44,0,.59-.16.67a17.83,17.83,0,0,1-3.09.21A24.2,24.2,0,0,1,91,33.72c-1.09-.21-1.14-.27-1.14-.94,0-.44,0-1.17.09-1.7A18.64,18.64,0,0,0,95.43,31.84Z"/><path class="cls-1" d="M107.4,36h-.11a1,1,0,0,1-.21,0c-.17,0-.27-.08-.33-.33a10.35,10.35,0,0,1-.23-1.79c.27,0,.48,0,.61,0a27.18,27.18,0,0,0,3.26-.21,20.75,20.75,0,0,0,.28-3v-.44c2.22.31,2.64.43,2.62.77a.91.91,0,0,1-.11.32,6,6,0,0,0-.56,2,17.82,17.82,0,0,0,2.09-.51.23.23,0,0,1,.15,0c.17,0,.21.07.36.74a8.69,8.69,0,0,1,.16,1.07c0,.14-.06.21-.23.25a20.42,20.42,0,0,1-3,.58,53.75,53.75,0,0,1-3.27,10.19c-.09.25-.19.34-.3.34a4.93,4.93,0,0,1-1.57-.63c-.33-.17-.42-.25-.42-.36a1.39,1.39,0,0,1,.15-.41A36,36,0,0,0,110,35.78C109.16,35.88,108.57,35.93,107.4,36Zm8.17,7.26a4.43,4.43,0,0,0,2.48.54,10.71,10.71,0,0,0,2.93-.31,1.54,1.54,0,0,1,.26-.05c.18,0,.25.05.31.23a6.92,6.92,0,0,1,.23,1.77.35.35,0,0,1-.32.41,16,16,0,0,1-2.83.21c-2.39,0-3.73-.39-4.61-1.3a3.37,3.37,0,0,1-.75-1.25,2.84,2.84,0,0,1-.19-.72c0-.33.57-.67,1.57-1A2.07,2.07,0,0,0,115.57,43.29Zm5.37-5.56a15.44,15.44,0,0,0-1.86-.09,17.38,17.38,0,0,0-3.69.34.27.27,0,0,1-.13,0,.19.19,0,0,1-.21-.15,8.68,8.68,0,0,1-.13-1.48c0-.25,0-.36.19-.42a4.55,4.55,0,0,1,.59-.13,20.13,20.13,0,0,1,3.73-.33,5.31,5.31,0,0,1,1.81.14c.1.08.12.23.12.86a6.14,6.14,0,0,1-.08,1.17.2.2,0,0,1-.19.09A.44.44,0,0,1,120.94,37.73ZM118.84,31a7.28,7.28,0,0,1,1.87,2.1.72.72,0,0,1-.29.37c-.07.06-.19.15-.32.27a1,1,0,0,1-.42.26l-.1,0c-.07,0-.07,0-.44-.57a10,10,0,0,0-1.26-1.55.64.64,0,0,1-.1-.13l.06-.12a6.07,6.07,0,0,1,.5-.44,1.69,1.69,0,0,0,.32-.19s0,0,.06,0h.12Zm3.23,1.34a1.52,1.52,0,0,1-.56.31c-.07,0-.11,0-.21-.2a9.22,9.22,0,0,0-1.45-1.81.2.2,0,0,1-.08-.15c0-.18.73-.71,1-.71s.36.19.78.63a4.18,4.18,0,0,1,1,1.39C122.58,31.92,122.45,32.05,122.07,32.34Z"/><path class="cls-1" d="M130.24,43.29c0-2.08,0-2.08,0-3a14.33,14.33,0,0,0-1.93,2.49c-.1.19-.23.3-.35.3s-.65-.4-1.26-1.09c-.25-.3-.36-.47-.36-.55s0-.13,1-1.09a34.48,34.48,0,0,0,3-3.5c0-.11,0-.55,0-1.32a13.07,13.07,0,0,0-2.47.67c-.19.1-.23.12-.32.12-.33,0-.6-.75-.85-2.24a26.44,26.44,0,0,0,3.67-.38c0-.69,0-1.67,0-2.2a7.11,7.11,0,0,0-.11-1.42,13.3,13.3,0,0,1,2.33.29c.29.08.4.19.4.4a1.19,1.19,0,0,1-.11.38c-.19.39-.21.52-.36,2,.45.29.89.76.89,1s0,.18-.59.9c-.06.08-.23.33-.52.69,0,.61,0,.61,0,.75a7.86,7.86,0,0,1,5.33-2.26,4.55,4.55,0,0,1,4.86,4.93,5.64,5.64,0,0,1-3.27,5.26,9,9,0,0,1-2.7,1,.41.41,0,0,1-.31-.11s0,0-.28-.38a4.63,4.63,0,0,0-1.07-1.09c3.8-1,5.31-2.37,5.31-4.72a2.74,2.74,0,0,0-2.81-3A6,6,0,0,0,134,37.31a12.51,12.51,0,0,0-1.7,1.32,2.07,2.07,0,0,1,0,.4c0,2,0,2.22.11,6.23,0,.21,0,.37,0,.41,0,.36-.27.44-1.66.44-.5,0-.54-.06-.54-.6Z"/><path class="cls-1" d="M151.4,36.83c.1-.15.1-.15.94-1.57a2.73,2.73,0,0,0,.46.85.89.89,0,0,1,.19.44c0,.11,0,.21-.5,1-.32.58-.88,1.76-1.11,2.33s-.26.58-.89.58a2.27,2.27,0,0,1-1.21-.19,9.9,9.9,0,0,1-.19-2.6,38.74,38.74,0,0,1,.63-6.52,5.4,5.4,0,0,0,.08-1c1.49.27,2.46.71,2.46,1.07,0,.1,0,.16-.15.33a4.85,4.85,0,0,0-.59,1.87,26.38,26.38,0,0,0-.4,4Zm6.94-5.58v.33c0,.07,0,.22,0,.43s0,.31.06.79c0,.21,0,.21,0,.92.05.91.09,1.83.09,2.29a12.8,12.8,0,0,1-2.92,8.74c-.77.9-1.44,1.41-1.82,1.41s-.25,0-.65-.3a3.77,3.77,0,0,0-1.36-.67,9.72,9.72,0,0,0,4.53-8.84,15.89,15.89,0,0,0-.61-5.39,17.39,17.39,0,0,1,1.95-.13c.58,0,.65,0,.65.36Z"/><rect class="cls-2" y="14.39" width="251.15" height="24.14"/></g></g></svg>