<svg xmlns="http://www.w3.org/2000/svg" viewBox="0 0 212.81 35.18"><defs><style>.cls-1{fill:#040000;}.cls-2{fill:none;}</style></defs><g id="レイヤー_2" data-name="レイヤー 2"><g id="レイヤー_1-2" data-name="レイヤー 1"><path class="cls-1" d="M7.3,3.69a29.94,29.94,0,0,0-5.45.6l-.16,0a.28.28,0,0,1-.24-.2,6.28,6.28,0,0,1-.25-1.6h.36c.47,0,.92,0,2.34-.1,1.1-.06,2-.11,3.37-.15A9.13,9.13,0,0,0,7.1.06,7.87,7.87,0,0,1,9,.22a.27.27,0,0,1,.14.27.54.54,0,0,1-.05.16,4.45,4.45,0,0,0-.21,1.57c2.17-.05,2.5-.05,4-.05.4,0,.46,0,.5,0s.09.28.09.79c0,.68,0,.75-.21.75h-.06C12.58,3.69,11,3.63,10,3.63l-1.08,0,0,2.43a3.56,3.56,0,0,1,.3,1.62A5,5,0,0,1,7,12a4.44,4.44,0,0,1-1.62.83.45.45,0,0,1-.33-.16,3.83,3.83,0,0,0-1.26-1,6.58,6.58,0,0,0,1.93-.82,5.7,5.7,0,0,0,1.1-.9A4,4,0,0,0,7.4,9a1.64,1.64,0,0,1-1.33.61A2.11,2.11,0,0,1,4,7.25,2.39,2.39,0,0,1,6.3,4.64a2.29,2.29,0,0,1,1,.19ZM5.5,7.16c0,.63.36,1.06.89,1.06s.91-.4.91-1.09S7,6,6.41,6,5.5,6.5,5.5,7.16Z"/><path class="cls-1" d="M19.09,4c.62-.7.93-.87,1.54-.87s.95.17,1.56.83a23,23,0,0,0,3.1,2.87,19.05,19.05,0,0,0,3.08,1.95c.34.17.39.22.39.32a4.56,4.56,0,0,1-.71,1.32c-.21.3-.27.36-.39.36a7.76,7.76,0,0,1-1.93-1.2,27.7,27.7,0,0,1-3.82-3.49c-1-1-1-1-1.23-1s-.31,0-1,.84l-1.6,1.9a6.76,6.76,0,0,0-.63.8c-.1.18-.18.24-.28.24s-.43-.19-.81-.59a3.36,3.36,0,0,1-.72-1A16.9,16.9,0,0,0,19.09,4Zm6.23.83a.17.17,0,0,1-.16-.12,6.75,6.75,0,0,0-1.24-1.41c-.07-.07-.08-.1-.08-.15s.17-.26.49-.48c.14-.12.17-.14.26-.14s.45.27.91.74.63.7.63.82A1.72,1.72,0,0,1,25.32,4.82ZM27.56,3a1.69,1.69,0,0,1-.77.7q-.09,0-.18-.15a8.89,8.89,0,0,0-1.23-1.35c-.06,0-.08-.07-.08-.1s.58-.6.75-.6A4.26,4.26,0,0,1,27.56,3Z"/><path class="cls-1" d="M34.16,3.9a6.71,6.71,0,0,0-1.06.33,1.17,1.17,0,0,1-.38.1c-.33,0-.62-.61-.89-1.88a23.89,23.89,0,0,0,2.94-.34c1.77-.27,4-.61,5.22-.76s2.4-.36,3-.47a.67.67,0,0,1,.22,0c.2,0,.27.08.41.46a3.66,3.66,0,0,1,.2,1c0,.18-.06.24-.26.24a6.15,6.15,0,0,0-.88.07A5.33,5.33,0,0,0,38.13,7.5c0,1.74,1.37,2.88,3.68,3.09.21,0,.28.09.28.27a5.12,5.12,0,0,1-.28,1.41.37.37,0,0,1-.39.23,5.37,5.37,0,0,1-1.09-.22c-2.52-.74-3.84-2.34-3.84-4.61a5.32,5.32,0,0,1,1.17-3.35,6,6,0,0,1,1.61-1.41C37.33,3.23,35.29,3.62,34.16,3.9Z"/><path class="cls-1" d="M52.14,9.34a3.28,3.28,0,0,1-2.7,1.92c-1.54,0-2.64-1.51-2.64-3.62A6,6,0,0,1,50,2.21a7,7,0,0,1,3.47-.77,5.13,5.13,0,0,1,5.4,5.13,5.64,5.64,0,0,1-3.74,5.52,3.36,3.36,0,0,1-1.07.32c-.17,0-.25-.06-.44-.34a3.17,3.17,0,0,0-.93-.93c3-.79,4.43-2.23,4.43-4.63A3.47,3.47,0,0,0,55.7,3.59,3.66,3.66,0,0,0,54,3C53.54,6.08,53.05,7.79,52.14,9.34ZM50,4.09a4.63,4.63,0,0,0-1.55,3.52c0,1.14.37,1.81,1,1.81s1.5-1,2.06-2.79A18.17,18.17,0,0,0,52.26,3,4.34,4.34,0,0,0,50,4.09Z"/><path class="cls-1" d="M69.13,0A10.37,10.37,0,0,0,69,1.47a10.28,10.28,0,0,0,1.39,5.62,9.89,9.89,0,0,0,2.24,2.7,10.14,10.14,0,0,0,2.2,1.53,5.17,5.17,0,0,0-1.1,1.58,14.26,14.26,0,0,1-3.62-3.35,11.16,11.16,0,0,1-1.88-3.9,10.33,10.33,0,0,1-1.13,2.88A10,10,0,0,1,65,11.26a12.56,12.56,0,0,1-2.21,1.64,4.22,4.22,0,0,0-1.11-1.46,9.37,9.37,0,0,0,3.11-2.39c1.84-2.11,2.61-4.44,2.61-7.85A6.91,6.91,0,0,0,67.29,0Z"/><path class="cls-1" d="M81.72,8.63a.45.45,0,0,1,.06.21c0,.1,0,.12-.15.45a15.87,15.87,0,0,0-.83,2.55c0,.16-.09.25-.15.28a4.42,4.42,0,0,1-.74.1h-.36c-.19,0-.23-.05-.29-.23a19,19,0,0,1-.51-4.44,23,23,0,0,1,.52-4.87c.15-.8.22-1.25.28-1.74a6.83,6.83,0,0,1,1.61.48c.25.1.32.18.32.33s0,.14-.18.38a17.48,17.48,0,0,0-1,6.05c0,.34,0,.8.06,1.54.42-.93.57-1.21.91-1.94A4.2,4.2,0,0,0,81.72,8.63Zm3.22,1.06A4.19,4.19,0,0,0,87,10a7.72,7.72,0,0,0,2.43-.34.76.76,0,0,1,.21,0c.1,0,.18.06.19.21a11,11,0,0,1,.14,1.39c0,.15,0,.2-.26.26a10.38,10.38,0,0,1-2.61.31,5.45,5.45,0,0,1-2.9-.58c-.66-.4-1.34-1.22-1.34-1.62,0-.21.31-.49,1.11-1A2.12,2.12,0,0,0,84.94,9.69Zm-1-7.57a12.31,12.31,0,0,0,2,.13A17,17,0,0,0,88.78,2l.13,0c.11,0,.15,0,.18.17a10.41,10.41,0,0,1,.07,1.2c0,.22,0,.29-.2.32a15.56,15.56,0,0,1-2.69.2,11.93,11.93,0,0,1-2.56-.17c-.08,0-.11-.14-.11-.41a7.84,7.84,0,0,1,.08-1.11c0-.06.06-.09.14-.09Z"/><path class="cls-1" d="M96.9,4.83A17.07,17.07,0,0,1,94.76,5c-.46,0-.53-.19-.64-1.51h.58a19.26,19.26,0,0,0,2.2-.14V3A13.1,13.1,0,0,0,96.69.49,8.88,8.88,0,0,1,98.57.7a.24.24,0,0,1,.21.26.54.54,0,0,1-.09.3,5,5,0,0,0-.22,1.82,19.21,19.21,0,0,0,1.87-.45.2.2,0,0,1,.1,0,.21.21,0,0,1,.22.16,6.23,6.23,0,0,1,.17,1.12.29.29,0,0,1-.2.26,19.67,19.67,0,0,1-2.21.46V6.53A11.66,11.66,0,0,1,102,5.8a2.92,2.92,0,0,1,3.13,3.1,3,3,0,0,1-1.36,2.71A3.68,3.68,0,0,1,102,12a4.48,4.48,0,0,1-1.52-.16c-.16-.09-.18-.13-.21-.49a3.62,3.62,0,0,0-.29-1.2,4.7,4.7,0,0,0,1.69.31c1.16,0,1.81-.59,1.81-1.65a1.52,1.52,0,0,0-1.62-1.64,9.08,9.08,0,0,0-3.4.84c0,.06,0,.06,0,.64,0,1,0,1,0,1.19s0,.53,0,.67c0,1.2-.46,1.78-1.44,1.78a3.32,3.32,0,0,1-2.51-1.28A1.8,1.8,0,0,1,94.17,10c0-1,.86-1.84,2.73-2.8Zm0,4c-.86.52-1.22.86-1.22,1.17s.49.71.94.71c.2,0,.28-.13.28-.47Zm8.27-3.37a6.94,6.94,0,0,0-2.77-1.78c-.12,0-.18-.1-.18-.17s.15-.33.57-.89c.16-.23.17-.24.32-.24a6,6,0,0,1,1.1.38c.93.43,2.15,1.35,2.15,1.64s-.74,1.2-1,1.2S105.26,5.55,105.17,5.44Z"/><path class="cls-1" d="M110.48,3c0-.43,0-1,0-1.34A7.05,7.05,0,0,1,112,2c.35.13.47.22.47.38a.45.45,0,0,1-.06.24A6.74,6.74,0,0,0,112.19,5a13.4,13.4,0,0,0,.41,4c.23.7.57,1.1,1,1.1.61,0,1.11-.72,1.66-2.36a4.49,4.49,0,0,0,.8,1.51.57.57,0,0,1,.12.31,2.73,2.73,0,0,1-.52,1.17A2.61,2.61,0,0,1,113.52,12c-1.14,0-2-.92-2.53-2.74a17.5,17.5,0,0,1-.51-4.77Zm8.83.23c.09,0,.16,0,.28.15a9.84,9.84,0,0,1,2,3.06,8.94,8.94,0,0,1,.64,2.15c0,.15-.07.22-.39.38a4.6,4.6,0,0,1-1.21.42c-.14,0-.19-.07-.24-.34a10.21,10.21,0,0,0-.92-2.94A7.79,7.79,0,0,0,118,3.93,3.65,3.65,0,0,1,119.31,3.2Z"/><path class="cls-1" d="M129.29.49c.37.1.48.18.48.34a1.05,1.05,0,0,1-.09.36,8.08,8.08,0,0,0-.34,2.22c-.12,2.39-.18,4.24-.18,5.71a3.56,3.56,0,0,0,.12,1.07c.16.49.68.74,1.51.74a5.45,5.45,0,0,0,3.75-1.63A8.71,8.71,0,0,0,136,7.58,5.22,5.22,0,0,0,136.48,9a.81.81,0,0,1,.08.34c0,.27-.28.63-1,1.29a7.15,7.15,0,0,1-4.81,2,3.4,3.4,0,0,1-2.49-.82A3.7,3.7,0,0,1,127.45,9c0-1.16,0-2,.14-5.5,0-.52,0-.84,0-1a13.79,13.79,0,0,0-.11-2.27A8.33,8.33,0,0,1,129.29.49Z"/><path class="cls-1" d="M140.81,3c0-.43,0-1,0-1.34a6.83,6.83,0,0,1,1.58.33c.36.13.48.22.48.38a.45.45,0,0,1-.06.24A6.74,6.74,0,0,0,142.52,5a13.4,13.4,0,0,0,.41,4c.22.7.57,1.1,1,1.1.6,0,1.11-.72,1.66-2.36a4.32,4.32,0,0,0,.8,1.51.57.57,0,0,1,.12.31,2.86,2.86,0,0,1-.52,1.17A2.61,2.61,0,0,1,143.85,12c-1.14,0-2-.92-2.53-2.74a17.11,17.11,0,0,1-.51-4.77Zm8.83.23a.48.48,0,0,1,.28.15,9.84,9.84,0,0,1,2,3.06,8.94,8.94,0,0,1,.64,2.15c0,.15-.08.22-.39.38a4.73,4.73,0,0,1-1.21.42c-.14,0-.2-.07-.24-.34a10.21,10.21,0,0,0-.92-2.94,8.28,8.28,0,0,0-1.45-2.15A3.65,3.65,0,0,1,149.64,3.2Z"/><path class="cls-1" d="M11.21,24.51a.27.27,0,0,1,.18.23.58.58,0,0,1-.19.35,2.14,2.14,0,0,0-.36.73,22.31,22.31,0,0,1-1.63,3.57,15.7,15.7,0,0,1-5.32,5.24c-.36.21-.43.24-.54.24A.45.45,0,0,1,3,34.72a4.2,4.2,0,0,0-1.38-.89A20,20,0,0,0,4.51,32,12.72,12.72,0,0,0,8.85,25.3a5.89,5.89,0,0,0,.23-1.48A8.44,8.44,0,0,1,11.21,24.51Z"/><path class="cls-1" d="M27.42,27.11a.73.73,0,0,1,.11.34c0,.15-.06.25-.25.52a15.45,15.45,0,0,1-3,3,21.88,21.88,0,0,1-4.52,2.77,5.48,5.48,0,0,0-1.38.73c-.12.12-.18.15-.27.15s-.25-.12-.47-.45a6.28,6.28,0,0,1-.74-1.57,17,17,0,0,0,5-2.24,13.29,13.29,0,0,0,4.83-4.8A8.27,8.27,0,0,0,27.42,27.11Zm-9.88-2.49c.26-.29.36-.36.5-.36a8.92,8.92,0,0,1,2.31,1.47c.56.46.74.65.74.8a3.08,3.08,0,0,1-.62.91c-.33.37-.49.5-.61.5s-.11,0-.71-.58a12.82,12.82,0,0,0-1.55-1.23c-.51-.34-.51-.34-.62-.4s-.09-.09-.09-.13A2.89,2.89,0,0,1,17.54,24.62Z"/><path class="cls-1" d="M36.2,24.11c1.23,0,2.17,0,4-.06a5,5,0,0,0,1.08-.1.83.83,0,0,1,.26,0c.28,0,.54.22,1,.8a1.89,1.89,0,0,1,.52,1,.42.42,0,0,1-.23.38c-.24.14-.29.19-.58.59A15.48,15.48,0,0,1,40.07,29c-.38.36-.52.45-.67.45a.3.3,0,0,1-.25-.12,3.6,3.6,0,0,0-1.21-.95,8.76,8.76,0,0,0,2.81-2.73c-7.63.06-7.63.06-8.51.21a.69.69,0,0,1-.19,0c-.22,0-.36-.14-.43-.43a7.7,7.7,0,0,1-.2-1.52A31.85,31.85,0,0,0,36.2,24.11ZM37.4,27c.3.07.42.16.42.31s0,.06-.09.25a4.62,4.62,0,0,0-.22,1A9.85,9.85,0,0,1,36,33a7.26,7.26,0,0,1-2.46,2.12.71.71,0,0,1-.29.09.37.37,0,0,1-.32-.18,4.13,4.13,0,0,0-1.16-.92,7.49,7.49,0,0,0,1.84-1.14,6.8,6.8,0,0,0,2.14-5.43,6.88,6.88,0,0,0,0-.82A8,8,0,0,1,37.4,27Z"/><path class="cls-1" d="M50.05,24.44a.25.25,0,0,1,.18.25.68.68,0,0,1,0,.21,3.84,3.84,0,0,0-.11,1.16c0,3.61-.68,5.93-2.24,7.9-.34.42-.47.55-.62.55a.63.63,0,0,1-.25-.09,4.18,4.18,0,0,0-1.44-.53,7.71,7.71,0,0,0,1.87-2.6,11.33,11.33,0,0,0,.87-4.92,11.53,11.53,0,0,0-.15-2.17A7.52,7.52,0,0,1,50.05,24.44Zm1.58,1.44A12.83,12.83,0,0,0,51.5,24c1.6.06,2.18.18,2.18.47a.72.72,0,0,1-.07.3,1.87,1.87,0,0,0-.11.55c0,.4,0,.4-.07,6.93a13.88,13.88,0,0,0,4.36-3.67A7.57,7.57,0,0,0,58,30.31a.59.59,0,0,1,.05.25c0,.24-.15.44-.83,1.07A13.3,13.3,0,0,1,54,33.89a2.57,2.57,0,0,0-.7.46.57.57,0,0,1-.34.15,2.92,2.92,0,0,1-1.1-.73c-.29-.3-.43-.52-.43-.71a.9.9,0,0,1,.06-.26,3.81,3.81,0,0,0,.13-1.36Z"/><path class="cls-1" d="M70.36,26.62H69c-2.72,0-5.47.09-5.85.18l-.13,0-.07,0-.06,0c-.17,0-.17-.06-.19-.18a12.12,12.12,0,0,1-.17-1.84,35.1,35.1,0,0,0,4,.15c3.88,0,4.19,0,5.66-.08,0,1.44,0,2.27,0,4.72,0,.86,0,3.47.07,4a2.71,2.71,0,0,1,0,.31q0,.29-.15.36a8,8,0,0,1-1.14.09c-.6,0-.6,0-.6-.36,0-.06,0-.06,0-.65H68.88c-1.63,0-4.6.06-5.18.09-.35,0-.56,0-.84.09h-.14c-.16,0-.22-.06-.26-.37a12.48,12.48,0,0,1-.15-1.62c1,.09,2,.12,4.31.12h3.74Z"/><path class="cls-1" d="M82.48,28.33c2.72,0,4.27,0,5.77-.14h.19c.45,0,.45,0,.45,1.2,0,.61,0,.71-.3.71h-.06c-1,0-1.52,0-5.81,0-1.57,0-2.36,0-3.72.06h-.43a3.49,3.49,0,0,0-.83.06h-.17a.26.26,0,0,1-.29-.2,9.41,9.41,0,0,1-.15-1.81A51.27,51.27,0,0,0,82.48,28.33Z"/><path class="cls-1" d="M96.32,24.44a.25.25,0,0,1,.18.25.68.68,0,0,1,0,.21,3.84,3.84,0,0,0-.11,1.16c0,3.61-.68,5.93-2.24,7.9-.34.42-.47.55-.62.55a.63.63,0,0,1-.25-.09,4.18,4.18,0,0,0-1.44-.53,7.71,7.71,0,0,0,1.87-2.6,11.33,11.33,0,0,0,.87-4.92,11.53,11.53,0,0,0-.15-2.17A7.45,7.45,0,0,1,96.32,24.44Zm1.59,1.44A12.77,12.77,0,0,0,97.77,24c1.6.06,2.18.18,2.18.47a.72.72,0,0,1-.07.3,1.87,1.87,0,0,0-.11.55c0,.4,0,.4-.07,6.93a13.88,13.88,0,0,0,4.36-3.67,7.57,7.57,0,0,0,.22,1.78.59.59,0,0,1,0,.25c0,.24-.15.44-.83,1.07a13.3,13.3,0,0,1-3.22,2.26,2.57,2.57,0,0,0-.7.46.57.57,0,0,1-.34.15,2.92,2.92,0,0,1-1.1-.73c-.29-.3-.43-.52-.43-.71a.9.9,0,0,1,.06-.26,3.5,3.5,0,0,0,.14-1.36Z"/><rect class="cls-2" y="8.13" width="212.81" height="24.14"/></g></g></svg>