<svg xmlns="http://www.w3.org/2000/svg" viewBox="0 0 225.75 32.44"><defs><style>.cls-1{fill:#222e3d;}.cls-1,.cls-3{fill-rule:evenodd;}.cls-2{isolation:isolate;}.cls-3{fill:#e99024;}.cls-4{fill:#232f3e;}</style></defs><g id="レイヤー_2" data-name="レイヤー 2"><g id="レイヤー_1-2" data-name="レイヤー 1"><g id="形状_4" data-name="形状 4"><g id="形状_4-2" data-name="形状 4"><path class="cls-1" d="M152,14.17a12.19,12.19,0,0,0-6.25-1.34l5.68-8.1a3.45,3.45,0,0,0,.82-1.54V1.1a.61.61,0,0,0-.63-.62h-11a.6.6,0,0,0-.62.62V3.54a.61.61,0,0,0,.63.62h5.72l-6.57,9.43a2.94,2.94,0,0,0-.41,1.68v2.48c0,.36.4.77.78.56a12.65,12.65,0,0,1,11.58,0c.41.22.8-.2.8-.56v-2.6A1.12,1.12,0,0,0,152,14.17Zm-38.1-14a4.73,4.73,0,0,0-4.61,3.16C108.33,1.17,107,.17,104.94.17a4.4,4.4,0,0,0-4.39,3.16h-.06V1.1a.62.62,0,0,0-.6-.57H96.78a.63.63,0,0,0-.64.61v17.1a.62.62,0,0,0,.59.57h3.34a.63.63,0,0,0,.64-.62V9.13c0-2-.09-4.72,2.3-4.72s2,2.81,2,4.72v9.06a.63.63,0,0,0,.6.62H109a.64.64,0,0,0,.65-.62V9.13A10.41,10.41,0,0,1,110,5.85a2.21,2.21,0,0,1,2-1.4,1.74,1.74,0,0,1,2,1.47A22.82,22.82,0,0,1,114,9.13v9.06a.64.64,0,0,0,.6.62h3.33a.63.63,0,0,0,.64-.62V7.4c0-1.84.22-3.92-.84-5.36A4.7,4.7,0,0,0,113.87.17Zm47.78,0c-4.82,0-7.49,4.13-7.49,9.46s2.64,9.54,7.49,9.54c4.67,0,7.62-4.14,7.62-9.36C169.27,4.41,166.6.17,161.65.17Zm0,15.47c-2.61,0-2.58-4.46-2.58-6.55s.16-5.43,2.61-5.43a2.08,2.08,0,0,1,2.18,1.65,15.71,15.71,0,0,1,.5,4.54C164.36,12,164.23,15.64,161.65,15.64ZM184.58,2.18a4.39,4.39,0,0,0-3.89-2c-2.3,0-3.61,1.11-4.54,3.45h-.06V1a.64.64,0,0,0-.6-.48H172.4a.63.63,0,0,0-.64.55V18.19a.63.63,0,0,0,.6.62h3.32a.63.63,0,0,0,.64-.62V9a7.73,7.73,0,0,1,.53-3.24,2.19,2.19,0,0,1,1.93-1.36c2.3,0,2.09,2.73,2.09,4.6v9.29a.62.62,0,0,0,.59.54h3.34a.64.64,0,0,0,.64-.54V7.51C185.45,5.85,185.45,3.55,184.58,2.18ZM136,12.59V7.39c0-2.2.16-4.22-1.46-5.73a7.55,7.55,0,0,0-5-1.66c-3.17,0-6.71,1.18-7.45,5.1a.58.58,0,0,0,.5.7l3.22.35a.69.69,0,0,0,.58-.61,2.55,2.55,0,0,1,2.68-2,2.23,2.23,0,0,1,1.87.87,4.26,4.26,0,0,1,.41,2.42v.43c-1.94.22-4.46.36-6.27,1.15a5.66,5.66,0,0,0-3.55,5.45c0,3.46,2.18,5.19,5,5.19A6.6,6.6,0,0,0,132,16.62a7.93,7.93,0,0,0,1.91,2.22.68.68,0,0,0,.79-.08h0c.67-.59,1.88-1.64,2.56-2.21.27-.22.22-.58,0-.89A4.53,4.53,0,0,1,136,12.59Zm-5.3,1.58a2.7,2.7,0,0,1-2.3,1.52c-1.28,0-2-1-2-2.42,0-2.83,2.55-3.35,5-3.35v.72A6.47,6.47,0,0,1,130.66,14.17ZM92.28,12.59V7.39c0-2.2.16-4.22-1.46-5.73A7.55,7.55,0,0,0,85.8,0c-3.17,0-6.71,1.18-7.45,5.1a.58.58,0,0,0,.49.7l3.23.35a.7.7,0,0,0,.58-.61,2.55,2.55,0,0,1,2.68-2,2.23,2.23,0,0,1,1.87.87,4.26,4.26,0,0,1,.41,2.42v.43c-1.94.22-4.46.36-6.27,1.15a5.66,5.66,0,0,0-3.55,5.45c0,3.46,2.18,5.19,5,5.19a6.62,6.62,0,0,0,5.5-2.42,7.93,7.93,0,0,0,1.91,2.22.68.68,0,0,0,.79-.08h0c.67-.59,1.88-1.64,2.56-2.21.27-.22.22-.58,0-.89A4.53,4.53,0,0,1,92.28,12.59ZM87,14.17a2.7,2.7,0,0,1-2.3,1.52c-1.28,0-2-1-2-2.42,0-2.83,2.55-3.35,5-3.35v.72A6.47,6.47,0,0,1,87,14.17Z"/></g></g><g id="形状_4-3" data-name="形状 4" class="cls-2"><g id="形状_4-4" data-name="形状 4"><path class="cls-3" d="M143.67,23.91a56.12,56.12,0,0,1-21.57,4.41,56.78,56.78,0,0,1-28.27-7.5c-.71-.41-1.23.32-.64.84a41.83,41.83,0,0,0,28.26,10.78c7.8,0,16.87-2.45,23.13-7.07C145.61,24.61,144.73,23.46,143.67,23.91Zm6.18-3.55c-.68-.84-6.55-1.56-10.13.95-.55.39-.45.92.16.85,2-.24,6.5-.78,7.3.24s-.89,5.25-1.64,7.13c-.23.57.26.8.78.37C149.67,27.09,150.54,21.21,149.85,20.36Z"/></g></g><path class="cls-4" d="M6.36,15.56a18,18,0,0,0,4.47-.6.47.47,0,0,1,.19,0c.1,0,.15.07.18.22a12,12,0,0,1,.09,1.48c0,.34,0,.44-.19.51a17.11,17.11,0,0,1-4.78.53c-2.56,0-4-.44-5.2-1.53A3.86,3.86,0,0,1,0,14.32c0-.26.15-.38,1.55-1.16C2.16,14.85,3.57,15.56,6.36,15.56Zm.15-9.79a15.85,15.85,0,0,0,2.72-.21h.12a.2.2,0,0,1,.22.16A10.68,10.68,0,0,1,9.64,7c0,.39,0,.53-.14.6a15.72,15.72,0,0,1-2.75.19,20.44,20.44,0,0,1-4.18-.4c-1-.18-1-.22-1-.83,0-.37,0-1,.08-1.49A17,17,0,0,0,6.51,5.77Zm5,.88a.19.19,0,0,1-.19-.13A7.84,7.84,0,0,0,10,4.78c-.05,0-.07-.08-.07-.13A1.83,1.83,0,0,1,10.76,4c.12,0,.32.15.75.61a4.51,4.51,0,0,1,1,1.26A2,2,0,0,1,11.49,6.65Zm1.75-3.19a3.8,3.8,0,0,1,.9,1.22c0,.1-.05.15-.32.37s-.53.38-.63.38-.1,0-.17-.17a9.57,9.57,0,0,0-1.31-1.62.19.19,0,0,1-.08-.13c0-.16.66-.63.88-.63S12.88,3.07,13.24,3.46Z"/><path class="cls-4" d="M19.7,15.42a9.66,9.66,0,0,1-1.56,3.32,6.2,6.2,0,0,0-1.33-.95,8,8,0,0,0,1.5-3.06Zm-1.09-.74c-.54,0-.87,0-1.15,0,0-.49.05-1.12.05-1.72V5.9a15.17,15.17,0,0,0-.07-1.63,12.78,12.78,0,0,0,1.36.05h1.92A10.69,10.69,0,0,0,22,4.27c0,.34,0,.68,0,1.48V13.2a12.22,12.22,0,0,0,0,1.51c-.31,0-.58,0-1.12,0ZM19,7.32H20.5V5.84H19Zm0,2.83H20.5V8.71H19Zm0,3H20.5v-1.6H19Zm2.19,1.6a9.94,9.94,0,0,0,1.38,2.72,4.56,4.56,0,0,0-1.29.88,14.81,14.81,0,0,1-1.35-3Zm2.5-4.64a8.51,8.51,0,0,0-1.34.07V8.78a9.55,9.55,0,0,0,1.34.06h.78V8.08H24a11.17,11.17,0,0,0-1.14.05V6.86H23c.2,0,.2,0,1,0h.46V6.18h-.73a8.8,8.8,0,0,0-1.21.06V4.85a6.2,6.2,0,0,0,1.26.09h.68a4.87,4.87,0,0,0-.08-1.13h1.76A3.79,3.79,0,0,0,26,4.94h1.89a3.39,3.39,0,0,0-.1-1.13h1.78a5,5,0,0,0-.1,1.13h1a7.33,7.33,0,0,0,1.19-.07V6.24a8.76,8.76,0,0,0-1.19-.06h-1v.73h.7a11.17,11.17,0,0,0,1.12,0V8.13a11.32,11.32,0,0,0-1.16-.05h-.66v.76h1.05a8.21,8.21,0,0,0,1.31-.06v1.43a7.49,7.49,0,0,0-1.31-.07H27.71v.71h1.87a12.64,12.64,0,0,0,1.51-.07A11.37,11.37,0,0,0,31,12.16v2.6a5.37,5.37,0,0,0,.87-.08v1.46a5.49,5.49,0,0,0-.87-.07v1.1c0,1.26-.36,1.55-1.85,1.55l-1.45,0a3.78,3.78,0,0,0-.29-1.46c.55.06,1,.11,1.36.11.55,0,.67-.06.67-.39v-.88H24.61v.73a18.83,18.83,0,0,0,.07,2H23a14.68,14.68,0,0,0,.09-2v-.73a5.53,5.53,0,0,0-.94.07V14.69c.31,0,.51.05.94.07V12.3c0-.65,0-1.06-.05-1.5.39,0,.81,0,1.53,0h1.65v-.71Zm2.52,1.95H24.61v.77h1.57Zm0,1.89H24.61v.78h1.57ZM26,6.91h1.89V6.18H26Zm0,1.93h1.89V8.08H26Zm3.44,4v-.77H27.71v.77Zm0,1.9V14H27.71v.78Z"/><path class="cls-4" d="M39.46,6.23c-.46,0-.92,0-1.57.08V4.36a9.52,9.52,0,0,0,1.53.08H42a8.66,8.66,0,0,0,1.49-.08,7.43,7.43,0,0,0-.07,1,12.67,12.67,0,0,0,1.75,6.45A13.91,13.91,0,0,0,47.8,15a12.43,12.43,0,0,0,2.44,1.75,6.22,6.22,0,0,0-1.38,1.86,17.07,17.07,0,0,1-4-3.85,14.3,14.3,0,0,1-1.42-2.41A12.57,12.57,0,0,1,42.6,10a13.36,13.36,0,0,1-2.33,4.93,15.68,15.68,0,0,1-4,3.69,4.8,4.8,0,0,0-1.34-1.7,12.87,12.87,0,0,0,3.28-2.57A12.19,12.19,0,0,0,41,9.53a13.48,13.48,0,0,0,.53-3.3Z"/><path class="cls-4" d="M57.26,14.15a.3.3,0,0,1,.07.19c0,.1,0,.1-.29.88a12.18,12.18,0,0,0-.65,2.55c0,.22-.08.31-.31.36a5.4,5.4,0,0,1-1.13.1c-.17,0-.26,0-.31-.14a12.58,12.58,0,0,1-.56-2.45,16.7,16.7,0,0,1-.17-2.49A37.7,37.7,0,0,1,54.74,6a12.9,12.9,0,0,0,.19-1.33,6,6,0,0,1,1.82.49c.25.14.35.26.35.41A.58.58,0,0,1,57,5.9c-.7,1.19-1.35,4.87-1.35,7.59,0,.4,0,1,.07,1.87.41-1.06.6-1.53,1-2.35A2.81,2.81,0,0,0,57.26,14.15Zm2.85-4.47c-.81,0-1,0-1-.22A5.38,5.38,0,0,1,59,8.37c0-.14,0-.27,0-.58a12.64,12.64,0,0,0,1.29,0c.92,0,1.5,0,2.38-.08a13,13,0,0,0-.2-3.23,8.87,8.87,0,0,1,2,.22c.26.07.36.15.36.32a.77.77,0,0,1-.07.26,6.9,6.9,0,0,0-.29,2.24,20.48,20.48,0,0,0,2.2-.44.31.31,0,0,1,.17,0c.1,0,.15.06.18.17a8,8,0,0,1,.09,1.16c0,.42,0,.49-.19.56a11,11,0,0,1-2.46.44c0,1.18.1,3.11.22,4.22A13.09,13.09,0,0,1,67.22,15c.47.34.58.45.58.57a3.67,3.67,0,0,1-.67,1.26c-.2.29-.3.38-.42.38s-.12,0-.51-.38a9.62,9.62,0,0,0-1.51-1.15v.13c0,1.5-1.24,2.48-3.13,2.48s-3.18-1-3.18-2.55a2.79,2.79,0,0,1,3-2.67,8.2,8.2,0,0,1,1.41.09c-.07-1.33-.07-1.33-.12-3.6C62,9.63,60.79,9.68,60.11,9.68Zm1.4,5c-.85,0-1.41.39-1.41,1s.52.89,1.34.89,1.38-.41,1.38-1.19c0-.24,0-.43,0-.43A3.4,3.4,0,0,0,61.51,14.68Z"/><path class="cls-4" d="M197.13,10.05a1.83,1.83,0,0,0-.31.12.36.36,0,0,1-.22.07c-.35,0-.63-.66-.83-1.92a2.21,2.21,0,0,0,.32,0,24,24,0,0,0,3.62-.45,15.79,15.79,0,0,0,.55-3.43,1.8,1.8,0,0,0,0-.29,8.13,8.13,0,0,1,1.9.43c.28.1.41.25.41.42a.39.39,0,0,1-.1.27,9,9,0,0,0-.78,2.33,10.77,10.77,0,0,1,1.15-.08,2.86,2.86,0,0,1,1.64.4c.68.5,1,1.5,1,3.05,0,2.53-.46,4.69-1.24,5.76a2.58,2.58,0,0,1-2.26,1.1,3.84,3.84,0,0,1-1.37-.18c-.13-.09-.13-.09-.18-.72a4.5,4.5,0,0,0-.36-1.32,4.3,4.3,0,0,0,1.65.34c.82,0,1.16-.39,1.53-1.75a12.93,12.93,0,0,0,.39-3.32c0-1.32-.32-1.8-1.22-1.8a7.53,7.53,0,0,0-1.19.1c0,.19-.07.21-.14.44a39.8,39.8,0,0,1-2.21,5.87c-.9,1.85-1.12,2.23-1.34,2.23a3.59,3.59,0,0,1-1.09-.57c-.39-.23-.49-.33-.49-.47s0-.09.69-1.19a25.38,25.38,0,0,0,2.59-5.95C198,9.83,197.28,10,197.13,10.05Zm8.67-1.9c0-.12.15-.27.65-.66.34-.26.51-.36.62-.36s.19,0,.41.27A12.82,12.82,0,0,1,210,10.78a3.16,3.16,0,0,1,.28.72c0,.17-.05.22-.6.66a2.32,2.32,0,0,1-.87.49c-.11,0-.17-.05-.29-.34a12.09,12.09,0,0,0-1.07-2.1,9.66,9.66,0,0,0-1.53-1.86A.4.4,0,0,1,205.8,8.15Z"/><path class="cls-4" d="M221.91,10.09c2.33,0,3.84,1.37,3.84,3.46s-1.27,3.42-3.82,4.24a13.69,13.69,0,0,1-3.11.56c-.36,0-.44-.09-.68-.58a2.34,2.34,0,0,0-.9-1c4.26-.34,6.37-1.42,6.37-3.28,0-1-.73-1.65-2-1.65a6.26,6.26,0,0,0-4.46,2.21,4.41,4.41,0,0,0-.61.79c-.15.25-.25.34-.41.34a2.93,2.93,0,0,1-1.25-.56.58.58,0,0,1-.28-.55,3.47,3.47,0,0,1,0-.54,3.25,3.25,0,0,1,0-.36c.09-1.09.14-1.55.34-3.08,0-.18,0-.18.15-1,0,0,.06-.38.14-1a4,4,0,0,0,0-.57,6.52,6.52,0,0,1,1.91.5c.13.07.2.15.19.25s0,.12-.09.22A2.72,2.72,0,0,0,217,9.61a26.37,26.37,0,0,0-.43,2.7A7.25,7.25,0,0,1,221.91,10.09Zm-.3-4.85c.66.39.86.58.86.77a3.54,3.54,0,0,1-.56,1.08c-.27.4-.37.48-.51.48s-.13,0-.34-.19a11.05,11.05,0,0,0-3.31-1.8c-.26-.1-.31-.13-.31-.27a2.08,2.08,0,0,1,.44-.9c.28-.41.39-.51.58-.51A11.79,11.79,0,0,1,221.61,5.24Z"/></g></g></svg>