<svg xmlns="http://www.w3.org/2000/svg" viewBox="0 0 212.81 36.02"><defs><style>.cls-1{fill:#040000;}.cls-2{fill:none;}</style></defs><g id="レイヤー_2" data-name="レイヤー 2"><g id="レイヤー_1-2" data-name="レイヤー 1"><path class="cls-1" d="M5.07,3.71c-.68,0-1.32.06-1.88.06s-.67,0-.7-.09A6.24,6.24,0,0,1,2.4,2.54V2.25c.7,0,1,0,1.37,0l1.38,0c.07-.86.09-1.16.09-1.45a3.56,3.56,0,0,0,0-.43A8.19,8.19,0,0,1,6.91.55c.12,0,.18.09.18.19A.78.78,0,0,1,7,1.05a4.46,4.46,0,0,0-.27,1.13,20.81,20.81,0,0,0,2.55-.33,7.47,7.47,0,0,1,.84-.16,1.4,1.4,0,0,0,.62-.16,0,0,0,0,1,0,0l.07,0c.06,0,.11.06.14.16s.07.74.07,1.07-.05.28-.19.31c-.88.18-2.69.4-4.24.53a.66.66,0,0,0,0,.24,8.77,8.77,0,0,0,0,1,8.76,8.76,0,0,1,2-.22,5,5,0,0,0,.15-.93c1.14.23,1.71.44,1.71.62s0,.1-.14.3a.59.59,0,0,0-.1.21,3.74,3.74,0,0,1,3.13,3.67,4.22,4.22,0,0,1-2.55,3.8A5.59,5.59,0,0,1,8.88,13a.45.45,0,0,1-.37-.17,4.4,4.4,0,0,0-1-1.06,6,6,0,0,0,3.05-1.2,2.58,2.58,0,0,0,1-2.08A2.41,2.41,0,0,0,9.7,6a11.85,11.85,0,0,1-2.55,4.1,4.41,4.41,0,0,0,.27.72.65.65,0,0,1,.07.2c0,.15-.06.2-.4.38a3.13,3.13,0,0,1-1,.34c-.13,0-.16,0-.33-.51a4.67,4.67,0,0,1-2.68.94,1.78,1.78,0,0,1-1.69-2C1.44,8.35,2.79,6.54,5,5.43,5,4.66,5.06,4,5.07,3.71ZM3,9.94a.54.54,0,0,0,.59.59,3.39,3.39,0,0,0,1.84-.77A20.15,20.15,0,0,1,5,7,4.3,4.3,0,0,0,3,9.94Zm5.19-4.1a5.83,5.83,0,0,0-1.63.33,14.83,14.83,0,0,0,.18,2.25A9.17,9.17,0,0,0,8.17,5.84Z"/><path class="cls-1" d="M21.86,5.61c0-.73,0-.73-.05-1.65h-.32a15.05,15.05,0,0,1-2.76-.23c-.15-.05-.18-.08-.18-.22a7,7,0,0,1,.15-1.31,15.33,15.33,0,0,0,2.74.27,2.85,2.85,0,0,0,.37,0v-1c0-.52,0-.75,0-1.27a9.11,9.11,0,0,1,1.6.18c.3.06.39.13.39.29s0,.11-.12.34-.12.31-.18,1.34a13.54,13.54,0,0,0,2.3-.46l.07,0c.11,0,.11,0,.27.49a4.65,4.65,0,0,1,.21.82c0,.1,0,.16-.2.21a19.22,19.22,0,0,1-2.69.49c0,1.05,0,1.09,0,1.61a10.57,10.57,0,0,0,2.77-.71.41.41,0,0,1,.15,0c.09,0,.12,0,.27.4a3.79,3.79,0,0,1,.28.93c0,.08-.06.13-.16.18A17.42,17.42,0,0,1,23.5,7c0,.56.06.87.15,2a8.22,8.22,0,0,1,1.81.72,8.73,8.73,0,0,1,1.74,1.12.31.31,0,0,1,.16.28A2.63,2.63,0,0,1,27,12c-.33.49-.49.68-.6.68a.16.16,0,0,1-.13-.06,8.91,8.91,0,0,0-2.46-1.75,2,2,0,0,1-.63,1.49,3.46,3.46,0,0,1-2.4.75c-1.82,0-2.95-.8-2.95-2.09a2,2,0,0,1,.64-1.48A3.66,3.66,0,0,1,21,8.69a7.4,7.4,0,0,1,1,.08c-.07-1-.1-1.31-.12-1.62h-.71a12,12,0,0,1-3-.37c-.14,0-.2-.12-.2-.23a8.57,8.57,0,0,1,.22-1.31,14.41,14.41,0,0,0,3.19.36h.43Zm-1,4.52c-.95,0-1.46.28-1.46.79s.43.68,1.26.68S22,11.26,22,10.52v-.26A4.35,4.35,0,0,0,20.83,10.13Z"/><path class="cls-1" d="M37.48.71a6.76,6.76,0,0,0,.54,2,18,18,0,0,0,3.36-1.18.71.71,0,0,1,.18-.05c.15,0,.25.27.48,1.23a.57.57,0,0,0,0,.15.18.18,0,0,1,0,.06c0,.11-.06.16-.21.22a20.57,20.57,0,0,1-3.2,1,8.6,8.6,0,0,0,2.94,3.31.2.2,0,0,1,.11.18,4,4,0,0,1-.57,1.23c-.14.19-.23.27-.36.27s-.13,0-.33-.17a6.49,6.49,0,0,0-1.58-.71A6.7,6.7,0,0,0,37,8c-1.75,0-2.64.49-2.64,1.44a1.3,1.3,0,0,0,.89,1.2,8.82,8.82,0,0,0,3.47.53,7.79,7.79,0,0,0,1.18-.07,7.85,7.85,0,0,0-.59,1.57c-.07.22-.19.28-.59.28a15,15,0,0,1-3-.31c-2-.49-3.1-1.6-3.1-3.08a2.78,2.78,0,0,1,.77-1.92,4.52,4.52,0,0,1,3.19-1,5.58,5.58,0,0,1,2.3.41,9.82,9.82,0,0,1-1.81-2.52c-.9.16-1.66.27-2.53.36-.52,0-1.67.11-1.89.11s-.26,0-.34-.29a9.15,9.15,0,0,1-.24-1.41l1,0A25.73,25.73,0,0,0,36.37,3c-.13-.3-.39-.93-.53-1.33A5.94,5.94,0,0,0,35.3.49,13.09,13.09,0,0,1,37.1.3c.28,0,.38.07.38.25Z"/><path class="cls-1" d="M47.48,1V.82a6.1,6.1,0,0,1,1.8.49.18.18,0,0,1,.13.2.51.51,0,0,1-.09.24,5.21,5.21,0,0,0-.4,1.39,19.94,19.94,0,0,0-.43,4.26,15.72,15.72,0,0,0,.12,2.08l.78-1.59a2,2,0,0,0,.39.77c.12.15.13.19.13.31s0,.12-.28.74a8.76,8.76,0,0,0-.65,2c0,.23-.09.31-.16.34a3.42,3.42,0,0,1-.92.13c-.21,0-.29,0-.33-.18a16.73,16.73,0,0,1-.65-4.56,36.68,36.68,0,0,1,.43-4.9,9.91,9.91,0,0,0,.13-1.36Zm5.06,4.2c-.83,0-1.07,0-1.14-.13a3.18,3.18,0,0,1-.2-1.29V3.57A16.45,16.45,0,0,0,53,3.66c.58,0,.9,0,1.5-.06A11,11,0,0,0,54.21.67h.4A7.79,7.79,0,0,1,56.1.79c.15,0,.22.12.22.23a.84.84,0,0,1,0,.23,2.72,2.72,0,0,0-.12.92c0,.22,0,.91,0,1.09v.15A9.06,9.06,0,0,0,57.89,3a1.13,1.13,0,0,1,.18,0c.09,0,.13,0,.16.14a4.85,4.85,0,0,1,.12,1.06c0,.24,0,.34-.16.39a16.42,16.42,0,0,1-2,.37c0,.41,0,.64,0,.87a10.91,10.91,0,0,1-.86,4.91C54.84,11.78,53.68,13,53.21,13c-.14,0-.2,0-.36-.18a3.56,3.56,0,0,0-1.16-.77A5.09,5.09,0,0,0,53.86,10a7.53,7.53,0,0,0,.75-3.51c0-.11,0-.36,0-.72,0-.14,0-.37,0-.66C54,5.16,52.83,5.22,52.54,5.22Z"/><path class="cls-1" d="M63.49,4.32A12.28,12.28,0,0,1,63,6.41a4.21,4.21,0,0,0-1.23-.63,13.26,13.26,0,0,0,.71-4.24c0-.1,0-.19,0-.35l1.39.16a3.23,3.23,0,0,0-.09.74s0,.36-.07.79h.65V1.2A7.22,7.22,0,0,0,64.23,0h1.68a6.87,6.87,0,0,0-.09,1.17V2.88h.12a5.75,5.75,0,0,0,1.14-.08V4.29c.48,0,.79.06,1.31.06H70V3H68.82A12.13,12.13,0,0,0,67.35,3V1.47a8.74,8.74,0,0,0,1.47.09H70V1.11A8.87,8.87,0,0,0,69.93,0h1.64A7.94,7.94,0,0,0,71.5,1.1v.46h1.56a8.94,8.94,0,0,0,1.48-.09V3A12.31,12.31,0,0,0,73.06,3H71.5v1.4h1.93A10.4,10.4,0,0,0,75,4.26V5.8a13.21,13.21,0,0,0-1.48-.08h-.09V6.91h.13A8.4,8.4,0,0,0,75,6.84V8.41a9.49,9.49,0,0,0-1.4-.09h-.13v3.41c0,1.06-.46,1.34-2.11,1.34l-1.21,0a4.07,4.07,0,0,0-.37-1.56,13.87,13.87,0,0,0,1.67.15c.45,0,.53-.08.53-.45V8.32H68.24a8.19,8.19,0,0,0-1.38.09V7.76c-.36.16-.73.32-1,.44v3.4a13.79,13.79,0,0,0,.09,1.65H64.23a13.25,13.25,0,0,0,.09-1.65V8.77l-.95.34a10.51,10.51,0,0,0-1.08.41l-.36-1.61a16,16,0,0,0,2.39-.66V4.32Zm2.33,2.41c.52-.19.71-.26,1.25-.49v.63c.35,0,.75,0,1.36,0H72V5.72H68.39a11.19,11.19,0,0,0-1.61.08V4.35a6.28,6.28,0,0,0-.72,0h-.24Zm2.83,1.66a12.3,12.3,0,0,1,1.87,2.19l-1.24.93a11.23,11.23,0,0,0-1.81-2.34Z"/><path class="cls-1" d="M81.47,6.72a14.43,14.43,0,0,1-2.08,1.81,4,4,0,0,0-1-1.4,12.22,12.22,0,0,0,2.4-1.94A8.91,8.91,0,0,0,82.52,3h-2a13.39,13.39,0,0,0-1.7.09V1.45a13.5,13.5,0,0,0,1.7.09h2.69A6.69,6.69,0,0,0,83.62,0l1.77.21c-.09.21-.12.28-.3.8,0,.1-.07.19-.21.53H90a12.89,12.89,0,0,0,1.67-.09V3A12.89,12.89,0,0,0,90,3H84.24c-.25.49-.43.77-.69,1.2H88.4a11.68,11.68,0,0,0,1.5-.06,14.29,14.29,0,0,0-.06,1.62v6a1.22,1.22,0,0,1-.55,1.15,3.51,3.51,0,0,1-1.66.24c-.36,0-.45,0-1.31,0a4.29,4.29,0,0,0-.37-1.5,12.57,12.57,0,0,0,1.66.13c.61,0,.7-.06.7-.41V10.14H83v1.22a14.81,14.81,0,0,0,.07,1.78H81.38a15.21,15.21,0,0,0,.09-1.79Zm6.84-1.2H83v1h5.31ZM83,7.82V8.88h5.31V7.82Z"/><path class="cls-1" d="M99.9,9.6a3.29,3.29,0,0,1-2.7,1.91c-1.54,0-2.64-1.51-2.64-3.62a6,6,0,0,1,3.22-5.43,7,7,0,0,1,3.47-.77,5.14,5.14,0,0,1,5.4,5.13,5.63,5.63,0,0,1-3.74,5.52,3.51,3.51,0,0,1-1.06.33c-.18,0-.26-.06-.45-.34a3.09,3.09,0,0,0-.93-.94c3-.79,4.43-2.22,4.43-4.63a3.47,3.47,0,0,0-1.44-2.92,3.88,3.88,0,0,0-1.75-.64A16,16,0,0,1,99.9,9.6ZM97.77,4.35a4.58,4.58,0,0,0-1.56,3.51c0,1.14.37,1.81,1,1.81s1.5-1,2.07-2.79a19,19,0,0,0,.75-3.6A4.2,4.2,0,0,0,97.77,4.35Z"/><path class="cls-1" d="M9.85,24.66A12.82,12.82,0,0,0,9.76,23h1.78a13.74,13.74,0,0,0-.09,1.64v.59H12a17.12,17.12,0,0,0,1.78-.08v1.67A15.45,15.45,0,0,0,12,26.75h-.59v7.34a16.46,16.46,0,0,0,.09,1.81H9.85v-.8H4.91v.8H3.23a15.33,15.33,0,0,0,.09-1.79V26.75H2.73A14.31,14.31,0,0,0,1,26.84V25.17a16.57,16.57,0,0,0,1.72.08h.59v-.62A12.87,12.87,0,0,0,3.23,23H5a12.87,12.87,0,0,0-.09,1.61v.62H9.85ZM4.91,26.75v2.52H9.85V26.75Zm0,4V33.6H9.85V30.73Z"/><path class="cls-1" d="M23.54,23.53a6.8,6.8,0,0,0,.54,2,19,19,0,0,0,3.36-1.19l.18,0c.15,0,.25.26.48,1.23a.49.49,0,0,0,0,.14.18.18,0,0,1,0,.06c0,.11-.06.17-.21.23a23,23,0,0,1-3.2,1,8.64,8.64,0,0,0,2.94,3.3.24.24,0,0,1,.12.18,4,4,0,0,1-.58,1.23c-.14.19-.23.27-.36.27s-.13,0-.33-.16a6.13,6.13,0,0,0-1.58-.72,7.08,7.08,0,0,0-1.9-.25c-1.75,0-2.64.49-2.64,1.44a1.3,1.3,0,0,0,.89,1.2,8.82,8.82,0,0,0,3.47.54A7.93,7.93,0,0,0,26,33.93a7.16,7.16,0,0,0-.6,1.57c-.07.23-.19.29-.59.29a14.92,14.92,0,0,1-3-.32c-2-.49-3.1-1.6-3.1-3.08a2.76,2.76,0,0,1,.78-1.91,4.43,4.43,0,0,1,3.18-1,5.58,5.58,0,0,1,2.3.41,9.82,9.82,0,0,1-1.81-2.52c-.9.16-1.66.27-2.53.36-.52,0-1.66.12-1.89.12s-.26,0-.34-.3a8.28,8.28,0,0,1-.23-1.41l1,0a25.73,25.73,0,0,0,3.32-.27c-.13-.29-.38-.93-.53-1.33a6.21,6.21,0,0,0-.54-1.22,13.09,13.09,0,0,1,1.8-.19c.28,0,.38.07.38.25Z"/><path class="cls-1" d="M33.25,28.74a1.28,1.28,0,0,0-.26.1.29.29,0,0,1-.18.06c-.33,0-.57-.56-.74-1.66h.28a22.5,22.5,0,0,0,3.16-.38,13.94,13.94,0,0,0,.47-3c0-.06,0-.15,0-.26a6.2,6.2,0,0,1,1.66.37c.24.09.35.21.35.36a.44.44,0,0,1-.08.25,6.75,6.75,0,0,0-.69,2c.36,0,.76-.08,1-.08a2.48,2.48,0,0,1,1.43.36,3.15,3.15,0,0,1,.89,2.66,9.44,9.44,0,0,1-1.09,5,2.24,2.24,0,0,1-2,1,3.29,3.29,0,0,1-1.19-.16c-.12-.07-.12-.07-.16-.62a3.83,3.83,0,0,0-.31-1.18,3.55,3.55,0,0,0,1.44.32c.71,0,1-.34,1.33-1.55a10.61,10.61,0,0,0,.34-2.89c0-1.15-.28-1.57-1.06-1.57a8.28,8.28,0,0,0-1,.09c0,.18-.06.19-.12.38a34,34,0,0,1-1.93,5.12c-.78,1.62-1,1.94-1.17,1.94a3.18,3.18,0,0,1-1-.48c-.34-.21-.43-.3-.43-.42s0-.08.61-1a22,22,0,0,0,2.25-5.19Zm9.32-3a1,1,0,0,1-.48.25.17.17,0,0,1-.13-.1,7.09,7.09,0,0,0-1.26-1.46.12.12,0,0,1-.05-.08c0-.06.11-.17.36-.36s.33-.22.43-.22A4.85,4.85,0,0,1,43,25.28C43,25.37,42.86,25.48,42.57,25.7ZM41,27.27c0-.1.13-.24.56-.58s.44-.31.56-.31.86.71,1.49,1.59A7.55,7.55,0,0,1,44.69,30c0,.14,0,.19-.52.57a2,2,0,0,1-.76.43c-.1,0-.15,0-.25-.29a10.24,10.24,0,0,0-.93-1.84,6.63,6.63,0,0,0-1.15-1.44A.31.31,0,0,1,41,27.27Zm1.94-4.55a4.37,4.37,0,0,1,1.51,1.51c0,.08-.09.16-.38.37s-.4.28-.46.28-.08,0-.38-.41a7.37,7.37,0,0,0-1-1.07s-.07-.07-.07-.12A1.61,1.61,0,0,1,42.94,22.72Z"/><path class="cls-1" d="M51.66,23.79a4.93,4.93,0,0,0-.06-.88h1.6a6.13,6.13,0,0,0-.06.89v.37h3V23.8a8.3,8.3,0,0,0-.06-.89H57.7a4.85,4.85,0,0,0-.06.89v.37h1.84a12,12,0,0,0,1.66-.09V25.7a12.55,12.55,0,0,0-1.66-.07H57.64v.31a3.48,3.48,0,0,0,.06.77H56.11a6.34,6.34,0,0,0,0-.74v-.34h-3V26a5.63,5.63,0,0,0,0,.77H51.6a5.84,5.84,0,0,0,.06-.75v-.34H50a12.46,12.46,0,0,0-1.66.07V24.08a12.4,12.4,0,0,0,1.66.09h1.69Zm6.73,6.88a11.49,11.49,0,0,0,1.2-.05,9.45,9.45,0,0,0-.07,1.31v2.61A10.18,10.18,0,0,0,59.61,36H58v-.69H51.51V36h-1.6A10.68,10.68,0,0,0,50,34.54V31.93a8.27,8.27,0,0,0-.08-1.31,11.55,11.55,0,0,0,1.19.05h2.73V29.3H50.07a15.55,15.55,0,0,0-1.73.08V27.76a12.94,12.94,0,0,0,1.73.09h3.77v-.62a5.36,5.36,0,0,0-.06-1h1.68a4.56,4.56,0,0,0-.08,1v.62h4a12.7,12.7,0,0,0,1.74-.09v1.62a15.62,15.62,0,0,0-1.74-.08h-4v1.37Zm-6.88,3.2H58V32.09H51.51Z"/><path class="cls-1" d="M70.32,25.21c-1.91.18-2.57.21-4.47.25A6.78,6.78,0,0,0,65.34,24H66a43.21,43.21,0,0,0,6.47-.49,10.55,10.55,0,0,0,2.62-.66l1.16,1.42a38.55,38.55,0,0,1-4.3.79V26.9h3a13.41,13.41,0,0,0,1.77-.09V28.4a17,17,0,0,0-1.75-.07h-3V30h3.63A13,13,0,0,0,77.29,30v1.61a13.32,13.32,0,0,0-1.74-.09H71.92v2.79c0,.64-.19,1.07-.55,1.22a4.49,4.49,0,0,1-1.62.24c-.42,0-1.08,0-1.92-.09a4.71,4.71,0,0,0-.43-1.56,19.57,19.57,0,0,0,2.37.19c.42,0,.55-.1.55-.43V31.48h-4a13.43,13.43,0,0,0-1.74.09V30a13.12,13.12,0,0,0,1.74.08h4V28.33H67.13c-.62,0-1.29,0-1.78.07V26.81a13.41,13.41,0,0,0,1.77.09h3.2Z"/><path class="cls-1" d="M82.35,27.3l-.6.05h-.17c-.12,0-.17,0-.22-.19a8.54,8.54,0,0,1-.19-1.47c.16,0,.59,0,1.12,0,.17,0,1.34-.07,1.86-.12A11.71,11.71,0,0,0,84.49,23c1.53.2,2.08.38,2.08.66,0,.11,0,.14-.24.48a4.81,4.81,0,0,0-.42,1.26,10.52,10.52,0,0,0,1.67-.4.68.68,0,0,1,.22,0c.1,0,.13.08.22.51a5.84,5.84,0,0,1,.12.84c0,.18,0,.21-.43.3s-1.37.27-2.29.39a26.07,26.07,0,0,1-1.6,3.94,21.61,21.61,0,0,1-1.21,2.21c-.12.18-.2.24-.3.24a3,3,0,0,1-1.08-.61c-.24-.16-.3-.24-.3-.34s.06-.19.25-.46a15.46,15.46,0,0,0,1.49-2.43,17.88,17.88,0,0,0,1-2.33C83.08,27.24,83,27.26,82.35,27.3Zm4.88,8.54c-1.61,0-2.71-.88-2.71-2.21a2.47,2.47,0,0,1,2.67-2.38,6.24,6.24,0,0,1,1.13.1c-.06-.71-.06-1-.12-2.37,0-.28,0-.67-.06-1.14a6.59,6.59,0,0,1,1.61.28.23.23,0,0,1,.18.23,1.12,1.12,0,0,1,0,.24,3.8,3.8,0,0,0-.09.94c0,.55,0,1.48.09,2.21A8.67,8.67,0,0,1,92.13,33c.32.25.44.38.44.5s-.07.28-.49.95c-.17.3-.31.43-.41.43s-.09,0-.51-.39A6.33,6.33,0,0,0,90,33.63C90,35,88.94,35.84,87.23,35.84Zm0-3.17c-.71,0-1.2.34-1.2.86s.45.8,1.12.8a1.06,1.06,0,0,0,1.2-1.18c0-.12,0-.24,0-.24A2.54,2.54,0,0,0,87.2,32.67Zm5.55-4.21c-.18.25-.27.33-.37.33s-.13,0-.24-.14a8.71,8.71,0,0,0-1.44-1.08,6,6,0,0,0-1-.52c-.21-.09-.29-.15-.29-.27s.08-.24.3-.58c.36-.52.45-.6.58-.6a7.57,7.57,0,0,1,2.16,1.09c.64.43.84.61.84.77A3.44,3.44,0,0,1,92.75,28.46Z"/><path class="cls-1" d="M103.92,23.07a12.7,12.7,0,0,0-.08,1.47,10.26,10.26,0,0,0,1.39,5.62,9.57,9.57,0,0,0,2.24,2.7,9.9,9.9,0,0,0,2.2,1.53,5.16,5.16,0,0,0-1.1,1.59A14.26,14.26,0,0,1,105,32.63a11.17,11.17,0,0,1-1.89-3.9,10.93,10.93,0,0,1-3.3,5.6A13.11,13.11,0,0,1,97.55,36a4.17,4.17,0,0,0-1.12-1.47,9.41,9.41,0,0,0,3.12-2.39c1.84-2.1,2.61-4.43,2.61-7.84a8.21,8.21,0,0,0-.07-1.21Z"/><path class="cls-1" d="M116.52,31.71a.39.39,0,0,1,.06.2c0,.11,0,.12-.15.45a14.94,14.94,0,0,0-.83,2.55c0,.16-.09.25-.15.28a4.49,4.49,0,0,1-.74.11h-.06l-.3,0c-.19,0-.24,0-.3-.22a19.74,19.74,0,0,1-.5-4.45,22.44,22.44,0,0,1,.52-4.87c.15-.8.22-1.24.28-1.73a7.26,7.26,0,0,1,1.6.47c.25.11.33.18.33.33s0,.15-.18.39a17.43,17.43,0,0,0-1,6.05c0,.34,0,.8.06,1.54.42-.94.56-1.22.91-1.94A4.2,4.2,0,0,0,116.52,31.71Zm3.21,1a4.23,4.23,0,0,0,2,.34,7.48,7.48,0,0,0,2.43-.34.76.76,0,0,1,.21,0c.1,0,.17.06.19.21a12.94,12.94,0,0,1,.13,1.4c0,.14,0,.19-.25.25a10,10,0,0,1-2.61.31A5.4,5.4,0,0,1,119,34.3c-.65-.4-1.33-1.21-1.33-1.61,0-.21.31-.49,1.11-1A2.12,2.12,0,0,0,119.73,32.76Zm-1-7.56a13.58,13.58,0,0,0,2,.13,17,17,0,0,0,2.88-.24h.13c.1,0,.15,0,.18.16a10.57,10.57,0,0,1,.07,1.2c0,.22,0,.3-.21.33a15.5,15.5,0,0,1-2.68.19,12.37,12.37,0,0,1-2.57-.16c-.07-.05-.1-.15-.1-.42a8.38,8.38,0,0,1,.07-1.11c0-.06.06-.09.15-.09A.13.13,0,0,1,118.7,25.2Z"/><path class="cls-1" d="M131.68,27.6a6.33,6.33,0,0,1-2.4-.91c-.27-.17-.32-.25-.32-.38a3.94,3.94,0,0,1,.53-1.29A7.48,7.48,0,0,0,132,26a16.23,16.23,0,0,0,.31-2.87,6.38,6.38,0,0,1,1.79.57c.17.09.22.18.21.29a.75.75,0,0,1-.1.27,6.36,6.36,0,0,0-.55,2H135c.13,0,.18.06.18.25a5.46,5.46,0,0,1-.1,1.29c0,.08-.24.11-.86.11l-.92,0c-.32,1.52-.32,1.52-.45,2.32a6.74,6.74,0,0,0,.86.05l.83,0c.15,0,.22,0,.27.11a3.67,3.67,0,0,1,.1,1.09c0,.27,0,.35-.1.39a4.9,4.9,0,0,1-1,0c-.26,0-.66,0-1.18,0,0,.27,0,.45,0,.56,0,1.37.64,2,2,2,1.55,0,2.49-.75,2.49-2a2.9,2.9,0,0,0-.34-1.34,4.2,4.2,0,0,0-1.29-1.45h.13a7.71,7.71,0,0,0,1.19-.16,1.84,1.84,0,0,1,.4-.06c.22,0,.37.1.66.47a4.06,4.06,0,0,1,1,2.63c0,2.09-1.69,3.47-4.26,3.47-2.4,0-3.6-1.2-3.6-3.63a4.72,4.72,0,0,1,0-.63c-1.47-.31-2.27-1-2.27-2.09a1.73,1.73,0,0,1,.58-1.36.18.18,0,0,1,.16-.08c.09,0,.19.08.53.36s.31.27.31.34,0,.06-.09.19a1.13,1.13,0,0,0-.11.36.51.51,0,0,0,.34.46,2.34,2.34,0,0,0,.74.22Z"/><path class="cls-1" d="M146.37,27.91a16.57,16.57,0,0,1-2.13.13c-.46,0-.54-.19-.64-1.51h.58a19,19,0,0,0,2.19-.13v-.32a13.17,13.17,0,0,0-.21-2.52,9,9,0,0,1,1.89.21.24.24,0,0,1,.2.27.55.55,0,0,1-.08.29,5,5,0,0,0-.23,1.83c.49-.09,1.28-.28,1.87-.46a.26.26,0,0,1,.11,0,.21.21,0,0,1,.22.17A7.06,7.06,0,0,1,150.3,27a.29.29,0,0,1-.19.27c-.18.07-1.26.29-2.21.46V29.6a11.6,11.6,0,0,1,3.59-.73,2.92,2.92,0,0,1,3.13,3.1,3,3,0,0,1-1.37,2.72,3.68,3.68,0,0,1-1.82.43,4.45,4.45,0,0,1-1.51-.16c-.17-.09-.18-.14-.21-.5a3.65,3.65,0,0,0-.3-1.2,4.51,4.51,0,0,0,1.69.32c1.16,0,1.81-.6,1.81-1.65a1.52,1.52,0,0,0-1.61-1.65,9,9,0,0,0-3.4.85c0,.06,0,.06,0,.64,0,1,0,1,0,1.18s0,.54,0,.67c0,1.2-.46,1.78-1.44,1.78a3.25,3.25,0,0,1-2.5-1.28,1.7,1.7,0,0,1-.36-1.06c0-1,.86-1.84,2.73-2.81Zm0,4c-.86.52-1.21.87-1.21,1.18s.48.71.93.71c.21,0,.28-.14.28-.48Zm8.28-3.36a6.93,6.93,0,0,0-2.78-1.78c-.11,0-.17-.11-.17-.18s.14-.33.56-.89c.16-.22.18-.24.33-.24a6.2,6.2,0,0,1,1.09.39c.94.43,2.15,1.35,2.15,1.63s-.74,1.2-1,1.2C154.8,28.65,154.74,28.62,154.65,28.52Z"/><path class="cls-1" d="M160,26c0-.43,0-1-.05-1.33a6.39,6.39,0,0,1,1.59.32c.36.14.47.22.47.39a.53.53,0,0,1-.05.24,6.38,6.38,0,0,0-.26,2.41,13,13,0,0,0,.42,4c.22.7.56,1.1,1,1.1.61,0,1.12-.71,1.66-2.36a4.58,4.58,0,0,0,.8,1.51.53.53,0,0,1,.12.32,2.78,2.78,0,0,1-.52,1.17,2.61,2.61,0,0,1-2.1,1.3c-1.14,0-2-.92-2.54-2.74a17.53,17.53,0,0,1-.5-4.76Zm8.82.24a.39.39,0,0,1,.28.15,9.75,9.75,0,0,1,2,3.05,9.43,9.43,0,0,1,.63,2.15c0,.15-.07.22-.38.39a4.57,4.57,0,0,1-1.22.41c-.13,0-.19-.07-.23-.34a10.46,10.46,0,0,0-.92-2.93A8,8,0,0,0,167.49,27,3.64,3.64,0,0,1,168.78,26.28Z"/><path class="cls-1" d="M178.77,23.56c.37.11.47.18.47.35a.82.82,0,0,1-.09.35,8.59,8.59,0,0,0-.34,2.23c-.12,2.38-.18,4.24-.18,5.71a3.84,3.84,0,0,0,.12,1.06c.16.49.68.75,1.51.75A5.43,5.43,0,0,0,184,32.37a8.77,8.77,0,0,0,1.41-1.72,4.68,4.68,0,0,0,.53,1.46.94.94,0,0,1,.07.34c0,.26-.28.62-1,1.29a7.13,7.13,0,0,1-4.8,2,3.4,3.4,0,0,1-2.5-.82,3.75,3.75,0,0,1-.78-2.83c0-1.15,0-2.05.13-5.5,0-.52,0-.83,0-1a14,14,0,0,0-.1-2.27A9.35,9.35,0,0,1,178.77,23.56Z"/><path class="cls-1" d="M197.21,24.37c0,.13-.06.17-.31.32a1.56,1.56,0,0,0-.37.34c-.92,1.07-2.24,2.51-3.41,3.7a1,1,0,0,0-.36.62c0,.16.12.34.4.59.88.8,2.3,2.26,3.36,3.46.74.83.93,1.1.93,1.24s-.25.42-.86.89a1.25,1.25,0,0,1-.55.33c-.13,0-.19-.06-.34-.3a31.69,31.69,0,0,0-3.38-4.09,8.13,8.13,0,0,1-1-1.11,1.68,1.68,0,0,1-.36-1,1.74,1.74,0,0,1,.27-.9c.16-.27.16-.27,1.07-1.23a25.71,25.71,0,0,0,2.36-2.85,6,6,0,0,0,.77-1.41C196.58,23.61,197.21,24.1,197.21,24.37Z"/><rect class="cls-2" y="8.38" width="212.81" height="24.14"/></g></g></svg>