<svg xmlns="http://www.w3.org/2000/svg" viewBox="0 0 123.82 49.94"><g id="レイヤー_2" data-name="レイヤー 2"><g id="レイヤー_1-2" data-name="レイヤー 1"><path d="M4.85,7a25.16,25.16,0,0,1-3,.19c-.64,0-.74-.27-.89-2.12h.81a25.78,25.78,0,0,0,3.07-.19V4.44A18.34,18.34,0,0,0,4.56.91a13.45,13.45,0,0,1,2.63.29.35.35,0,0,1,.29.38A.84.84,0,0,1,7.36,2a7,7,0,0,0-.31,2.55A26.54,26.54,0,0,0,9.66,3.9a.41.41,0,0,1,.15,0,.29.29,0,0,1,.31.23,9.7,9.7,0,0,1,.23,1.55.4.4,0,0,1-.27.37A30.25,30.25,0,0,1,7,6.68V9.35a16.29,16.29,0,0,1,5-1,4.08,4.08,0,0,1,4.38,4.33,4.21,4.21,0,0,1-1.91,3.8,5.22,5.22,0,0,1-2.55.6,6.11,6.11,0,0,1-2.11-.23c-.23-.12-.25-.19-.29-.68a5.25,5.25,0,0,0-.42-1.68,6.54,6.54,0,0,0,2.37.43c1.61,0,2.53-.83,2.53-2.3a2.13,2.13,0,0,0-2.27-2.3A12.59,12.59,0,0,0,7,11.49c0,.08,0,.08,0,.89C7,13.75,7,13.75,7,14s0,.75,0,.93c0,1.68-.64,2.49-2,2.49a4.59,4.59,0,0,1-3.51-1.78A2.45,2.45,0,0,1,1,14.19c0-1.35,1.21-2.58,3.82-3.92Zm0,5.56c-1.2.72-1.7,1.2-1.7,1.64s.68,1,1.31,1c.29,0,.39-.19.39-.66ZM16.42,7.84a9.71,9.71,0,0,0-3.88-2.49c-.16-.06-.25-.14-.25-.25a4.5,4.5,0,0,1,.79-1.24c.23-.31.25-.33.46-.33a8.49,8.49,0,0,1,1.53.53c1.31.61,3,1.89,3,2.29S17,8,16.73,8C16.63,8,16.55,8,16.42,7.84Z"/><path d="M27.2,12.69a.32.32,0,0,1,.09.23c0,.12,0,.12-.36,1.08a14.72,14.72,0,0,0-.78,3.11c0,.27-.11.37-.38.43a5.68,5.68,0,0,1-1.39.13c-.2,0-.31,0-.37-.17a15.05,15.05,0,0,1-.68-3,20.11,20.11,0,0,1-.21-3,46.28,46.28,0,0,1,1-8.71,13.72,13.72,0,0,0,.23-1.62,7.07,7.07,0,0,1,2.22.6c.31.17.44.31.44.5a.66.66,0,0,1-.15.39c-.85,1.46-1.64,5.94-1.64,9.25,0,.5,0,1.29.09,2.28.49-1.28.72-1.86,1.18-2.86A3.38,3.38,0,0,0,27.2,12.69Zm3.49-5.45c-1,0-1.21,0-1.27-.27a6.77,6.77,0,0,1-.12-1.33c0-.17,0-.33,0-.7.56,0,.89.06,1.58.06,1.12,0,1.82,0,2.9-.11A16,16,0,0,0,33.55,1,11.33,11.33,0,0,1,36,1.22c.31.09.43.19.43.4a.91.91,0,0,1-.08.31A8.17,8.17,0,0,0,36,4.67c.76-.11,1.43-.25,2.67-.54a.49.49,0,0,1,.21,0c.12,0,.19.06.23.2a11.54,11.54,0,0,1,.1,1.41c0,.52,0,.6-.23.69a14.79,14.79,0,0,1-3,.54c0,1.43.12,3.79.27,5.14a16.58,16.58,0,0,1,3.11,1.68c.58.41.7.56.7.7A4.45,4.45,0,0,1,39.25,16c-.25.35-.37.46-.52.46s-.14,0-.62-.46a10.43,10.43,0,0,0-1.84-1.41v.17c0,1.82-1.52,3-3.82,3s-3.88-1.24-3.88-3.11a3.4,3.4,0,0,1,3.67-3.25,10.68,10.68,0,0,1,1.72.1c-.08-1.62-.08-1.62-.14-4.4C32.93,7.18,31.52,7.24,30.69,7.24Zm1.7,6.09c-1,0-1.72.48-1.72,1.21s.64,1.08,1.64,1.08S34,15.12,34,14.16a4.19,4.19,0,0,0,0-.51A4.08,4.08,0,0,0,32.39,13.33Z"/><path d="M53.13,7.3c0,1.56.08,2.36.29,4.44a19.18,19.18,0,0,1,3.79,1.57c1.64.94,2.47,1.56,2.47,1.85a3.57,3.57,0,0,1-.75,1.41c-.31.46-.54.66-.7.66s-.19,0-.33-.18a12.82,12.82,0,0,0-4.4-2.89,3.41,3.41,0,0,1-.87,2.56A5.13,5.13,0,0,1,49,17.84c-2.72,0-4.38-1.21-4.38-3.18s1.83-3.42,4.67-3.42a15.56,15.56,0,0,1,1.8.1c-.2-3.4-.27-5-.29-8.08A24.79,24.79,0,0,0,50.62.35a12.6,12.6,0,0,1,2.47.27c.33.11.45.21.45.44a.9.9,0,0,1-.08.33A10.89,10.89,0,0,0,53.11,5l.81,0a20.45,20.45,0,0,0,4-.75.44.44,0,0,1,.16,0c.13,0,.17,0,.25.25a7.13,7.13,0,0,1,.44,1.87c0,.16-.09.22-.27.29a27.44,27.44,0,0,1-5.06.68h-.29Zm-4.07,6c-1.41,0-2.26.48-2.26,1.27s.71,1.1,2,1.1c1.6,0,2.31-.56,2.31-1.87V13.6A5.78,5.78,0,0,0,49.06,13.27Z"/><path d="M68.35,5.66a12,12,0,0,1,3.21-.48c3,0,4.65,1.75,4.65,4.73a7.53,7.53,0,0,1-3.38,6.35A10.06,10.06,0,0,1,69.2,18c-.27,0-.33-.06-.77-.68a3.87,3.87,0,0,0-1.14-1.14A11.8,11.8,0,0,0,71.75,14a5.16,5.16,0,0,0,1.86-4c0-1.68-.78-2.63-2.17-2.63A11,11,0,0,0,67,8.67a4,4,0,0,0-.77.48.57.57,0,0,1-.25.08c-.39,0-1.06-1.16-1.51-2.72A23.09,23.09,0,0,0,68.35,5.66ZM69.74.6a17.73,17.73,0,0,0,2.88.56c.41,0,.56.06,1.62.11.31,0,.39.08.39.31a7,7,0,0,1-.27,2c0,.12-.14.16-.29.16a23.22,23.22,0,0,1-3.13-.43,13.38,13.38,0,0,1-3.36-1,.32.32,0,0,1-.1-.22A9,9,0,0,1,68.12.44c.1-.17.17-.21.29-.21A6.94,6.94,0,0,1,69.74.6Z"/><path d="M99.85,10.12a27,27,0,0,0-3-.14H85c-1.1,0-2.2.06-3.05.14V7.47A25.83,25.83,0,0,0,85,7.61H96.82a23.54,23.54,0,0,0,3-.14Z"/><path d="M107.87,1.89A13.35,13.35,0,0,0,107.75,0h2.32a12.15,12.15,0,0,0-.13,1.87V3.61h1.25a5.5,5.5,0,0,0,1.14-.08V5.64a8.14,8.14,0,0,0-1.27-.08h-1a10.55,10.55,0,0,0,2.38,3,9.78,9.78,0,0,0-1.06,1.72,18.1,18.1,0,0,1-1.51-2.4c.08,1.06.1,1.6.1,3V16a17.78,17.78,0,0,0,.13,2.3h-2.32a18,18,0,0,0,.12-2.3V11.9c0-.31,0-1.2.12-2.69a17.18,17.18,0,0,1-2.17,4.62,6.38,6.38,0,0,0-1.29-1.7,21.39,21.39,0,0,0,3.09-6.57h-1a5.28,5.28,0,0,0-1.24.1V3.5a4.64,4.64,0,0,0,1.24.11h1.29ZM119,5.27a15.73,15.73,0,0,0,4.85,5.83,11.55,11.55,0,0,0-1.52,2,25.34,25.34,0,0,1-4.21-5.31V16a19.83,19.83,0,0,0,.13,2.32h-2.41a18.63,18.63,0,0,0,.13-2.34V10.87c0-.52,0-1.27.12-2.24a15.72,15.72,0,0,1-4.15,4.68,6.74,6.74,0,0,0-1.32-1.86,15.58,15.58,0,0,0,4.58-5A14.86,14.86,0,0,0,116.71,3h-2.95a20.16,20.16,0,0,0-2.09.1V.87a15,15,0,0,0,2.11.1h7.38a16,16,0,0,0,2.16-.12V3.13A17.66,17.66,0,0,0,121.16,3h-2.22a16.05,16.05,0,0,1-.85,2.11v.79Z"/><path d="M2.47,39.42a15.2,15.2,0,0,0-2.2.13V37.18a15.39,15.39,0,0,0,2.2.13H15.8A15.22,15.22,0,0,0,18,37.18v2.37a15.79,15.79,0,0,0-2.22-.13H12.48v7.26c0,.52.21.6,1.54.6s1.72-.12,1.89-.7a17.49,17.49,0,0,0,.29-2.78,7,7,0,0,0,2.11.7c-.25,2.76-.35,3.3-.74,3.94s-1.37,1-4,1c-1.63,0-2.48-.17-2.94-.56-.29-.25-.39-.58-.39-1.27V39.42H7.4A14.28,14.28,0,0,1,6.24,45.6a8.17,8.17,0,0,1-2.61,3.11,15.71,15.71,0,0,1-2.12,1.23A7.1,7.1,0,0,0,0,48C2.24,47,3.4,46,4.19,44.52a10.76,10.76,0,0,0,.93-5.1Zm13.71-4.68a15.44,15.44,0,0,0-2-.11H4.19a14.73,14.73,0,0,0-2,.11V32.37a13.32,13.32,0,0,0,2.07.13h9.83a13.29,13.29,0,0,0,2.1-.13Z"/><path d="M26.64,35a19.65,19.65,0,0,1-3,3.47,8.48,8.48,0,0,0-1.55-1.56,14.48,14.48,0,0,0,3.6-4.5,3.87,3.87,0,0,0,.44-1.24l2.38.35c-.06.1-.29.56-.7,1.39H37a20.2,20.2,0,0,0,2.48-.12v2.32C38.87,35,38.06,35,37,35Zm6.65,14.36a39.32,39.32,0,0,0-3.44-3.07,26,26,0,0,1-5.76,3.58A7.62,7.62,0,0,0,22.59,48a21.72,21.72,0,0,0,5.52-3,38.77,38.77,0,0,0-3.46-2.26l1.45-1.33a38.66,38.66,0,0,1,3.52,2.2A6.61,6.61,0,0,0,31.34,41l2.14,1c-.21.24-.41.51-.85,1.12a18.26,18.26,0,0,1-1.31,1.65c1.21.92,2.22,1.77,3.47,2.89Zm-7.71-8.57a21.48,21.48,0,0,0-2.28.1V38.8a9.34,9.34,0,0,0,1.72.1H35.14a19.54,19.54,0,0,0,2.3-.08,18.41,18.41,0,0,0-.08,1.85,18.67,18.67,0,0,0,.56,5.08,2.55,2.55,0,0,0,.68,1.35,6.4,6.4,0,0,0,.48-3,6.56,6.56,0,0,0,1.7,1.2c-.31,3.14-.91,4.4-2.14,4.4-.89,0-1.9-1.06-2.46-2.55a18.22,18.22,0,0,1-.92-6.43Zm.48-4.87a13.18,13.18,0,0,0,1.49.06h8.34a16.67,16.67,0,0,0,2.11-.1v2a12.83,12.83,0,0,0-2.11-.11H28a14.16,14.16,0,0,0-1.9.09Z"/><path d="M45.3,35.9c0-.6,0-1.41-.06-1.87a9.08,9.08,0,0,1,2.22.46c.49.18.66.31.66.54a.65.65,0,0,1-.08.33,9.21,9.21,0,0,0-.36,3.38,18.57,18.57,0,0,0,.58,5.58c.32,1,.79,1.53,1.35,1.53.85,0,1.56-1,2.33-3.3a6,6,0,0,0,1.12,2.12.77.77,0,0,1,.16.44,3.91,3.91,0,0,1-.72,1.63,3.65,3.65,0,0,1-3,1.83c-1.6,0-2.8-1.29-3.55-3.84a24.66,24.66,0,0,1-.7-6.66Zm12.34.33a.58.58,0,0,1,.39.21,13.53,13.53,0,0,1,2.8,4.27,12.55,12.55,0,0,1,.89,3c0,.2-.1.31-.54.53a6.52,6.52,0,0,1-1.7.59c-.18,0-.27-.11-.33-.48a14.52,14.52,0,0,0-1.28-4.11,11.13,11.13,0,0,0-2-3A5.11,5.11,0,0,1,57.64,36.23Z"/><path d="M69,39.17a23.53,23.53,0,0,1,5.91-1.05c2.92,0,4.73,1.59,4.73,4.19a5.06,5.06,0,0,1-1.87,4A10.19,10.19,0,0,1,74.12,48a10.91,10.91,0,0,1-2.26.43c-.25,0-.37-.06-.45-.27a4.94,4.94,0,0,0-1.06-1.68c4.56-.47,6.88-1.92,6.88-4.29A2.17,2.17,0,0,0,75,40.07a15.2,15.2,0,0,0-7.26,2.17,1.11,1.11,0,0,1-.41.17c-.35,0-.93-1-1.41-2.53A19.71,19.71,0,0,0,69,39.17Z"/><path d="M88.2,44.28a.3.3,0,0,1,.09.22c0,.13,0,.13-.36,1.08a14.87,14.87,0,0,0-.78,3.11c0,.27-.11.38-.38.44a6.32,6.32,0,0,1-1.39.12c-.2,0-.31,0-.37-.16a15.37,15.37,0,0,1-.68-3,20,20,0,0,1-.21-3.05,46.45,46.45,0,0,1,1-8.71,13.16,13.16,0,0,0,.23-1.62,6.53,6.53,0,0,1,2.22.63c.31.16.44.29.44.49a.78.78,0,0,1-.15.38c-.85,1.45-1.64,5.93-1.64,9.25,0,.49,0,1.28.09,2.28.49-1.29.72-1.87,1.18-2.86A3.38,3.38,0,0,0,88.2,44.28Zm3.49-5.46c-1,0-1.21,0-1.27-.27a6.69,6.69,0,0,1-.12-1.33c0-.16,0-.33,0-.7.56,0,.89.06,1.57.06,1.12,0,1.83,0,2.91-.08a16.24,16.24,0,0,0-.25-4,10.73,10.73,0,0,1,2.45.27c.31.08.43.18.43.39a.78.78,0,0,1-.08.31A8.41,8.41,0,0,0,97,36.25a25.54,25.54,0,0,0,2.67-.52.49.49,0,0,1,.21,0c.12,0,.19.06.23.21a11.23,11.23,0,0,1,.1,1.41c0,.5,0,.6-.23.68a14.7,14.7,0,0,1-3,.52c0,1.43.12,3.8.27,5.14a16.58,16.58,0,0,1,3.11,1.68c.58.44.7.56.7.73a4.57,4.57,0,0,1-.81,1.51c-.25.36-.37.46-.52.46s-.14,0-.62-.46a12.8,12.8,0,0,0-1.84-1.41v.17c0,1.84-1.52,3-3.82,3s-3.88-1.25-3.88-3.11A3.4,3.4,0,0,1,93.24,43a10.68,10.68,0,0,1,1.72.1c-.08-1.61-.08-1.61-.14-4.37C93.93,38.78,92.52,38.82,91.69,38.82Zm1.7,6.1c-1,0-1.72.48-1.72,1.2s.64,1.08,1.63,1.08S95,46.7,95,45.77c0-.31,0-.52,0-.54A4.11,4.11,0,0,0,93.39,44.92Zm9-12.24a2.23,2.23,0,1,1-2.22-2.22A2.2,2.2,0,0,1,102.39,32.68Zm-3.34,0a1.11,1.11,0,0,0,1.1,1.1,1.1,1.1,0,1,0,0-2.2A1.11,1.11,0,0,0,99.05,32.68Z"/><path d="M106.39,35.9c0-.6,0-1.41-.06-1.87a9,9,0,0,1,2.22.46c.5.18.67.31.67.54s0,.12-.09.33a9.28,9.28,0,0,0-.35,3.38,18.57,18.57,0,0,0,.58,5.58c.31,1,.79,1.53,1.35,1.53.85,0,1.55-1,2.32-3.3a6.34,6.34,0,0,0,1.12,2.12.78.78,0,0,1,.17.44,3.83,3.83,0,0,1-.73,1.63,3.63,3.63,0,0,1-2.94,1.83c-1.6,0-2.8-1.29-3.55-3.84a24.2,24.2,0,0,1-.71-6.66Zm12.34.33c.13,0,.23.06.4.21a13.71,13.71,0,0,1,2.8,4.27,13,13,0,0,1,.89,3c0,.2-.1.31-.54.53a6.64,6.64,0,0,1-1.7.59c-.19,0-.27-.11-.33-.48A14.22,14.22,0,0,0,119,40.25a11,11,0,0,0-2-3A5.1,5.1,0,0,1,118.73,36.23Z"/></g></g></svg>