<svg xmlns="http://www.w3.org/2000/svg" viewBox="0 0 88.99 14.76"><defs><style>.cls-1{fill:none;}</style></defs><g id="レイヤー_2" data-name="レイヤー 2"><g id="レイヤー_1-2" data-name="レイヤー 1"><path d="M11.33,7a9.35,9.35,0,0,0,1,1.38,8.55,8.55,0,0,0,2.08-3.84l1.43.62c-.09.18-.09.18-.47,1-.21.47-.28.62-.42.9v5.32A12.06,12.06,0,0,0,15.05,14H13.46a12.26,12.26,0,0,0,.09-1.67v-.87a21.53,21.53,0,0,1,.09-2.36,8.23,8.23,0,0,1-.78,1,2.45,2.45,0,0,0-.3-.65,4.72,4.72,0,0,0-.35.74,5.16,5.16,0,0,0-.43-.65,6.88,6.88,0,0,1-.57-.94c.06.81.07,1.08.07,1.68v2.34a9.4,9.4,0,0,0,.08,1.49H9.74a10,10,0,0,0,.09-1.49V10.78c0-.34,0-.57,0-.64a8.44,8.44,0,0,1,.06-1A12.26,12.26,0,0,1,8.48,12a3.45,3.45,0,0,0-.9-1.32A10.83,10.83,0,0,0,9.65,7H9.19A9.52,9.52,0,0,0,8,7.05V5.55a7.59,7.59,0,0,0,1.23.06h.66V1.92A7.5,7.5,0,0,0,9.79.7h1.54a8.22,8.22,0,0,0-.06,1.21v3.7h.66a7.34,7.34,0,0,0,1,0V7c-.27,0-.54,0-1,0ZM9.05,1.74a23.31,23.31,0,0,1,.72,3l-1.11.38a17.88,17.88,0,0,0-.75-2.94Zm4,.35a9,9,0,0,0,1.26.06V1.71a4.34,4.34,0,0,0-.08-1h1.58a4.83,4.83,0,0,0-.06,1v.44h1.78V1.7a4,4,0,0,0-.08-1h1.59a4.32,4.32,0,0,0-.07,1v.44h.7A8.12,8.12,0,0,0,21,2.07V3.59a10.47,10.47,0,0,0-1.32-.06H19v.13a3.26,3.26,0,0,0,.06.81H17.49a3.09,3.09,0,0,0,.06-.79V3.53H15.77V3.6a5.59,5.59,0,0,0,0,.81H14.27a3.88,3.88,0,0,0,.06-.79V3.53a8.23,8.23,0,0,0-1.28.06V2.18a16.39,16.39,0,0,1-.73,2.92l-1-.37a13.58,13.58,0,0,0,.58-2.93ZM17.92,12c0,.33.09.38.72.38s.78,0,.87-.21a8.19,8.19,0,0,0,.21-2.27,4,4,0,0,0,1.44.62c-.19,3.11-.33,3.28-2.7,3.28-1.57,0-2-.24-2-1.21V9.93l-.59.27A2.74,2.74,0,0,0,15.09,9c.71-.3.92-.39,1.4-.63V6.05a8.54,8.54,0,0,0-.08-1.29H18A7.9,7.9,0,0,0,17.92,6V7.45a7.17,7.17,0,0,0,2-2l1.17,1.1a4.28,4.28,0,0,0-.42.37,20.05,20.05,0,0,1-2.72,2.19Z"/><path d="M28.45,4.4c-.69,0-1.34.06-1.91.06s-.67,0-.7-.09a5.59,5.59,0,0,1-.09-1.16V2.93c.7,0,1,0,1.38,0s.94,0,1.39,0a14.7,14.7,0,0,0,.09-1.47c0-.13,0-.22,0-.43a8.22,8.22,0,0,1,1.7.16c.12,0,.18.09.18.2a.7.7,0,0,1-.09.31,4.28,4.28,0,0,0-.26,1.14,21.52,21.52,0,0,0,2.57-.33,7.93,7.93,0,0,1,.84-.16,1.26,1.26,0,0,0,.63-.17h.11c.06,0,.1.06.13.17a10.23,10.23,0,0,1,.08,1.08c0,.22-.05.28-.2.31-.88.18-2.71.41-4.28.54a.66.66,0,0,0,0,.24A9.23,9.23,0,0,0,30,5.6a8.31,8.31,0,0,1,2-.23,5.24,5.24,0,0,0,.15-.94c1.16.24,1.73.45,1.73.63s0,.1-.14.3a.59.59,0,0,0-.1.21,3.78,3.78,0,0,1,3.16,3.71,4.24,4.24,0,0,1-2.58,3.84,5.77,5.77,0,0,1-1.84.63.44.44,0,0,1-.38-.18,4.45,4.45,0,0,0-1-1.06A6,6,0,0,0,34,11.29a2.61,2.61,0,0,0,1-2.1,2.45,2.45,0,0,0-1.91-2.44,12,12,0,0,1-2.58,4.15,6.72,6.72,0,0,0,.27.72.55.55,0,0,1,.08.21c0,.15-.06.2-.41.38a3.13,3.13,0,0,1-.95.34c-.14,0-.17,0-.33-.51a4.69,4.69,0,0,1-2.72.94,1.79,1.79,0,0,1-1.71-2c0-1.87,1.37-3.7,3.63-4.82C28.42,5.36,28.43,4.7,28.45,4.4Zm-2.12,6.29a.55.55,0,0,0,.6.6,3.42,3.42,0,0,0,1.86-.78,17.91,17.91,0,0,1-.37-2.83A4.36,4.36,0,0,0,26.33,10.69Zm5.25-4.13a5.9,5.9,0,0,0-1.65.33,15.12,15.12,0,0,0,.18,2.27A9.47,9.47,0,0,0,31.58,6.56Z"/><path d="M45.13,6.32c0-.74,0-.74,0-1.67a2.33,2.33,0,0,1-.33,0A15.28,15.28,0,0,1,42,4.43c-.15,0-.18-.08-.18-.23a8.22,8.22,0,0,1,.15-1.32,14.78,14.78,0,0,0,2.77.27h.38v-1c0-.53,0-.77-.05-1.29A10.38,10.38,0,0,1,46.66,1c.3.06.39.13.39.3s0,.1-.12.34A3.65,3.65,0,0,0,46.75,3a12.69,12.69,0,0,0,2.32-.46l.08,0c.1,0,.1,0,.27.5a4.65,4.65,0,0,1,.21.82c0,.11-.05.17-.2.21a17.94,17.94,0,0,1-2.72.5c0,1.06,0,1.11,0,1.63a10.42,10.42,0,0,0,2.8-.72.41.41,0,0,1,.15,0c.09,0,.12,0,.27.4a4.15,4.15,0,0,1,.29,1c0,.07-.06.13-.17.17a17.64,17.64,0,0,1-3.26.77c0,.57.06.88.15,2a8.11,8.11,0,0,1,1.82.74,8.87,8.87,0,0,1,1.76,1.12.33.33,0,0,1,.16.29,2.52,2.52,0,0,1-.42.81c-.33.49-.49.68-.6.68a.16.16,0,0,1-.13-.06,8.73,8.73,0,0,0-2.49-1.76,2,2,0,0,1-.63,1.49,3.44,3.44,0,0,1-2.43.77c-1.84,0-3-.81-3-2.11a2,2,0,0,1,.65-1.5,3.71,3.71,0,0,1,2.59-.83,7.65,7.65,0,0,1,1,.08c-.08-1-.11-1.32-.12-1.64-.35,0-.54,0-.72,0a12.18,12.18,0,0,1-3-.38c-.15,0-.21-.12-.21-.24A7.94,7.94,0,0,1,41.48,6a14.69,14.69,0,0,0,3.22.36h.43Zm-1,4.57c-1,0-1.49.28-1.49.79s.44.69,1.28.69,1.42-.34,1.42-1.09V11A4.35,4.35,0,0,0,44.1,10.89Z"/><path d="M60.61,1.37a6.92,6.92,0,0,0,.54,2,18.08,18.08,0,0,0,3.4-1.2.54.54,0,0,1,.18,0c.15,0,.25.27.48,1.24a.57.57,0,0,0,0,.15.18.18,0,0,1,0,.06c0,.11-.06.17-.21.23a22.15,22.15,0,0,1-3.23,1,8.74,8.74,0,0,0,3,3.34.19.19,0,0,1,.12.18,4.1,4.1,0,0,1-.58,1.24c-.14.2-.23.27-.36.27s-.14,0-.33-.16A6.28,6.28,0,0,0,62,9a6.84,6.84,0,0,0-1.92-.26c-1.77,0-2.67.5-2.67,1.46a1.3,1.3,0,0,0,.9,1.21,8.8,8.8,0,0,0,3.51.54,8.05,8.05,0,0,0,1.2-.07,7.29,7.29,0,0,0-.6,1.58c-.08.23-.2.29-.6.29a15.07,15.07,0,0,1-3-.32c-2-.49-3.13-1.61-3.13-3.11a2.79,2.79,0,0,1,.78-1.94,4.53,4.53,0,0,1,3.22-1.05A5.67,5.67,0,0,1,62,7.75a10,10,0,0,1-1.83-2.54c-.91.16-1.68.27-2.56.36-.53,0-1.68.12-1.9.12s-.27-.05-.35-.3A9.52,9.52,0,0,1,55.12,4l1,0a26.18,26.18,0,0,0,3.35-.27c-.13-.3-.39-.94-.54-1.35a6.09,6.09,0,0,0-.54-1.23A13.32,13.32,0,0,1,60.22,1c.28,0,.39.07.39.25Z"/><path d="M70.42,1.68V1.47a6.45,6.45,0,0,1,1.81.5.19.19,0,0,1,.14.21.55.55,0,0,1-.09.24,5,5,0,0,0-.41,1.41,20.33,20.33,0,0,0-.43,4.3,16,16,0,0,0,.12,2.1l.79-1.61a2,2,0,0,0,.39.78c.12.15.14.2.14.32s0,.12-.29.75a9.38,9.38,0,0,0-.66,2c0,.24-.09.32-.16.35a3.44,3.44,0,0,1-.93.13c-.21,0-.28-.05-.33-.18a17.11,17.11,0,0,1-.66-4.62,37.57,37.57,0,0,1,.44-4.94,10.28,10.28,0,0,0,.13-1.38Zm5.11,4.25c-.84,0-1.08,0-1.15-.14a3.2,3.2,0,0,1-.2-1.3V4.26A16.71,16.71,0,0,0,76,4.35c.58,0,.91,0,1.51-.06a11.34,11.34,0,0,0-.32-3h.41a8.83,8.83,0,0,1,1.5.12.24.24,0,0,1,.22.24.84.84,0,0,1,0,.23,2.83,2.83,0,0,0-.12.93c0,.22,0,.93,0,1.11V4.1a9.26,9.26,0,0,0,1.74-.41l.18,0a.17.17,0,0,1,.17.14,5,5,0,0,1,.12,1.08c0,.24,0,.34-.17.39a16.61,16.61,0,0,1-2,.37c0,.42,0,.65,0,.89a11,11,0,0,1-.87,5c-.54,1.06-1.7,2.3-2.18,2.3-.14,0-.2,0-.36-.18a3.55,3.55,0,0,0-1.17-.77,5.25,5.25,0,0,0,2.19-2.07,7.75,7.75,0,0,0,.76-3.56c0-.1,0-.35,0-.71,0-.15,0-.38,0-.68C77.05,5.87,75.83,5.93,75.53,5.93Z"/><rect class="cls-1" width="88.99" height="14.76"/></g></g></svg>