<svg xmlns="http://www.w3.org/2000/svg" viewBox="0 0 251.15 75.75"><defs><style>.cls-1{fill:#222;}.cls-2{fill:none;}</style></defs><g id="レイヤー_2" data-name="レイヤー 2"><g id="レイヤー_1-2" data-name="レイヤー 1"><path class="cls-1" d="M61.27,4.78c-.88.06-1.7.08-2.43.08s-.86,0-.9-.12a7.45,7.45,0,0,1-.11-1.47V2.91c.9,0,1.28,0,1.76,0l1.77,0c.1-1.11.12-1.5.12-1.88,0-.17,0-.28,0-.55a10.27,10.27,0,0,1,2.18.21c.15,0,.23.11.23.25a1,1,0,0,1-.12.4,6.08,6.08,0,0,0-.34,1.45,30.12,30.12,0,0,0,3.29-.42,9.51,9.51,0,0,1,1.07-.21,1.66,1.66,0,0,0,.8-.21l0,0,.1,0c.07,0,.13.08.17.21A13.12,13.12,0,0,1,69,3.56c0,.28,0,.36-.25.4-1.12.23-3.46.51-5.46.69a1,1,0,0,0,0,.3,12,12,0,0,0-.06,1.36A10.81,10.81,0,0,1,65.7,6a6.9,6.9,0,0,0,.2-1.2c1.47.3,2.19.57,2.19.8,0,.08,0,.13-.17.38a.76.76,0,0,0-.13.27,4.83,4.83,0,0,1,4,4.74,5.43,5.43,0,0,1-3.29,4.9,7.35,7.35,0,0,1-2.35.8.57.57,0,0,1-.48-.23,6.12,6.12,0,0,0-1.26-1.36,7.69,7.69,0,0,0,3.92-1.54,3.35,3.35,0,0,0,1.3-2.68,3.13,3.13,0,0,0-2.43-3.12A15.43,15.43,0,0,1,64,13.08a7.27,7.27,0,0,0,.34.92.69.69,0,0,1,.09.26c0,.2-.07.25-.51.48a3.9,3.9,0,0,1-1.23.44c-.17,0-.21-.06-.42-.65a6,6,0,0,1-3.46,1.21c-1.3,0-2.18-1.06-2.18-2.59,0-2.39,1.74-4.72,4.63-6.15C61.23,6,61.25,5.16,61.27,4.78Zm-2.7,8a.71.71,0,0,0,.77.77,4.45,4.45,0,0,0,2.37-1A22.63,22.63,0,0,1,61.23,9C59.55,10.21,58.57,11.64,58.57,12.81Zm6.69-5.28a8.07,8.07,0,0,0-2.1.42,20.19,20.19,0,0,0,.23,2.91A12,12,0,0,0,65.26,7.53Z"/><path class="cls-1" d="M82.86,7.23c0-.94,0-.94-.06-2.12h-.42a19.11,19.11,0,0,1-3.56-.3c-.19-.06-.23-.1-.23-.29a10,10,0,0,1,.19-1.68,19.49,19.49,0,0,0,3.54.34c.09,0,.27,0,.48,0V1.91c0-.67,0-1-.06-1.64A12.22,12.22,0,0,1,84.81.5c.38.07.49.17.49.38s0,.13-.15.44A4.56,4.56,0,0,0,84.92,3a16.3,16.3,0,0,0,3-.59l.1,0c.13,0,.13,0,.34.63a5.16,5.16,0,0,1,.27,1.05c0,.14-.06.21-.25.27A22.62,22.62,0,0,1,84.86,5c0,1.36,0,1.41,0,2.08a14,14,0,0,0,3.58-.91.45.45,0,0,1,.19-.06c.11,0,.15.06.34.51a5.31,5.31,0,0,1,.37,1.21c0,.09-.08.17-.21.23A22.25,22.25,0,0,1,85,9c0,.73.07,1.13.19,2.62a10.76,10.76,0,0,1,2.33.94A11,11,0,0,1,89.74,14a.43.43,0,0,1,.21.37,3.2,3.2,0,0,1-.54,1c-.42.63-.63.88-.76.88a.21.21,0,0,1-.17-.08A11.3,11.3,0,0,0,85.3,14a2.55,2.55,0,0,1-.8,1.91,4.43,4.43,0,0,1-3.1,1c-2.35,0-3.8-1-3.8-2.69a2.59,2.59,0,0,1,.82-1.91,4.75,4.75,0,0,1,3.31-1.06,10.32,10.32,0,0,1,1.34.1c-.1-1.24-.14-1.68-.16-2.08-.44,0-.69,0-.92,0a16,16,0,0,1-3.82-.48c-.19-.06-.27-.16-.27-.31a10.94,10.94,0,0,1,.29-1.68,18.21,18.21,0,0,0,4.11.46h.56Zm-1.32,5.83c-1.23,0-1.9.36-1.9,1s.56.88,1.63.88c1.24,0,1.81-.44,1.81-1.39v-.33A5.41,5.41,0,0,0,81.54,13.06Z"/><path class="cls-1" d="M102.94.92a8.85,8.85,0,0,0,.69,2.58A23.94,23.94,0,0,0,108,2a.7.7,0,0,1,.23-.06c.19,0,.32.35.61,1.59,0,.09,0,.11,0,.19a.15.15,0,0,1,0,.08c0,.13-.08.21-.27.28a28,28,0,0,1-4.13,1.3,11.12,11.12,0,0,0,3.79,4.27.26.26,0,0,1,.15.23,5,5,0,0,1-.75,1.58c-.17.25-.28.35-.46.35s-.17,0-.42-.21a7.93,7.93,0,0,0-2-.92,8.67,8.67,0,0,0-2.45-.32c-2.26,0-3.4.63-3.4,1.85A1.66,1.66,0,0,0,100,13.73a11.41,11.41,0,0,0,4.48.69,9.91,9.91,0,0,0,1.53-.1,9.65,9.65,0,0,0-.77,2c-.09.28-.25.36-.76.36a19.24,19.24,0,0,1-3.86-.4c-2.55-.63-4-2.07-4-4a3.57,3.57,0,0,1,1-2.46,5.78,5.78,0,0,1,4.11-1.34,7.24,7.24,0,0,1,3,.53,12.54,12.54,0,0,1-2.33-3.25c-1.17.21-2.15.35-3.27.46-.67.06-2.14.15-2.43.15s-.35,0-.44-.38a10.77,10.77,0,0,1-.31-1.81l1.28,0a34,34,0,0,0,4.29-.34c-.18-.38-.5-1.2-.69-1.72a8.34,8.34,0,0,0-.69-1.57,17.66,17.66,0,0,1,2.31-.25c.37,0,.5.1.5.33Z"/><path class="cls-1" d="M115.78,1.32V1.05a8.25,8.25,0,0,1,2.31.63.26.26,0,0,1,.17.27.77.77,0,0,1-.11.31,6.51,6.51,0,0,0-.52,1.79,25.77,25.77,0,0,0-.55,5.49,19.61,19.61,0,0,0,.15,2.68l1-2.05a2.69,2.69,0,0,0,.5,1c.15.19.17.25.17.4s0,.15-.36.95a11.47,11.47,0,0,0-.84,2.58c-.06.31-.12.41-.21.44a4.26,4.26,0,0,1-1.19.18c-.27,0-.36-.06-.42-.23a21.79,21.79,0,0,1-.84-5.89,48.38,48.38,0,0,1,.55-6.31,12.73,12.73,0,0,0,.18-1.76Zm6.52,5.41c-1.07,0-1.38,0-1.48-.17a4.42,4.42,0,0,1-.24-1.67V4.61a22.91,22.91,0,0,0,2.35.11c.74,0,1.16,0,1.93-.07a14.4,14.4,0,0,0-.4-3.79H125a11.33,11.33,0,0,1,1.92.15.31.31,0,0,1,.28.31,1.06,1.06,0,0,1-.06.29A3.89,3.89,0,0,0,127,2.79c0,.29,0,1.19,0,1.42V4.4a11.31,11.31,0,0,0,2.22-.52.93.93,0,0,1,.23,0c.11,0,.17.06.21.18a6.78,6.78,0,0,1,.15,1.37c0,.31-.06.44-.21.5a22,22,0,0,1-2.54.48c0,.53,0,.82,0,1.13A14,14,0,0,1,126,13.82c-.69,1.36-2.18,2.95-2.79,2.95-.17,0-.25,0-.46-.23a4.6,4.6,0,0,0-1.49-1A6.61,6.61,0,0,0,124,12.91a9.79,9.79,0,0,0,1-4.53c0-.14,0-.46,0-.92,0-.19,0-.48,0-.86C124.23,6.65,122.68,6.73,122.3,6.73Z"/><path class="cls-1" d="M136.38,5.56a16.15,16.15,0,0,1-.67,2.7,5.53,5.53,0,0,0-1.59-.8A17,17,0,0,0,135,2a4.21,4.21,0,0,0,0-.46l1.8.21a4.1,4.1,0,0,0-.12,1s0,.46-.09,1h.84V1.55A9,9,0,0,0,137.33,0h2.16a9.81,9.81,0,0,0-.11,1.51V3.71h.15a7.43,7.43,0,0,0,1.48-.1V5.53c.61,0,1,.07,1.68.07h2.08V3.81h-1.53a17.09,17.09,0,0,0-1.89.09v-2a10.26,10.26,0,0,0,1.89.12h1.53V1.43a11.53,11.53,0,0,0-.09-1.37h2.12a8.61,8.61,0,0,0-.1,1.36V2h2a10.5,10.5,0,0,0,1.91-.12v2a17.23,17.23,0,0,0-1.91-.09h-2V5.6h2.49a14.53,14.53,0,0,0,2.06-.11v2a18.1,18.1,0,0,0-1.91-.1h-.11V8.91h.17a10.21,10.21,0,0,0,1.8-.1v2a12,12,0,0,0-1.8-.11h-.17v4.39c0,1.36-.6,1.72-2.72,1.72-.3,0-1,0-1.57,0a5,5,0,0,0-.47-2,17.58,17.58,0,0,0,2.16.19c.57,0,.69-.1.69-.57V10.73H142.5a10.61,10.61,0,0,0-1.78.11V10c-.46.21-.94.42-1.34.57V15a19.17,19.17,0,0,0,.11,2.12h-2.16a17.6,17.6,0,0,0,.12-2.12V11.3l-1.22.44a10.34,10.34,0,0,0-1.4.54l-.46-2.09a19.44,19.44,0,0,0,3.08-.84V5.56Zm3,3.12c.67-.25.92-.34,1.61-.63v.8c.46,0,1,.06,1.76.06h4.57V7.38h-4.63a14.15,14.15,0,0,0-2.07.1V5.6a7.88,7.88,0,0,0-.93,0h-.31ZM143,10.82a15.19,15.19,0,0,1,2.41,2.81l-1.6,1.21a14,14,0,0,0-2.34-3Z"/><path class="cls-1" d="M159.52,8.66A19,19,0,0,1,156.84,11,5.26,5.26,0,0,0,155.6,9.2a16.78,16.78,0,0,0,3.1-2.51,12.26,12.26,0,0,0,2.18-2.88h-2.59a16.93,16.93,0,0,0-2.19.11v-2a16.93,16.93,0,0,0,2.19.12h3.46a8.53,8.53,0,0,0,.54-2l2.28.27a9.61,9.61,0,0,0-.39,1c-.05.13-.09.25-.26.69h6.53a16.12,16.12,0,0,0,2.16-.12V3.92a16.33,16.33,0,0,0-2.16-.11h-7.36c-.32.63-.55,1-.89,1.54h6.25a18.71,18.71,0,0,0,1.93-.07,19.14,19.14,0,0,0-.08,2.08V15a1.59,1.59,0,0,1-.71,1.49,4.59,4.59,0,0,1-2.14.31c-.46,0-.57,0-1.68-.06a5.53,5.53,0,0,0-.48-1.93,16.06,16.06,0,0,0,2.14.17c.79,0,.9-.08.9-.54V13.08h-6.84v1.57a20.78,20.78,0,0,0,.09,2.29H159.4a19,19,0,0,0,.12-2.31Zm8.81-1.55h-6.84V8.45h6.84Zm-6.84,3v1.37h6.84V10.08Z"/><path class="cls-1" d="M183.23,12.37a4.25,4.25,0,0,1-3.48,2.47c-2,0-3.4-1.95-3.4-4.67a7.72,7.72,0,0,1,4.15-7,9.09,9.09,0,0,1,4.47-1,6.62,6.62,0,0,1,7,6.61,7.28,7.28,0,0,1-4.82,7.12,4.44,4.44,0,0,1-1.37.42c-.23,0-.33-.08-.58-.44a4,4,0,0,0-1.2-1.21c3.94-1,5.72-2.86,5.72-6A4.47,4.47,0,0,0,187.82,5a4.79,4.79,0,0,0-2.25-.82C185,8.16,184.4,10.36,183.23,12.37ZM180.48,5.6a6,6,0,0,0-2,4.53c0,1.48.48,2.34,1.28,2.34,1,0,1.93-1.32,2.66-3.6a24.08,24.08,0,0,0,1-4.64A5.5,5.5,0,0,0,180.48,5.6Z"/><path class="cls-1" d="M45.92,31.84a16.1,16.1,0,0,0-.12-2.12h2.3A17.45,17.45,0,0,0,48,31.84v.77h.75A18,18,0,0,0,51,32.49v2.16a21.76,21.76,0,0,0-2.28-.11H48V44a20.55,20.55,0,0,0,.12,2.33H45.92v-1H39.55v1H37.39A21.53,21.53,0,0,0,37.5,44V34.54h-.76a20.42,20.42,0,0,0-2.22.11V32.49a17.54,17.54,0,0,0,2.22.12h.76V31.8a18.41,18.41,0,0,0-.11-2.08h2.27a18.55,18.55,0,0,0-.11,2.08v.81h6.37Zm-6.37,2.7v3.25h6.37V34.54Zm0,5.12v3.71h6.37V39.66Z"/><path class="cls-1" d="M63.53,30.39A8.66,8.66,0,0,0,64.21,33a23.42,23.42,0,0,0,4.34-1.53.85.85,0,0,1,.23-.06c.19,0,.33.35.62,1.59a.84.84,0,0,0,0,.19.15.15,0,0,1,0,.08c0,.13-.07.21-.27.29a28.81,28.81,0,0,1-4.13,1.3,11.17,11.17,0,0,0,3.79,4.26.26.26,0,0,1,.15.23,5.23,5.23,0,0,1-.74,1.59c-.17.24-.29.34-.46.34s-.17,0-.42-.21a8,8,0,0,0-2.05-.92,8.65,8.65,0,0,0-2.44-.32c-2.26,0-3.41.63-3.41,1.85a1.67,1.67,0,0,0,1.15,1.55,11.35,11.35,0,0,0,4.47.69,9.75,9.75,0,0,0,1.53-.1,9.78,9.78,0,0,0-.76,2c-.1.29-.25.36-.77.36a19.32,19.32,0,0,1-3.86-.4c-2.54-.63-4-2.06-4-4a3.57,3.57,0,0,1,1-2.46A5.76,5.76,0,0,1,62.34,38a7.16,7.16,0,0,1,3,.53A12.54,12.54,0,0,1,63,35.28c-1.17.22-2.14.35-3.27.46-.67.06-2.14.16-2.43.16s-.34-.06-.44-.39a11,11,0,0,1-.3-1.81c.63,0,.93,0,1.28,0a33.79,33.79,0,0,0,4.28-.35c-.17-.38-.5-1.2-.69-1.72a7.73,7.73,0,0,0-.69-1.57A17.78,17.78,0,0,1,63,29.85c.36,0,.5.1.5.33Z"/><path class="cls-1" d="M76,37.1a1.86,1.86,0,0,0-.34.13.42.42,0,0,1-.23.08c-.42,0-.73-.73-1-2.14h.37a28.48,28.48,0,0,0,4.07-.5,17.88,17.88,0,0,0,.61-3.84,2.19,2.19,0,0,0,0-.33,7.63,7.63,0,0,1,2.14.48c.31.12.46.27.46.46a.6.6,0,0,1-.11.33,8.62,8.62,0,0,0-.88,2.6,11.31,11.31,0,0,1,1.3-.1,3.14,3.14,0,0,1,1.83.46c.77.55,1.15,1.68,1.15,3.42,0,2.85-.52,5.3-1.4,6.5a2.9,2.9,0,0,1-2.54,1.25,4.28,4.28,0,0,1-1.53-.21c-.15-.1-.15-.1-.21-.81a5.22,5.22,0,0,0-.4-1.51,4.47,4.47,0,0,0,1.85.4c.92,0,1.3-.44,1.72-2a14.05,14.05,0,0,0,.45-3.73c0-1.49-.37-2-1.38-2-.35,0-.9.06-1.34.11-.06.23-.08.25-.15.5A44.11,44.11,0,0,1,78,43.24c-1,2.08-1.26,2.5-1.51,2.5a4.27,4.27,0,0,1-1.22-.63c-.44-.27-.56-.38-.56-.53s0-.1.79-1.34a28.41,28.41,0,0,0,2.9-6.69C77,36.87,76.16,37,76,37.1Zm12-3.92a1.49,1.49,0,0,1-.61.33c-.06,0-.12,0-.17-.14a9.48,9.48,0,0,0-1.63-1.87.17.17,0,0,1-.06-.12c0-.07.14-.21.46-.46s.42-.28.56-.28a6.23,6.23,0,0,1,2,2C88.53,32.76,88.38,32.89,88,33.18Zm-2,2c0-.14.17-.31.73-.75.38-.28.57-.4.73-.4a6.71,6.71,0,0,1,1.91,2,9.37,9.37,0,0,1,1.39,2.64c0,.19,0,.24-.67.74a2.54,2.54,0,0,1-1,.55c-.14,0-.19,0-.33-.38a12.86,12.86,0,0,0-1.2-2.37,9.23,9.23,0,0,0-1.47-1.85C86,35.34,86,35.28,86,35.21Zm2.51-5.87a5.6,5.6,0,0,1,2,1.95c0,.09-.12.21-.5.48a1.67,1.67,0,0,1-.59.36c-.1,0-.1,0-.48-.54a10.06,10.06,0,0,0-1.28-1.37c-.06-.06-.1-.1-.1-.16A2.11,2.11,0,0,1,88.48,29.34Z"/><path class="cls-1" d="M99.68,30.71a6.71,6.71,0,0,0-.08-1.12h2.07a6.8,6.8,0,0,0-.08,1.14v.48h3.88v-.48a10.26,10.26,0,0,0-.07-1.14h2.06a6.64,6.64,0,0,0-.07,1.14v.48h2.37a17,17,0,0,0,2.14-.11v2.08a15.77,15.77,0,0,0-2.14-.09h-2.37v.4a4.78,4.78,0,0,0,.07,1h-2c0-.32,0-.65,0-.95v-.44h-3.88v.42a7.2,7.2,0,0,0,.06,1H99.6a7.46,7.46,0,0,0,.08-1v-.44H97.5a15.61,15.61,0,0,0-2.14.09V31.1a17.41,17.41,0,0,0,2.14.11h2.18Zm8.68,8.88a14.84,14.84,0,0,0,1.55-.06,9.94,9.94,0,0,0-.1,1.68v3.37a12.78,12.78,0,0,0,.12,1.91h-2.11v-.9H99.49v.9H97.42a13.55,13.55,0,0,0,.12-1.91V41.21a10.23,10.23,0,0,0-.1-1.68,14.53,14.53,0,0,0,1.53.06h3.52V37.83H97.63c-1,0-1.64,0-2.23.09V35.84a16.41,16.41,0,0,0,2.23.11h4.86v-.8a7.31,7.31,0,0,0-.08-1.3h2.16a6.51,6.51,0,0,0-.09,1.3V36h5.14a16,16,0,0,0,2.24-.11v2.08c-.59-.05-1.26-.09-2.24-.09h-5.14v1.76Zm-8.87,4.13h8.35v-2.3H99.49Z"/><path class="cls-1" d="M123.69,32.55c-2.47.23-3.31.27-5.75.33a10.81,10.81,0,0,0-.67-1.9h.82a56.45,56.45,0,0,0,8.33-.63,14,14,0,0,0,3.39-.86l1.49,1.84a47.89,47.89,0,0,1-5.54,1v2.39h3.8a19,19,0,0,0,2.28-.11v2c-.62-.06-1.32-.09-2.26-.09h-3.82v2.21h4.68a16.28,16.28,0,0,0,2.24-.11v2.08a18.89,18.89,0,0,0-2.24-.11h-4.68v3.59c0,.82-.25,1.38-.71,1.57a5.9,5.9,0,0,1-2.09.31c-.55,0-1.39,0-2.48-.12a5.76,5.76,0,0,0-.56-2,23.3,23.3,0,0,0,3.06.25c.54,0,.71-.13.71-.55v-3h-5.14a18.77,18.77,0,0,0-2.24.11V38.67a16.19,16.19,0,0,0,2.24.11h5.14V36.57h-4.11c-.8,0-1.66,0-2.29.09v-2a18.74,18.74,0,0,0,2.27.11h4.13Z"/><path class="cls-1" d="M139.16,35.25l-.78,0-.21,0c-.15,0-.23,0-.29-.25a10.58,10.58,0,0,1-.24-1.89c.21,0,.76,0,1.45,0,.21,0,1.72-.1,2.39-.15a15.37,15.37,0,0,0,.44-3.39c2,.27,2.68.5,2.68.86,0,.14,0,.17-.31.61a6.2,6.2,0,0,0-.54,1.63,13.3,13.3,0,0,0,2.15-.52,1.19,1.19,0,0,1,.28,0c.14,0,.17.09.29.65a7.27,7.27,0,0,1,.15,1.09c0,.23-.06.26-.55.38-.65.15-1.76.34-2.95.5a34,34,0,0,1-2.06,5.08,26.91,26.91,0,0,1-1.57,2.85c-.15.23-.25.31-.38.31a4,4,0,0,1-1.4-.79c-.3-.21-.38-.3-.38-.44s.08-.25.32-.59a18.42,18.42,0,0,0,1.92-3.14,23,23,0,0,0,1.28-3C140.1,35.17,140,35.19,139.16,35.25Zm6.3,11c-2.09,0-3.5-1.15-3.5-2.85a3.19,3.19,0,0,1,3.44-3.08,7.76,7.76,0,0,1,1.45.14c-.07-.92-.07-1.29-.15-3.06,0-.37,0-.86-.08-1.48a8.72,8.72,0,0,1,2.09.37.31.31,0,0,1,.23.3,2,2,0,0,1,0,.31,4.39,4.39,0,0,0-.12,1.2c0,.71.06,1.92.12,2.85a11.35,11.35,0,0,1,2.86,1.67c.43.32.58.49.58.65s-.1.36-.63,1.22c-.23.38-.4.55-.54.55s-.11,0-.65-.49A7.69,7.69,0,0,0,149,43.41C149,45.19,147.65,46.26,145.46,46.26Zm0-4.09c-.92,0-1.55.44-1.55,1.11s.57,1,1.43,1a1.37,1.37,0,0,0,1.55-1.53,1,1,0,0,0,0-.31A3.29,3.29,0,0,0,145.42,42.17Zm7.15-5.43c-.23.32-.35.42-.48.42s-.17,0-.31-.17a11.15,11.15,0,0,0-1.85-1.4,7.31,7.31,0,0,0-1.3-.67c-.27-.11-.36-.19-.36-.34s.09-.31.38-.75c.46-.67.57-.78.74-.78a9.72,9.72,0,0,1,2.8,1.41c.82.56,1.07.79,1.07,1A4.67,4.67,0,0,1,152.57,36.74Z"/><path class="cls-1" d="M166.93,29.8a13.82,13.82,0,0,0-.12,1.89,13.26,13.26,0,0,0,1.8,7.25,12.83,12.83,0,0,0,2.89,3.48,13.06,13.06,0,0,0,2.83,2,6.8,6.8,0,0,0-1.42,2,18.53,18.53,0,0,1-4.66-4.32,14.29,14.29,0,0,1-2.43-5,13.24,13.24,0,0,1-1.45,3.71,13,13,0,0,1-2.81,3.52,16.24,16.24,0,0,1-2.85,2.12,5.31,5.31,0,0,0-1.44-1.89,12.13,12.13,0,0,0,4-3.08c2.37-2.71,3.36-5.72,3.36-10.11a9.63,9.63,0,0,0-.09-1.55Z"/><path class="cls-1" d="M183.12,40.92a.57.57,0,0,1,.07.27c0,.14,0,.15-.19.58a21,21,0,0,0-1.07,3.28c-.06.21-.11.33-.19.37a5.72,5.72,0,0,1-1,.13h-.07l-.39,0c-.24,0-.3-.06-.38-.28a25.52,25.52,0,0,1-.65-5.74,29.57,29.57,0,0,1,.67-6.27c.19-1,.29-1.61.36-2.24a8.94,8.94,0,0,1,2.07.61c.33.14.42.23.42.42s0,.2-.23.5c-.63,1-1.34,5.07-1.34,7.8,0,.44,0,1,.08,2,.54-1.2.73-1.57,1.17-2.5A5.23,5.23,0,0,0,183.12,40.92Zm4.15,1.36a5.28,5.28,0,0,0,2.61.44,9.58,9.58,0,0,0,3.14-.44,1,1,0,0,1,.27-.06c.13,0,.23.08.25.27a16.76,16.76,0,0,1,.17,1.8c0,.19-.06.25-.33.32A12.83,12.83,0,0,1,190,45a7,7,0,0,1-3.75-.75c-.84-.52-1.72-1.57-1.72-2.08,0-.27.4-.63,1.43-1.27A2.68,2.68,0,0,0,187.27,42.28Zm-1.34-9.75a16.29,16.29,0,0,0,2.58.17,21.52,21.52,0,0,0,3.71-.3l.17,0c.13,0,.19.06.23.21a13.28,13.28,0,0,1,.09,1.55c0,.28-.05.38-.26.42a20.68,20.68,0,0,1-3.46.25,16.23,16.23,0,0,1-3.31-.21c-.1-.06-.14-.19-.14-.54a10.05,10.05,0,0,1,.1-1.43c0-.08.08-.12.19-.12A.22.22,0,0,1,185.93,32.53Z"/><path class="cls-1" d="M202.62,35.63a8.2,8.2,0,0,1-3.1-1.17c-.34-.23-.42-.32-.42-.5a5.32,5.32,0,0,1,.69-1.66A9.39,9.39,0,0,0,203,33.56a19.18,19.18,0,0,0,.4-3.69,8.24,8.24,0,0,1,2.32.73c.21.11.28.23.26.38a.79.79,0,0,1-.13.35,8.29,8.29,0,0,0-.71,2.52c.19,0,.44,0,.6,0h.13c.46,0,.8,0,1,0h.06c.17,0,.23.08.23.33a6.67,6.67,0,0,1-.13,1.66c-.06.09-.31.13-1.11.13-.37,0-.65,0-1.19,0-.4,2-.4,2-.57,3a11,11,0,0,0,1.11.05l1.07,0c.19,0,.29,0,.34.14a4.47,4.47,0,0,1,.14,1.41c0,.35,0,.44-.14.5a6.19,6.19,0,0,1-1.24.06c-.34,0-.86,0-1.53-.06,0,.34,0,.57,0,.73,0,1.76.82,2.56,2.62,2.56,2,0,3.21-1,3.21-2.62a3.55,3.55,0,0,0-.44-1.72,5.2,5.2,0,0,0-1.66-1.88h.17a9.37,9.37,0,0,0,1.53-.21,3.86,3.86,0,0,1,.52-.07c.28,0,.48.13.86.61A5.26,5.26,0,0,1,212,41.8c0,2.7-2.18,4.48-5.49,4.48-3.1,0-4.65-1.55-4.65-4.69a5.85,5.85,0,0,1,0-.8c-1.89-.4-2.92-1.34-2.92-2.7a2.27,2.27,0,0,1,.74-1.75.25.25,0,0,1,.21-.1c.12,0,.25.1.69.46s.4.34.4.44,0,.08-.11.25a1.08,1.08,0,0,0-.15.46.66.66,0,0,0,.43.59,3.57,3.57,0,0,0,1,.29Z"/><path class="cls-1" d="M91.25,65.5a22.37,22.37,0,0,1-2.75.17c-.6,0-.69-.25-.83-2h.75a23.67,23.67,0,0,0,2.83-.17v-.4A17.15,17.15,0,0,0,91,59.9a11.53,11.53,0,0,1,2.43.27.31.31,0,0,1,.27.34.7.7,0,0,1-.12.38,6.5,6.5,0,0,0-.28,2.36c.63-.12,1.64-.37,2.4-.6a.39.39,0,0,1,.14,0,.28.28,0,0,1,.29.21,9.44,9.44,0,0,1,.21,1.44.37.37,0,0,1-.25.34,28.4,28.4,0,0,1-2.85.59v2.47a15,15,0,0,1,4.63-.94,3.77,3.77,0,0,1,4,4,3.87,3.87,0,0,1-1.76,3.5,4.83,4.83,0,0,1-2.35.55,5.43,5.43,0,0,1-2-.21c-.21-.11-.23-.17-.27-.63a4.81,4.81,0,0,0-.38-1.55,5.92,5.92,0,0,0,2.18.41c1.49,0,2.33-.77,2.33-2.13a2,2,0,0,0-2.08-2.12,11.61,11.61,0,0,0-4.38,1.09c0,.08,0,.08,0,.82,0,1.26,0,1.26,0,1.53s0,.69,0,.86c0,1.55-.6,2.3-1.86,2.3a4.22,4.22,0,0,1-3.23-1.65,2.22,2.22,0,0,1-.46-1.37c0-1.25,1.11-2.37,3.52-3.62Zm0,5.13c-1.11.66-1.57,1.1-1.57,1.51s.63.91,1.21.91c.26,0,.36-.17.36-.61Zm10.67-4.34A8.88,8.88,0,0,0,98.34,64c-.15-.06-.23-.13-.23-.23a4,4,0,0,1,.73-1.15c.21-.28.23-.3.42-.3a7.42,7.42,0,0,1,1.41.5c1.21.55,2.78,1.74,2.78,2.1s-1,1.55-1.25,1.55C102.11,66.46,102,66.42,101.92,66.29Z"/><path class="cls-1" d="M108.72,63.09c0-.55,0-1.3-.06-1.72a9,9,0,0,1,2,.42c.46.17.61.29.61.5s0,.11-.08.31a8.54,8.54,0,0,0-.32,3.11,17.09,17.09,0,0,0,.53,5.15c.29.89.73,1.41,1.25,1.41.78,0,1.43-.92,2.14-3a5.54,5.54,0,0,0,1,2,.66.66,0,0,1,.15.4,3.46,3.46,0,0,1-.67,1.51,3.35,3.35,0,0,1-2.71,1.68c-1.47,0-2.58-1.18-3.27-3.53a22.45,22.45,0,0,1-.65-6.14Zm11.37.31a.57.57,0,0,1,.37.19A12.83,12.83,0,0,1,123,67.53a11.76,11.76,0,0,1,.82,2.77c0,.19-.09.29-.5.5a6,6,0,0,1-1.56.53c-.18,0-.25-.09-.31-.44a13.36,13.36,0,0,0-1.18-3.78,10.43,10.43,0,0,0-1.88-2.78A4.67,4.67,0,0,1,120.09,63.4Z"/><path class="cls-1" d="M132.91,59.9c.48.13.61.23.61.44a1.28,1.28,0,0,1-.11.46,10.93,10.93,0,0,0-.44,2.87c-.15,3.07-.23,5.46-.23,7.36a5,5,0,0,0,.15,1.37c.21.64.88,1,2,1a7,7,0,0,0,4.84-2.1A11.5,11.5,0,0,0,141.5,69a6.34,6.34,0,0,0,.68,1.87,1.13,1.13,0,0,1,.1.44c0,.35-.36.81-1.32,1.67a9.18,9.18,0,0,1-6.19,2.58,4.39,4.39,0,0,1-3.22-1.06c-.72-.76-1-1.75-1-3.65,0-1.49,0-2.64.17-7.09,0-.67,0-1.07,0-1.24a18.86,18.86,0,0,0-.13-2.93A11.21,11.21,0,0,1,132.91,59.9Z"/><path class="cls-1" d="M156.63,60.93c0,.17-.07.23-.4.42a2.24,2.24,0,0,0-.48.44c-1.18,1.38-2.88,3.23-4.39,4.76a1.22,1.22,0,0,0-.46.81c0,.21.15.44.51.76,1.13,1,3,2.91,4.33,4.46.95,1.07,1.2,1.41,1.2,1.6s-.33.54-1.11,1.15a1.63,1.63,0,0,1-.71.42c-.17,0-.24-.08-.44-.38a40.12,40.12,0,0,0-4.36-5.28A9.13,9.13,0,0,1,149,68.66a2.08,2.08,0,0,1-.46-1.28,2.25,2.25,0,0,1,.34-1.17,9,9,0,0,1,1.38-1.59,33.44,33.44,0,0,0,3-3.67,7.66,7.66,0,0,0,1-1.82C155.81,60,156.63,60.59,156.63,60.93Z"/><rect class="cls-2" y="29.05" width="251.15" height="24.14"/></g></g></svg>